<?xml version="1.0" encoding="UTF-8"?>
<!DOCTYPE svg PUBLIC "-//W3C//DTD SVG 1.1//EN" "http://www.w3.org/Graphics/SVG/1.1/DTD/svg11.dtd">
<!-- Creator: CorelDRAW -->
<svg xmlns="http://www.w3.org/2000/svg" xml:space="preserve" width="33.8667mm" height="33.0519mm" version="1.1" style="shape-rendering:geometricPrecision; text-rendering:geometricPrecision; image-rendering:optimizeQuality; fill-rule:evenodd; clip-rule:evenodd"
viewBox="0 0 3386.68 3305.2"
 xmlns:xlink="http://www.w3.org/1999/xlink"
 xmlns:xodm="http://www.corel.com/coreldraw/odm/2003">
 <defs>
  <style type="text/css">
   <![CDATA[
    .fil0 {fill:#00005B}
    .fil1 {fill:#9898FD}
   ]]>
  </style>
 </defs>
 <g id="Layer_x0020_1">
  <metadata id="CorelCorpID_0Corel-Layer"/>
  <g id="_2690187762272">
   <path class="fil0" d="M430.27 2326.58l-0.18 -43.22 112.26 -320.21c43.01,-119.35 82.22,-242 126.03,-361.88 33.24,-90.96 191.77,-533.77 219.37,-632.08 9.12,-32.48 5.76,-79.21 14.66,-109.57l387.01 -5.15c30.29,66.48 359.43,1005.67 392.22,1101.53 19.39,56.71 131.1,339.68 122.58,373.69 -41.05,5.36 -293.36,7.5 -317.62,-2.24 -1.13,-1.06 -2.67,-4.46 -3.08,-3.49l-62.94 -169.75c-19.65,-54.87 -36.22,-123.54 -61.68,-175.43l-519.67 -0.57 -94.8 287.71c-27.64,86.43 -24.33,64.45 -127.3,64.43 -41.4,-0.01 -157.88,7.52 -186.86,-3.77zm2456.41 -484.83c-52.1,19.03 -585.36,6.98 -689.84,6.47 15.18,138.19 94.96,205.04 221.47,234.39 172.98,40.13 359.8,-38.93 385.9,-35.49 2.49,30.77 5.63,225.11 -3.02,241.72 -16.92,32.45 -148.07,53.85 -195.09,60.54 -151.01,21.52 -321.66,11.71 -447.27,-50.63 -488.8,-242.6 -328.88,-1232.33 373.61,-1099.67 218.96,41.36 337.64,205.34 364.12,406.48 7.05,53.51 10.43,190.32 -9.88,236.19zm492.73 928.51c14.05,-110.06 3.39,-294.46 3.39,-413.05l0 -1670.97c0,-151.98 -3.81,-229.4 -65.13,-353.69 -78.18,-158.46 -256.91,-317.16 -503.61,-327.4 -270.53,-11.23 -565.62,-0.54 -838.87,-0.54l-1251.66 0c-138.45,0 -244.84,-2.52 -362.15,50.34 -173.41,78.13 -323.67,237.94 -354.07,479.44 -14.07,111.77 -3.46,294.86 -3.46,414.7l0 1670.97c0,143.48 4.52,238.41 64.12,355.14 81.38,159.36 260.08,320.72 505.22,326.89 276,6.94 561.67,0.1 838.75,0.1l1251.67 0c148.95,0 234.85,5.95 362.93,-50.08 174.91,-76.51 322.57,-244.63 352.87,-481.85z"/>
   <path class="fil1" d="M921.65 1695.98c5.41,-36.3 32.59,-96.86 44.65,-141.33 13.11,-48.34 27.94,-98.84 42.83,-144.57 32.6,-100.08 54.36,-194.88 85.21,-296.57 5.3,8.83 177.96,577.57 178.05,583.98l-350.74 -1.51zm-491.38 630.6c28.98,11.29 145.46,3.76 186.86,3.77 102.97,0.02 99.66,22 127.3,-64.43l94.8 -287.71 519.67 0.57c25.46,51.89 42.03,120.56 61.68,175.43l62.94 169.75c0.41,-0.97 1.95,2.43 3.08,3.49 24.26,9.74 276.57,7.6 317.62,2.24 8.52,-34.01 -103.19,-316.98 -122.58,-373.69 -32.79,-95.86 -361.93,-1035.05 -392.22,-1101.53l-387.01 5.15c-8.9,30.36 -5.54,77.09 -14.66,109.57 -27.6,98.31 -186.13,541.12 -219.37,632.08 -43.81,119.88 -83.02,242.53 -126.03,361.88l-112.26 320.21 0.18 43.22z"/>
   <path class="fil1" d="M2197.56 1640.54c3.33,-87 59.63,-158.56 119.3,-187.08 83.72,-40.01 191.54,-11.88 237.21,36.99 14.39,15.39 98.45,140.73 19.98,150.49 -48.15,5.99 -345.15,3.34 -376.49,-0.4zm689.12 201.2c20.31,-45.87 16.93,-182.68 9.88,-236.19 -26.48,-201.14 -145.16,-365.12 -364.12,-406.48 -702.49,-132.66 -862.41,857.07 -373.61,1099.67 125.61,62.34 296.26,72.15 447.27,50.63 47.02,-6.69 178.17,-28.09 195.09,-60.54 8.65,-16.61 5.51,-210.95 3.02,-241.72 -26.1,-3.44 -212.92,75.62 -385.9,35.49 -126.51,-29.35 -206.29,-96.2 -221.47,-234.39 104.48,0.51 637.74,12.56 689.84,-6.47z"/>
   <path class="fil0" d="M921.65 1695.98l350.74 1.51c-0.09,-6.41 -172.75,-575.15 -178.05,-583.98 -30.85,101.69 -52.61,196.49 -85.21,296.57 -14.89,45.73 -29.72,96.23 -42.83,144.57 -12.06,44.47 -39.24,105.03 -44.65,141.33z"/>
   <path class="fil0" d="M2197.56 1640.54c31.34,3.74 328.34,6.39 376.49,0.4 78.47,-9.76 -5.59,-135.1 -19.98,-150.49 -45.67,-48.87 -153.49,-77 -237.21,-36.99 -59.67,28.52 -115.97,100.08 -119.3,187.08z"/>
  </g>
 </g>
</svg>
