<?xml version="1.0" encoding="UTF-8"?>
<!DOCTYPE svg PUBLIC "-//W3C//DTD SVG 1.1//EN" "http://www.w3.org/Graphics/SVG/1.1/DTD/svg11.dtd">
<!-- Creator: CorelDRAW -->
<svg xmlns="http://www.w3.org/2000/svg" xml:space="preserve" width="33.8668mm" height="26.9288mm" version="1.1" style="shape-rendering:geometricPrecision; text-rendering:geometricPrecision; image-rendering:optimizeQuality; fill-rule:evenodd; clip-rule:evenodd"
viewBox="0 0 3386.68 2692.88"
 xmlns:xlink="http://www.w3.org/1999/xlink"
 xmlns:xodm="http://www.corel.com/coreldraw/odm/2003">
 <defs>
  <style type="text/css">
   <![CDATA[
    .fil1 {fill:#7851B2}
    .fil0 {fill:white}
   ]]>
  </style>
 </defs>
 <g id="Layer_x0020_1">
  <metadata id="CorelCorpID_0Corel-Layer"/>
  <g id="_2690576711824">
   <rect class="fil0" x="999.07" y="457.43" width="1447.8" height="1786.47"/>
   <g>
    <path class="fil1" d="M1963.8 1293.52l0 23.52c426.16,0 501.42,740.84 -152.86,740.84l-552.7 0c-27.52,0 -47.03,-19.52 -47.03,-47.05l0 -1328.8c0,-27.53 19.51,-47.03 47.03,-47.03l552.7 0c317.4,0 504.86,265.26 356.9,521.54 -33.66,58.32 -125.44,130.44 -204.04,136.98zm-1963.8 -35.28l0 176.4c137.44,11.43 223.08,109.41 270.51,211.61 108.93,234.74 78.26,376.15 97.25,514.25 23.64,171.97 -24.39,190.41 24.67,316.34 38.22,98.05 149.84,216.04 277.85,216.04l2046.12 0c125.69,0 234.73,-113.82 274.37,-207.77 34.72,-82.29 25.1,-119.51 19.64,-203.68l11.75 -235.3c10.48,-223.46 94.82,-589.05 364.52,-611.49l0 -176.4c-138.95,-32.37 -209.6,-80.38 -270.51,-211.62 -107.15,-230.91 -77.86,-372.67 -99,-512.49 -24.17,-159.91 26.35,-191.66 -22.92,-318.09 -38.22,-98.07 -149.84,-216.04 -277.85,-216.04l-2046.12 0c-125.69,0 -234.73,113.81 -274.37,207.77 -52.43,124.25 -2.9,173.45 -24.57,316.43 -23.61,155.76 8.65,271.68 -97.25,514.24 -59.58,136.47 -132.53,186.82 -274.09,219.8z"/>
    <path class="fil1" d="M1434.63 1881.49c230.9,0 514.84,45.93 605.85,-123.24 10.65,-19.79 29.16,-75.82 29.16,-100.2 0,-300.82 -358.59,-258.69 -635.01,-258.69l0 482.13z"/>
    <path class="fil1" d="M1434.63 1246.48c225.9,0 564.45,43.97 564.45,-235.18 0,-255.43 -340.71,-199.91 -564.45,-199.91l0 435.09z"/>
   </g>
  </g>
 </g>
</svg>
