<?xml version="1.0" encoding="UTF-8"?>
<!DOCTYPE svg PUBLIC "-//W3C//DTD SVG 1.1//EN" "http://www.w3.org/Graphics/SVG/1.1/DTD/svg11.dtd">
<!-- Creator: CorelDRAW -->
<svg xmlns="http://www.w3.org/2000/svg" xml:space="preserve" width="33.8667mm" height="33.8534mm" version="1.1" style="shape-rendering:geometricPrecision; text-rendering:geometricPrecision; image-rendering:optimizeQuality; fill-rule:evenodd; clip-rule:evenodd"
viewBox="0 0 3386.68 3385.35"
 xmlns:xlink="http://www.w3.org/1999/xlink"
 xmlns:xodm="http://www.corel.com/coreldraw/odm/2003">
 <defs>
  <style type="text/css">
   <![CDATA[
    .fil0 {fill:#2BB229}
    .fil1 {fill:#54D024}
    .fil2 {fill:#82E21C}
    .fil3 {fill:#DDDDDD}
    .fil4 {fill:white}
   ]]>
  </style>
 </defs>
 <g id="Layer_x0020_1">
  <metadata id="CorelCorpID_0Corel-Layer"/>
  <g id="_2690195969376">
   <path class="fil0" d="M421.23 3137.36l7.13 4.05 9.05 4.03c13.63,-3.63 9.54,-5.62 9.54,9.33 11.94,30.84 193.08,122.78 249.29,145.72 97.33,39.73 202.21,65.9 317.45,76.79 118.55,11.2 269.03,3.45 390.97,3.46 131.44,0.03 262.89,-0.01 394.34,0.04 407.86,0.16 692.17,45.45 1036.64,-152.62 165.75,-95.3 296.74,-230.69 396.26,-398.73 194.19,-327.87 150.57,-652 150.58,-1032.32 0.01,-527.36 -6.69,-1058.8 0.08,-1585.65 -44.74,-15.21 -25.54,14.71 -53.4,42.48 4.32,-14.88 11.18,-3.37 0.14,-18.63 -0.63,1.41 -1.97,3.08 -2.52,3.87l-20.07 30.91c-0.32,0.62 -0.96,2.29 -1.31,2.89 -1.6,2.74 -2.81,4.6 -5.92,8.12 -11.6,13.1 -30.48,31.22 -43.73,43.22 -194.99,176.78 -372.93,366.9 -591.1,585.43l157.92 -161.18c-1.76,0.97 -3.84,2.27 -5.12,3.13l-157.77 153.9c-0.88,0.98 -2.08,2.39 -2.95,3.38l-14.54 16.48c-8.05,8.57 -13.17,13.46 -21.81,21.56l-580.23 583.91c-20.16,-11.37 -7.37,-4.6 -21.46,-16.16l-5.3 5.52c0.79,1.08 2.04,2.7 2.72,3.66 0.68,0.95 2.01,2.94 2.54,3.7l4.74 7.52c8.65,-0.31 6.56,-2.39 6.26,6.26 8.65,-0.31 6.56,-2.4 6.25,6.26 8.66,-0.31 6.58,-2.4 6.27,6.26 8.57,-0.31 6.44,-2.35 6.2,6.32l6.26 6.25 6.17 6.35 6.16 6.36 6.32 6.19 6.26 6.27 6.2 6.32 6.26 6.25 6.26 6.26 6.26 6.26 6.26 6.26 6.25 6.26 6.52 6.01 6.26 6.26 6.09 6.42 6.43 6.1 6.09 6.42 6.26 6.26 6.42 6.1 6.27 6.25 6.09 6.43 6.26 6.26 6.26 6.26 6.26 6.25 6.26 6.27 6.46 6 6.52 6.05 6.25 6.27 6.27 6.25 6.26 6.26 6.25 6.26 6.26 6.26 6.26 6.26 6.26 6.25 6.48 6.05 6.26 6.26 6.23 6.29 6.25 6.26 6.27 6.25 6.26 6.27 6.25 6.26 6.26 6.25 6.19 6.34 6.26 6.25 6.26 6.26 6.26 6.27 6.26 6.25 6.26 6.26 6.18 6.34 6.26 6.26 6.26 6.26 6.26 6.26 6.52 5.51 7.01 6 6.26 6.25 6.26 6.26 6.26 6.26 6.25 6.26 6.35 6.16 6.27 6.27 6.26 6.26 6.25 6.25 6.26 6.26 6.27 6.27 6.25 6.25 6.26 6.26 6.26 6.26 6.26 6.26 6.26 6.26 6.26 6.26 6.47 6.05 6.26 6.26 6.2 6.31 6.47 5.31c9.25,-0.28 7.23,-2.7 7.21,6.05l6.4 6.12 6.3 6.22 6.26 6.26 6.25 6.27 6.26 6.26 6.49 5.97 6.64 5.93 6.3 6.21 6.27 6.27 6.26 6.26 5.85 6.72 5.74 7.47 4.52 7.73 5.1 5.82 2.58 11.27c49.31,19.38 64.9,186.12 70.6,228.49 12.19,90.61 -31.38,115.75 -110.85,190.79 -80.96,76.45 -110.44,130.13 -186.69,122.29 -66.95,-6.88 -208.51,-27.01 -231.43,-73.68l-6.96 -8.79c-9.79,1.23 -7.91,3.53 -6.55,-6.01 -10.05,1.56 -8.12,3.82 -6.48,-6.06 -10.29,1.83 -8.34,4.06 -6.44,-6.09 -10.57,2.06 -8.53,4.24 -6.43,-6.26 -10.42,2.07 -8.34,4.16 -6.26,-6.27 -10.42,2.09 -8.32,4.17 -6.25,-6.26 -10.43,2.08 -8.35,4.17 -6.26,-6.25 -10.44,2.07 -8.35,4.17 -6.27,-6.26 -10.43,2.08 -8.34,4.17 -6.26,-6.26 -10.43,2.09 -8.35,4.17 -6.25,-6.26 -10.43,2.09 -8.35,4.18 -6.26,-6.26 -10.44,2.08 -8.34,4.17 -6.27,-6.26 -10.42,2.09 -8.34,4.17 -6.25,-6.26 -10.43,2.09 -8.35,4.18 -6.26,-6.25 -10.43,2.08 -8.35,4.17 -6.26,-6.27 -10.44,2.09 -8.35,4.18 -6.26,-6.25 -10.44,2.09 -8.35,4.17 -6.26,-6.26 -10.43,2.08 -8.35,4.17 -6.26,-6.26 -10.46,2.08 -8.4,4.2 -6.28,-6.24 -10.46,2.11 -8.38,4.2 -6.26,-6.26 -10.46,2.12 -8.38,4.2 -6.26,-6.26 -10.46,2.12 -8.37,4.2 -6.26,-6.26 -10.46,2.11 -8.37,4.21 -6.26,-6.26 -10.46,2.12 -8.38,4.2 -6.26,-6.26 -10.46,2.12 -8.37,4.2 -6.26,-6.26 -10.46,2.12 -8.37,4.21 -6.26,-6.25 -10.46,2.11 -8.37,4.2 -6.26,-6.27 -10.46,2.12 -8.37,4.2 -6.25,-6.26 -10.46,2.12 -8.38,4.21 -6.27,-6.25 -10.46,2.11 -8.37,4.2 -6.26,-6.26 -10.46,2.11 -8.37,4.2 -6.26,-6.26 -10.46,2.12 -8.38,4.2 -6.25,-6.26 -10.46,2.12 -8.38,4.21 -6.27,-6.26 -10.46,2.12 -8.37,4.21 -6.26,-6.26 -10.46,2.12 -8.37,4.2 -6.25,-6.26 -10.46,2.12 -8.38,4.21 -6.26,-6.26 -10.46,2.12 -8.39,4.21 -6.27,-6.25 -10.46,2.12 -8.37,4.2 -6.25,-6.27 -10.47,2.13 -8.38,4.21 -6.26,-6.25 -10.47,2.11 -8.38,4.21 -6.26,-6.26 -10.46,2.12 -8.38,4.2 -6.26,-6.26 -10.47,2.12 -8.39,4.21 -6.26,-6.26 -10.47,2.12 -8.38,4.21 -6.26,-6.26 -10.47,2.12 -8.38,4.21 -6.26,-6.25 -10.47,2.12 -8.39,4.2 -6.26,-6.27 -10.47,2.13 -8.38,4.21 -6.26,-6.26 -10.47,2.12 -8.38,4.22 -6.26,-6.25 -10.47,2.12 -8.38,4.2 -6.26,-6.26 -10.47,2.13 -8.39,4.21 -6.26,-6.26 -10.47,2.12 -8.38,4.21 -6.26,-6.26 -10.47,2.12 -8.38,4.21 -6.26,-6.26 -10.47,2.13 -8.38,4.21 -6.26,-6.26 -10.47,2.13 -8.39,4.22 -6.26,-6.26 -10.47,2.13 -8.39,4.22 -6.26,-6.25 -10.47,2.12 -8.38,4.21 -6.26,-6.26 -10.47,2.12 -8.38,4.21 -6.26,-6.27 -10.47,2.13 -8.39,4.22 -6.26,-6.25 -10.47,2.12 -8.38,4.21 -6.26,-6.26 -10.47,2.13 -8.39,4.21 -6.25,-6.26 -10.49,2.13 -8.39,4.22 -6.27,-6.26 -10.47,2.13 -8.39,4.22 -6.26,-6.26 -10.47,2.13 -8.39,4.22 -6.25,-6.26 -10.48,2.13 -8.39,4.22 -6.26,-6.26 -10.48,2.13 -8.39,4.22 -6.27,-6.26 -10.49,2.13 -8.41,4.23 -6.26,-6.25 -10.49,2.15 -8.41,4.23 -6.27,-6.26 -10.49,2.15 -8.39,4.24 -6.25,-6.25 -10.49,2.14 -8.41,4.23 -6.26,-6.26 -10.49,2.14 -8.41,4.23 -6.26,-6.27 -10.49,2.15 -8.4,4.24 -6.26,-6.25 -10.5,2.14 -8.41,4.23 -6.26,-6.26 -10.5,2.15 -8.41,4.23 -6.26,-6.26 -10.49,2.15 -8.41,4.23 -6.26,-6.26 -10.49,2.15 -8.41,4.24 -6.26,-6.26 -10.5,2.15 -8.4,4.24 -6.26,-6.25 -10.51,2.14 -8.44,4.24 -6.27,-6.26 -10.51,2.17 -8.42,4.25 -6.26,-6.25 -10.51,2.16 -8.42,4.24 -6.26,-6.26 -10.5,2.15 -8.42,4.25 -6.26,-6.27 -10.5,2.17 -8.42,4.25 -6.26,-6.25 -10.5,2.16 -8.42,4.24 -6.25,-6.26 -10.5,2.16 -8.41,4.24 -6.26,-6.27 -10.5,2.16 -8.41,4.24 -6.26,-6.26 -10.51,2.15 -8.43,4.25 -6.26,-6.25 -10.51,2.16 -8.42,4.25 -6.26,-6.26 -10.51,2.16 -8.42,4.25 -6.26,-6.26 -10.5,2.16 -8.41,4.25 -6.26,-6.27 -10.51,2.16 -8.43,4.25 -6.26,-6.24 -10.51,2.16 -8.42,4.25 -6.26,-6.27l-6.95 1.46 -19.17 -19.15 -74.1 76.9c-26.57,26.57 -48.55,48.55 -75.11,75.12 -34.71,34.69 -89.9,92.12 -149.91,150.55l-431.68 422.85c-18.4,16.78 -135.32,142.92 -155.18,154.52l-25.19 18.23c-0.95,0.93 -2.22,2.31 -3.16,3.27l-106.37 106.29c-6.77,6.71 -24.9,25.07 -23.66,33.32l158.27 -154.97c-40.97,40.13 -81.84,81.17 -122.13,122.01 -33.43,33.9 -109.4,80.71 -122.7,122.86zm2103.2 -432.65c-14.27,-32.46 118.38,-149.28 134.59,-160.59 39.14,-27.3 45.61,-3.12 50.38,33.01 7.03,53.18 31.04,133.65 -20.27,153.69 -24.42,9.55 -157.16,-8.96 -164.7,-26.11z"/>
   <path class="fil1" d="M3382.57 211.45l0.23 -210.95 -6.44 -0.13 -1605.53 0.46c-12.13,8.91 -17.65,6.13 -32.79,10.3 -31.61,8.7 -120.4,114 -152.81,139.27l-454.38 452.74c-14.21,14.5 -23.22,33.34 -48.55,32.13 39.49,0 5.18,-2.17 19.91,11.82 65.51,18.27 141.85,113.39 191.21,162.75 27.81,27.81 170.96,160.42 176.02,183.9 11.21,-2.87 9.13,-4.96 6.26,6.25 11.21,-2.86 9.12,-4.95 6.26,6.26 11.21,-2.86 9.12,-4.94 6.26,6.26 11.21,-2.87 9.13,-4.95 6.26,6.26 11.21,-2.86 9.12,-4.95 6.26,6.26 11.21,-2.86 9.12,-4.95 6.26,6.26 11.21,-2.87 9.12,-4.95 6.26,6.26 11.21,-2.87 9.12,-4.95 6.26,6.26 11.2,-2.86 9.12,-4.95 6.26,6.26 22.07,10.07 106.04,101.07 124.71,119.31 12.46,12.17 21.25,19.7 30.78,28.74 69.14,65.62 300.06,310.04 342.13,337.04l6.26 6.26 6.25 6.26 6.27 6.26 6.2 6.32 6.26 6.25 6.17 6.35 6.16 6.36 6.32 6.19 6.26 6.27 6.2 6.32 6.26 6.25 6.26 6.26 6.26 6.26 6.26 6.26 6.25 6.26c0.02,10.64 -2.89,9.65 6.52,6.01l6.26 6.26 6.09 6.42 6.43 6.1 6.09 6.42 6.26 6.26 6.42 6.1 6.27 6.25 6.09 6.43 6.26 6.26 6.26 6.26 6.26 6.25 6.26 6.27 6.46 6 6.52 6.05 6.25 6.27 6.27 6.25 6.26 6.26 6.25 6.26 6.26 6.26 6.26 6.26 6.26 6.25 6.48 6.05 6.26 6.26 6.23 6.29 6.25 6.26 6.27 6.25 6.26 6.27 6.25 6.26 6.26 6.25 6.19 6.34 6.26 6.25 6.26 6.26 6.26 6.27 6.26 6.25 6.26 6.26 6.18 6.34 6.26 6.26 6.26 6.26 6.26 6.26 6.52 5.51 7.01 6 6.26 6.25 6.26 6.26 6.26 6.26 6.25 6.26 6.35 6.16 6.27 6.27 6.26 6.26 6.25 6.25 6.26 6.26 6.27 6.27 6.25 6.25 6.26 6.26 6.26 6.26 6.26 6.26 6.26 6.26 6.26 6.26 6.47 6.05 6.26 6.26 6.2 6.31 6.47 5.31 7.21 6.05c-3.09,11.27 -5,9 6.4,6.12l-2.1 8.51 8.4 -2.29 -2.1 8.37 8.36 -2.11 -1.84 8.55 8.09 -2.28 -1.65 7.9 7.91 -1.64 -1.65 7.9 8.14 -1.93 -1.47 7.68 8.11 -1.75 -1.56 7.97 7.86 -1.76 -1.39 7.66 7.66 -1.39 -1.39 7.65 7.65 -1.39 -1.58 7.79 7.43 -1.07 -1.72 7.92 7.46 -0.45 -2.57 7.08 7.09 0.65 -2.27 7.32 7.37 -1.5 -5.1 -5.82 -4.52 -7.73 -5.74 -7.47 -5.85 -6.72 -6.26 -6.26 -6.27 -6.27 -6.3 -6.21 -6.64 -5.93 -6.49 -5.97 -6.26 -6.26 -6.25 -6.27 -6.26 -6.26 -6.3 -6.22 -6.4 -6.12c0.02,-8.75 2.04,-6.33 -7.21,-6.05l-6.47 -5.31 -6.2 -6.31 -6.26 -6.26 -6.47 -6.05 -6.26 -6.26 -6.26 -6.26 -6.26 -6.26 -6.26 -6.26 -6.26 -6.26 -6.25 -6.25 -6.27 -6.27 -6.26 -6.26 -6.25 -6.25 -6.26 -6.26 -6.27 -6.27 -6.35 -6.16 -6.25 -6.26 -6.26 -6.26 -6.26 -6.26 -6.26 -6.25 -7.01 -6 -6.52 -5.51 -6.26 -6.26 -6.26 -6.26 -6.26 -6.26 -6.18 -6.34 -6.26 -6.26 -6.26 -6.25 -6.26 -6.27 -6.26 -6.26 -6.26 -6.25 -6.19 -6.34 -6.26 -6.25 -6.25 -6.26 -6.26 -6.27 -6.27 -6.25 -6.25 -6.26 -6.23 -6.29 -6.26 -6.26 -6.48 -6.05 -6.26 -6.25 -6.26 -6.26 -6.26 -6.26 -6.25 -6.26 -6.26 -6.26 -6.27 -6.25 -6.25 -6.27 -6.52 -6.05 -6.46 -6 -6.26 -6.27 -6.26 -6.25 -6.26 -6.26 -6.26 -6.26 -6.09 -6.43 -6.27 -6.25 -6.42 -6.1 -6.26 -6.26 -6.09 -6.42 -6.43 -6.1 -6.09 -6.42 -6.26 -6.26 -6.52 -6.01 -6.25 -6.26 -6.26 -6.26 -6.26 -6.26 -6.26 -6.26 -6.26 -6.25 -6.2 -6.32 -6.26 -6.27 -6.32 -6.19 -6.16 -6.36 -6.17 -6.35 -6.26 -6.25c0.24,-8.67 2.37,-6.63 -6.2,-6.32 0.31,-8.66 2.39,-6.57 -6.27,-6.26 0.31,-8.66 2.4,-6.57 -6.25,-6.26 0.3,-8.65 2.39,-6.57 -6.26,-6.26l-4.74 -7.52c-0.53,-0.76 -1.86,-2.75 -2.54,-3.7 -0.68,-0.96 -1.93,-2.58 -2.72,-3.66l5.3 -5.52c14.09,11.56 1.3,4.79 21.46,16.16l580.23 -583.91c8.64,-8.1 13.76,-12.99 21.81,-21.56l14.54 -16.48c0.87,-0.99 2.07,-2.4 2.95,-3.38l157.77 -153.9c1.28,-0.86 3.36,-2.16 5.12,-3.13l-157.92 161.18c218.17,-218.53 396.11,-408.65 591.1,-585.43 13.25,-12 32.13,-30.12 43.73,-43.22 3.11,-3.52 4.32,-5.38 5.92,-8.12 0.35,-0.6 0.99,-2.27 1.31,-2.89l20.07 -30.91c0.55,-0.79 1.89,-2.46 2.52,-3.87 11.04,15.26 4.18,3.75 -0.14,18.63 27.86,-27.77 8.66,-57.69 53.4,-42.48z"/>
   <path class="fil1" d="M1571.32 2025.56l1.16 -8.18c-10.29,1.93 -8.2,4.03 -6.26,-6.26 -10.31,2.01 -8.21,4.08 -6.27,-6.25 -10.41,2.06 -8.32,4.15 -6.26,-6.26 -9.9,1.55 -7.81,3.63 -6.26,-6.27 -9.89,1.56 -7.81,3.64 -6.25,-6.25 -9.9,1.55 -7.82,3.64 -6.27,-6.26 -9.92,1.54 -7.85,3.65 -6.27,-6.24 -9.93,1.57 -7.85,3.67 -6.27,-6.26 -9.93,1.59 -7.85,3.68 -6.26,-6.26 -9.93,1.59 -7.84,3.68 -6.26,-6.25 -9.93,1.58 -7.84,3.67 -6.26,-6.26 -9.94,1.58 -7.86,3.67 -6.26,-6.26 -9.94,1.6 -7.85,3.68 -6.26,-6.25 -9.94,1.59 -7.85,3.67 -6.27,-6.26 -9.93,1.59 -7.85,3.67 -6.25,-6.27 -9.96,1.59 -7.9,3.7 -6.28,-6.24 -9.93,1.61 -7.88,3.71 -6.26,-6.18 -10.12,1.69 -8.06,3.83 -6.33,-6.26 -10.07,1.72 -7.98,3.81 -6.27,-6.26 -10.06,1.72 -7.97,3.81 -6.25,-6.25 -10.07,1.71 -7.98,3.8 -6.26,-6.27 -10.06,1.72 -7.98,3.81 -6.26,-6.26 -10.08,1.72 -8,3.82 -6.27,-6.24 -10.06,1.73 -7.97,3.8 -6.25,-6.27 -10.07,1.71 -7.98,3.8 -6.26,-6.26 -10.07,1.72 -7.99,3.81 -6.26,-6.26 -10.1,1.72 -8.05,3.84 -6.29,-6.23 -10.1,1.76 -8.02,3.84 -6.26,-6.26 -10.11,1.76 -8.02,3.85 -6.26,-6.26 -10.1,1.76 -8.02,3.85 -6.26,-6.26 -10.1,1.76 -8.02,3.84 -6.26,-6.25 -10.1,1.75 -8.01,3.84 -6.26,-6.27 -10.1,1.76 -8.01,3.85 -6.25,-6.26 -10.13,1.76 -8.07,3.87 -6.28,-6.24 -10.13,1.78 -8.04,3.87 -6.26,-6.26 -10.13,1.78 -8.04,3.87 -6.26,-6.25 -10.13,1.77 -8.06,3.87 -6.27,-6.26 -10.13,1.79 -8.05,3.88 -6.26,-6.26 -10.14,1.79 -8.06,3.88 -6.26,-6.25 -10.15,1.8 -8.06,3.88 -6.26,-6.26 -10.16,1.8 -8.08,3.9 -6.27,-6.25 -10.16,1.81 -8.07,3.89 -6.26,-6.26 -10.15,1.81 -8.07,3.9 -6.26,-6.26 -10.15,1.81 -8.07,3.9 -6.26,-6.26 -10.16,1.81 -8.09,3.91 -6.27,-6.25 -10.16,1.82 -8.08,3.91 -6.25,-6.26 -10.18,1.83 -8.08,3.91 -6.26,-6.26 -10.17,1.82 -8.08,3.91 -6.26,-6.26 -10.16,1.81 -8.08,3.91 -6.26,-6.26 -10.17,1.81 -8.1,3.91 -6.27,-6.25 -10.17,1.83 -8.09,3.92 -6.25,-6.26 -10.18,1.83 -8.1,3.91 -6.27,-6.26 -10.19,1.83 -8.13,3.93 -6.27,-6.25 -10.2,1.86 -8.11,3.94 -6.26,-6.25 -10.2,1.85 -8.11,3.94 -6.26,-6.26 -12.12,9.77 -8.01,8.65 -6.3,-6.22 -10.65,10.59 -6.26,8.2 -6.26,-6.26 -10.65,10.6 -6.25,8.2 -6.25,-6.26 -10.66,10.6 -6.27,8.2 -6.27,-6.26 -10.65,10.63 -6.24,8.19 -6.24,-6.28 -10.21,1.88 -8.12,3.96 -6.25,-6.26 -10.24,1.87 -8.18,3.97 -6.28,-6.24 -10.24,1.89 -8.15,3.97 -6.26,-6.27 -10.24,1.9 -8.15,3.98 -6.25,-6.26 -10.29,1.89 -8.23,4.02 -6.29,-6.22 -10.26,1.94 -8.14,3.99 -6.24,-6.29 -10.25,1.91 -8.17,4 -6.27,-6.25 -10.25,1.9 -8.18,3.99 -6.26,-6.25 -10.26,1.91 -8.17,3.99 -6.26,-6.27 -10.26,1.92 -8.18,4.01 -6.26,-6.25 -10.25,1.91 -8.17,4 -6.26,-6.26l-60.18 -58.69c-0.4,-2.07 -1.72,-2.52 -2.45,-3.86 -10.35,1.98 -8.28,4.09 -6.28,-6.24 -10.34,1.98 -8.25,4.08 -6.26,-6.27 -10.34,2 -8.25,4.09 -6.26,-6.26 -10.35,2 -8.27,4.09 -6.27,-6.24 -10.35,2 -8.26,4.08 -6.25,-6.27 -10.35,2.01 -8.26,4.09 -6.26,-6.26 -10.35,2.01 -8.26,4.09 -6.26,-6.26 -10.36,2 -8.29,4.1 -6.27,-6.25 -10.36,2.01 -8.27,4.1 -6.26,-6.26 -10.36,2.01 -8.27,4.1 -6.25,-6.25 -10.38,2.01 -8.3,4.1 -6.27,-6.26 -10.37,2.03 -8.28,4.11 -6.26,-6.26 -10.37,2.02 -8.29,4.11 -6.26,-6.26 -10.36,2.02 -8.28,4.11 -6.26,-6.26 -10.37,2.02 -8.28,4.11 -6.26,-6.26 -12.23,9.75 -8.13,8.69 -6.28,-6.23 -10.39,2.06 -8.29,4.13 -6.25,-6.27 -10.39,2.04 -8.31,4.13 -6.27,-6.26 -10.38,2.05 -8.3,4.13 -6.25,-6.26 -10.42,2.04 -8.37,4.16 -6.28,-6.23 -10.43,2.07 -8.34,4.16 -6.27,-6.26 -10.41,2.08 -8.31,4.16 -6.25,-6.27 -10.41,2.06 -8.33,4.16 -6.26,-6.26 -10.43,2.06 -8.36,4.17 -6.27,-6.24 -10.44,2.08 -8.35,4.18 -6.26,-6.26 -10.43,2.09 -8.34,4.17 -6.26,-6.26 -10.43,2.08 -8.34,4.17 -6.26,-6.26 -10.43,2.08 -8.35,4.17 -6.26,-6.26 -10.43,2.09 -8.34,4.17 -6.26,-6.26 -10.43,2.08 -8.34,4.17 -6.26,-6.26 -10.44,2.07 -8.39,4.19 -6.27,-6.24 -10.46,2.1 -8.37,4.19 -6.27,-6.26 -10.46,2.1 -8.38,4.2 -6.26,-6.25 -10.47,2.11 -8.37,4.2 -6.26,-6.26 -10.46,2.12 -8.38,4.2 -6.26,-6.26 -10.46,2.12 -8.38,4.2 -6.26,-6.26 -10.47,2.11 -8.39,4.21 -6.27,-6.25 -10.46,2.12 -8.38,4.21 -6.25,-6.27 -10.48,2.13 -8.39,4.22 -6.26,-6.25 -10.47,2.12 -8.39,4.21 -6.26,-6.26 -10.49,2.12 -8.43,4.23 -6.28,-6.24 -10.49,2.14 -8.41,4.23 -6.25,-6.26 -10.51,2.14 -8.43,4.24 -6.27,-6.26 -10.49,2.17 -8.4,4.24 -6.26,-6.26 -10.52,2.14 -8.46,4.25 -6.27,-6.24 -10.5,2.18 -8.38,4.24 -6.24,-6.28 -10.52,2.14 -8.47,4.25 -6.29,-6.24 -10.51,2.18 -8.42,4.26 -6.25,-6.27 -10.52,2.17 -8.45,4.27 -6.26,-6.25 -10.52,2.18 -8.44,4.27 -6.27,-6.25 -10.53,2.17 -8.46,4.27 -6.27,-6.25 -10.52,2.19 -8.42,4.26 -6.24,-6.28 -10.54,2.18 -8.47,4.28 -6.27,-6.24 -10.49,2.18 -8.45,4.29 -6.26,-6.17 -10.61,2.25 -8.81,4.55 -6.38,-5.89 -11.55,2.73 -9.7,5.17 -6.69,-6.17 -11.28,2.93 -9.19,5.01 -6.26,-6.26 -11.27,2.93 -9.19,5.02 -6.26,-6.25 -11.34,3 -8.9,4.85 -6.17,-6.69 -10.55,2.44 -8.14,4.2 -5.9,-6.58 -10.55,2.07 -6.9,3.8 -9.2,-7.71 -14.94,-7.56 -3.56,-0.08 -14.87,-12.58 -11.5,-7.46 -16.88,10.47 -8.02,-15.74l-9.32 -31.19c2.96,22.96 -138.99,150.86 -155.56,167.43 -47.3,47.3 -113.92,123.16 -164.28,161.67 -28.03,21.43 -60.46,53.32 -82.68,79.31 -15.94,18.63 -19.52,25.8 -37.81,43.87 -46.51,45.95 -168.15,155.08 -198.48,196.29 -0.71,0.97 -2.6,5.36 -3.13,4.3 -0.53,-1.09 -1.99,3.04 -3.17,4.43 9.6,428.94 -62.03,814.17 195.64,1177.9 38.32,54.09 168.13,204.84 222.79,234.27l7.13 4.05c0.67,9.85 -1.47,7.13 9.05,4.03 -0.93,10.83 -2.89,6.77 9.54,9.33 0,-14.95 4.09,-12.96 -9.54,-9.33l-9.05 -4.03 -7.13 -4.05c13.3,-42.15 89.27,-88.96 122.7,-122.86 40.29,-40.84 81.16,-81.88 122.13,-122.01l-158.27 154.97c-1.24,-8.25 16.89,-26.61 23.66,-33.32l106.37 -106.29c0.94,-0.96 2.21,-2.34 3.16,-3.27l25.19 -18.23c19.86,-11.6 136.78,-137.74 155.18,-154.52l431.68 -422.85c60.01,-58.43 115.2,-115.86 149.91,-150.55 26.56,-26.57 48.54,-48.55 75.11,-75.12l74.1 -76.9 19.17 19.15z"/>
   <path class="fil2" d="M2.8 1725.19c1.18,-1.39 2.64,-5.52 3.17,-4.43 0.53,1.06 2.42,-3.33 3.13,-4.3 30.33,-41.21 151.97,-150.34 198.48,-196.29 18.29,-18.07 21.87,-25.24 37.81,-43.87 22.22,-25.99 54.65,-57.88 82.68,-79.31 50.36,-38.51 116.98,-114.37 164.28,-161.67 16.57,-16.57 158.52,-144.47 155.56,-167.43l9.32 31.19c-8.86,26.21 -3.48,8.28 8.02,15.74l-8.02 -15.74c6.96,-46.58 2.41,-61.48 24.85,-99.58 12.89,-21.89 38.16,-51.29 51.66,-67.3 31.54,-37.39 80.86,-86.27 116.37,-118.51 38.02,-36.24 71.28,-65.04 108.54,-101.02 38.94,-37.62 68.03,-67.53 143.55,-65.57 -14.73,-13.99 19.58,-11.82 -19.91,-11.82 25.33,1.21 34.34,-17.63 48.55,-32.13l454.38 -452.74c32.41,-25.27 121.2,-130.57 152.81,-139.27 15.14,-4.17 20.66,-1.39 32.79,-10.3 -146.74,-1.79 -294.43,-0.11 -441.27,-0.11 -317.04,0 -455.07,-12.57 -743.61,132.61 -55.43,27.89 -87.41,54.96 -133.32,85.66 -39.03,26.09 -85.86,66.14 -116.88,96.07 -147.9,142.76 -261.67,347.23 -308.59,561.09 -36.61,166.89 -26.26,653.08 -24.35,849.03z"/>
   <path class="fil3" d="M2518.69 2035.26c-3.01,11.24 -4.98,9.08 6.3,6.08 -3.03,11.83 -5.24,9.72 6.52,6.44 -2.79,10.41 -4.32,7.93 6.44,5.62 -2.41,10.76 -4.49,8.68 6.26,6.26 -2.51,10.7 -4.23,8.26 6.67,5.75 -2.49,11.06 -4.53,8.85 6.55,6.22 -2.45,10.38 -4.18,8 6.47,5.9 -2.16,10.51 -4.25,8.42 6.27,6.26 -2.15,10.41 -4.3,8.39 6.07,6.4 -2.3,10.82 -4.82,9.12 5.71,6.85 -2.06,9.51 -4.35,7.88 4.89,6.63 -3.14,11.55 -6.31,10.21 4.82,7.97 -4.05,14.21 -5.9,9.77 9.95,9.77l-2.58 -11.27 -7.37 1.5 2.27 -7.32 -7.09 -0.65 2.57 -7.08 -7.46 0.45 1.72 -7.92 -7.43 1.07 1.58 -7.79 -7.65 1.39 1.39 -7.65 -7.66 1.39 1.39 -7.66 -7.86 1.76 1.56 -7.97 -8.11 1.75 1.47 -7.68 -8.14 1.93 1.65 -7.9 -7.91 1.64 1.65 -7.9 -8.09 2.28 1.84 -8.55 -8.36 2.11 2.1 -8.37 -8.4 2.29 2.1 -8.51c-11.4,2.88 -9.49,5.15 -6.4,-6.12l-7.21 -6.05 -6.47 -5.31 -6.2 -6.31 -6.26 -6.26 -6.47 -6.05 -6.26 -6.26 -6.26 -6.26 -6.26 -6.26 -6.26 -6.26 -6.26 -6.26 -6.25 -6.25 -6.27 -6.27 -6.26 -6.26 -6.25 -6.25 -6.26 -6.26 -6.27 -6.27 -6.35 -6.16 -6.25 -6.26 -6.26 -6.26 -6.26 -6.26 -6.26 -6.25 -7.01 -6 -6.52 -5.51 -6.26 -6.26 -6.26 -6.26 -6.26 -6.26 -6.18 -6.34 -6.26 -6.26 -6.26 -6.25 -6.26 -6.27 -6.26 -6.26 -6.26 -6.25 -6.19 -6.34 -6.26 -6.25 -6.25 -6.26 -6.26 -6.27 -6.27 -6.25 -6.25 -6.26 -6.23 -6.29 -6.26 -6.26 -6.48 -6.05 -6.26 -6.25 -6.26 -6.26 -6.26 -6.26 -6.25 -6.26 -6.26 -6.26 -6.27 -6.25 -6.25 -6.27 -6.52 -6.05 -6.46 -6 -6.26 -6.27 -6.26 -6.25 -6.26 -6.26 -6.26 -6.26 -6.09 -6.43 -6.27 -6.25 -6.42 -6.1 -6.26 -6.26 -6.09 -6.42 -6.43 -6.1 -6.09 -6.42 -6.26 -6.26c-9.41,3.64 -6.5,4.63 -6.52,-6.01l-6.25 -6.26 -6.26 -6.26 -6.26 -6.26 -6.26 -6.26 -6.26 -6.25 -6.2 -6.32 -6.26 -6.27 -6.32 -6.19 -6.16 -6.36 -6.17 -6.35 -6.26 -6.25 -6.2 -6.32 -6.27 -6.26 -6.25 -6.26 -6.26 -6.26c-42.07,-27 -272.99,-271.42 -342.13,-337.04 -9.53,-9.04 -18.32,-16.57 -30.78,-28.74 -18.67,-18.24 -102.64,-109.24 -124.71,-119.31 2.86,-11.21 4.94,-9.12 -6.26,-6.26 2.86,-11.21 4.95,-9.13 -6.26,-6.26 2.86,-11.21 4.95,-9.13 -6.26,-6.26 2.86,-11.21 4.95,-9.12 -6.26,-6.26 2.86,-11.21 4.95,-9.12 -6.26,-6.26 2.87,-11.21 4.95,-9.13 -6.26,-6.26 2.86,-11.2 4.95,-9.12 -6.26,-6.26 2.86,-11.21 4.95,-9.12 -6.26,-6.26 2.87,-11.21 4.95,-9.12 -6.26,-6.25 -5.06,-23.48 -148.21,-156.09 -176.02,-183.9 -49.36,-49.36 -125.7,-144.48 -191.21,-162.75 -75.52,-1.96 -104.61,27.95 -143.55,65.57 -37.26,35.98 -70.52,64.78 -108.54,101.02 -3.63,44.73 9.34,50.11 30.11,71.26l342.92 338.84c26.24,-21.94 210.15,-227.93 242.24,-230.47 0.73,-0.06 2.75,0.02 4.05,0.43 -2.86,11.2 -4.95,9.12 6.26,6.25 -2.86,11.21 -4.95,9.12 6.26,6.26 -2.86,11.21 -4.94,9.12 6.26,6.26 -2.86,11.21 -4.95,9.13 6.26,6.26 -2.86,11.21 -4.95,9.12 6.26,6.26 -2.86,11.21 -4.95,9.12 6.26,6.26 -2.86,11.21 -4.95,9.12 6.26,6.26 -2.87,11.2 -4.95,9.12 6.26,6.26 -2.86,11.21 -4.95,9.12 6.26,6.26l-460.62 460.62c1.97,-10.33 4.05,-8.24 -6.28,-6.24 1.99,-10.35 4.08,-8.26 -6.26,-6.27 2,-10.34 4.08,-8.25 -6.26,-6.26 2,-10.34 4.08,-8.25 -6.27,-6.24 2.01,-10.35 4.1,-8.27 -6.25,-6.27 2,-10.35 4.09,-8.26 -6.26,-6.26 2,-10.35 4.08,-8.26 -6.26,-6.26 2.01,-10.35 4.08,-8.26 -6.27,-6.25 2.01,-10.35 4.1,-8.27 -6.26,-6.26 2.02,-10.36 4.1,-8.27 -6.25,-6.25 2.01,-10.37 4.09,-8.28 -6.27,-6.26 2.02,-10.36 4.11,-8.28 -6.26,-6.26 2.02,-10.36 4.11,-8.28 -6.26,-6.26 2.02,-10.37 4.1,-8.28 -6.26,-6.26 2.02,-10.37 4.11,-8.28 -6.26,-6.26 2.02,-10.38 4.1,-8.29 -6.28,-6.23 2.05,-10.39 4.14,-8.31 -6.25,-6.27 2.04,-10.39 4.12,-8.3 -6.27,-6.26 2.05,-10.39 4.14,-8.3 -6.25,-6.26 2.04,-10.4 4.12,-8.3 -6.28,-6.23 2.07,-10.42 4.16,-8.34 -6.27,-6.26 2.08,-10.42 4.17,-8.34 -6.25,-6.27 2.07,-10.41 4.15,-8.32 -6.26,-6.26 2.07,-10.42 4.15,-8.32 -6.27,-6.24 2.08,-10.43 4.17,-8.35 -6.26,-6.26 2.08,-10.43 4.17,-8.35 -6.26,-6.26 2.09,-10.43 4.17,-8.34 -6.26,-6.26 2.09,-10.43 4.17,-8.34 -6.26,-6.26 2.08,-10.43 4.18,-8.35 -6.26,-6.26 2.09,-10.43 4.17,-8.34 -6.26,-6.26 2.09,-10.44 4.16,-8.34 -6.27,-6.24 2.1,-10.46 4.19,-8.36 -6.27,-6.26 2.12,-10.46 4.2,-8.37 -6.26,-6.25 2.12,-10.46 4.2,-8.38 -6.26,-6.26 2.11,-10.46 4.21,-8.38 -6.26,-6.26 2.12,-10.47 4.2,-8.37 -6.26,-6.26 2.12,-10.47 4.2,-8.38 -6.27,-6.25 2.13,-10.47 4.22,-8.39 -6.25,-6.27 2.12,-10.46 4.21,-8.38 -6.26,-6.25 2.12,-10.48 4.21,-8.38 -6.26,-6.26 2.13,-10.49 4.2,-8.39 -6.28,-6.24 2.15,-10.5 4.24,-8.41 -6.25,-6.26 2.14,-10.5 4.22,-8.41 -6.27,-6.26 2.16,-10.5 4.24,-8.41 -6.26,-6.26 2.15,-10.51 4.23,-8.41 -6.27,-6.24 2.17,-10.51 4.26,-8.43 -6.24,-6.28 2.15,-10.51 4.22,-8.41 -6.29,-6.24 2.18,-10.52 4.27,-8.43 -6.25,-6.27 2.17,-10.52 4.26,-8.42 -6.26,-6.25 2.18,-10.52 4.26,-8.43 -6.27,-6.25 2.18,-10.54 4.27,-8.45 -6.27,-6.25 2.2,-10.54 4.29,-8.45 -6.24,-6.28 2.18,-10.53 4.26,-8.43 -6.27,-6.24 2.19,-10.55 4.27,-8.48 -6.26,-6.17 2.21,-10.73 4.25,-8.68 -6.38,-5.89 2.38,-11.25 4.48,-9.07 -6.69,-6.17 2.92,-11.27 5.02,-9.19 -6.26,-6.26 2.93,-11.27 5.01,-9.18 -6.26,-6.25 2.9,-11.18 5.09,-9.08 -6.17,-6.69 2.78,-10.62 4.86,-8.53 -5.9,-6.58 2.64,-11.65 4.13,-7.71 -9.2,-7.71 2.3,11.51 -1.35,9.78 9.2,7.71 -2.24,10.78 -4.65,9.02 5.9,6.58 -2.73,11.54 -5.17,9.69 6.17,6.69 -2.93,11.27 -5.01,9.18 6.26,6.25 -2.93,11.27 -5.02,9.19 6.26,6.26 -3.01,11.34 -4.86,8.9 6.69,6.17 -2.43,10.44 -4.23,8.14 6.38,5.89 -2.19,10.46 -4.23,8.35 6.26,6.17 -2.2,10.52 -4.27,8.42 6.27,6.24 -2.18,10.54 -4.28,8.47 6.24,6.28 -2.19,10.52 -4.26,8.42 6.27,6.25 -2.17,10.52 -4.25,8.43 6.27,6.25 -2.19,10.52 -4.26,8.42 6.26,6.25 -2.17,10.53 -4.26,8.45 6.25,6.27 -2.18,10.49 -4.23,8.38 6.29,6.24 -2.14,10.52 -4.26,8.46 6.24,6.28 -2.19,10.49 -4.25,8.38 6.27,6.24 -2.14,10.5 -4.23,8.43 6.26,6.26 -2.16,10.5 -4.24,8.4 6.27,6.26 -2.16,10.49 -4.24,8.4 6.25,6.26 -2.15,10.47 -4.21,8.36 6.28,6.24 -2.13,10.47 -4.21,8.38 6.26,6.26 -2.13,10.47 -4.22,8.38 6.26,6.25 -2.13,10.48 -4.21,8.39 6.25,6.27 -2.12,10.46 -4.2,8.36 6.27,6.25 -2.12,10.46 -4.2,8.38 6.26,6.26 -2.12,10.46 -4.2,8.38 6.26,6.26 -2.11,10.46 -4.21,8.37 6.26,6.26 -2.12,10.45 -4.2,8.35 6.26,6.25 -2.1,10.45 -4.19,8.36 6.27,6.26 -2.12,10.43 -4.17,8.31 6.27,6.24 -2.08,10.43 -4.17,8.34 6.26,6.26 -2.08,10.43 -4.17,8.35 6.26,6.26 -2.09,10.43 -4.17,8.34 6.26,6.26 -2.08,10.43 -4.17,8.34 6.26,6.26 -2.08,10.43 -4.17,8.35 6.26,6.26 -2.09,10.44 -4.18,8.34 6.26,6.26 -2.09,10.41 -4.16,8.3 6.27,6.24 -2.07,10.42 -4.15,8.32 6.26,6.26 -2.06,10.43 -4.16,8.35 6.25,6.27 -2.07,10.42 -4.16,8.33 6.27,6.26 -2.09,10.39 -4.14,8.27 6.28,6.23 -2.05,10.39 -4.13,8.31 6.25,6.26 -2.04,10.39 -4.12,8.3 6.27,6.26 -2.04,10.4 -4.14,8.33 6.25,6.27 -1.85,14.92 -5.95,15.98 6.28,6.23 -2.02,10.37 -4.11,8.28 6.26,6.26 -2.02,10.37 -4.1,8.28 6.26,6.26 -2.03,10.37 -4.11,8.28 6.26,6.26 -2.02,10.37 -4.11,8.29 6.26,6.26 -2.03,10.36 -4.11,8.27 6.27,6.26 -2.02,10.35 -4.11,8.26 6.25,6.25 -2.01,10.36 -4.1,8.27 6.26,6.26 -2.02,10.35 -4.09,8.25 6.27,6.25 -2,10.35 -4.09,8.27 6.26,6.26 -2,10.35 -4.09,8.27 6.26,6.26 -2.01,10.35 -4.1,8.27 6.25,6.27 -2,10.33 -4.08,8.24 6.27,6.24 -1.99,10.35 -4.08,8.26 6.26,6.26 -1.99,10.35 -4.08,8.25 6.26,6.27 -2,10.33 -4.07,8.22 6.28,6.24 0.73,1.34 2.05,1.79 2.45,3.86l60.18 58.69c-1.91,10.26 -3.99,8.17 6.26,6.26 -1.92,10.26 -4,8.17 6.26,6.25 -1.91,10.26 -4,8.18 6.26,6.27 -1.92,10.24 -3.99,8.15 6.26,6.25 -1.9,10.25 -3.98,8.16 6.27,6.25 -1.9,10.28 -4.02,8.23 6.24,6.29 -1.94,10.24 -4,8.11 6.29,6.22 -1.9,10.24 -3.99,8.16 6.25,6.26 -1.89,10.24 -3.98,8.16 6.26,6.27 -1.9,10.21 -3.96,8.11 6.28,6.24 -1.87,10.22 -3.96,8.14 6.25,6.26 0,14.47 -4.41,16.91 6.24,6.28 0,14.46 -4.39,16.86 6.27,6.26 0,14.46 -4.4,16.86 6.25,6.26 0,14.46 -4.39,16.85 6.26,6.26 -1.71,14.87 -5.82,15.99 6.3,6.22 -1.85,10.2 -3.94,8.11 6.26,6.26 -1.85,10.19 -3.94,8.11 6.26,6.25 -1.86,10.18 -3.92,8.08 6.27,6.25 -1.83,10.17 -3.91,8.09 6.27,6.26 -1.84,10.18 -3.92,8.09 6.25,6.26 -1.83,10.16 -3.9,8.06 6.27,6.25 -1.82,10.17 -3.9,8.07 6.26,6.26 -1.82,10.17 -3.91,8.08 6.26,6.26 -1.82,10.17 -3.92,8.09 6.26,6.26 -1.83,10.17 -3.91,8.08 6.25,6.26 -1.82,10.16 -3.89,8.06 6.27,6.25 -1.81,10.16 -3.89,8.07 6.26,6.26 -1.81,10.16 -3.89,8.07 6.26,6.26 -1.81,10.15 -3.9,8.07 6.26,6.26 -1.81,10.15 -3.89,8.05 6.27,6.25 -1.8,10.14 -3.89,8.06 6.26,6.26 -1.8,10.13 -3.88,8.04 6.26,6.25 -1.79,10.14 -3.87,8.05 6.26,6.26 -1.79,10.13 -3.86,8.03 6.27,6.26 -1.78,10.12 -3.87,8.03 6.26,6.25 -1.78,10.13 -3.87,8.04 6.26,6.26 -1.79,10.11 -3.85,8 6.28,6.24 -1.76,10.11 -3.85,8.02 6.25,6.26 -1.75,10.11 -3.84,8.02 6.26,6.27 -1.76,10.09 -3.84,8.01 6.26,6.25 -1.76,10.11 -3.84,8.02 6.26,6.26 -1.76,10.11 -3.85,8.02 6.26,6.26 -1.76,10.1 -3.84,8.02 6.26,6.26 -1.76,10.07 -3.81,7.95 6.29,6.23 -1.73,10.07 -3.81,7.98 6.26,6.26 -1.72,10.06 -3.81,7.97 6.26,6.26 -1.72,10.07 -3.81,8 6.25,6.27 -1.73,10.06 -3.81,7.96 6.27,6.24 -1.72,10.07 -3.8,7.98 6.26,6.26 -1.72,10.07 -3.81,7.98 6.26,6.27 -1.72,10.06 -3.81,7.97 6.25,6.25 -1.71,10.07 -3.8,7.98 6.27,6.26 -1.73,10.09 -3.79,7.95 6.33,6.26 -1.62,9.89 -3.67,7.79 6.26,6.18 -1.62,9.94 -3.68,7.83 6.28,6.24 -1.6,9.94 -3.68,7.86 6.25,6.27 -1.58,9.93 -3.67,7.85 6.27,6.26 -1.59,9.93 -3.68,7.85 6.26,6.25 -1.6,9.93 -3.68,7.84 6.26,6.26 -1.58,9.93 -3.67,7.84 6.26,6.26 -1.58,9.93 -3.67,7.84 6.26,6.25 -1.59,9.94 -3.67,7.85 6.26,6.26 -1.58,9.93 -3.66,7.83 6.27,6.26 -1.58,9.89 -3.65,7.78 6.27,6.24 -1.55,9.9 -3.63,7.81 6.27,6.26 -1.56,9.89 -3.64,7.81 6.25,6.25 -1.55,9.9 -3.64,7.82 6.26,6.27 -2.06,10.41 -4.15,8.32 6.26,6.26 -1.94,10.33 -4.04,8.26 6.27,6.25 -1.94,10.29 -4.03,8.19 6.26,6.26l-1.16 8.18 6.95 -1.46c-2.16,10.52 -4.25,8.43 6.26,6.27 -2.17,10.49 -4.25,8.4 6.26,6.24 -2.15,10.52 -4.24,8.43 6.26,6.27 -2.16,10.51 -4.25,8.42 6.26,6.26 -2.16,10.51 -4.25,8.42 6.26,6.26 -2.17,10.5 -4.25,8.4 6.26,6.25 -2.15,10.5 -4.24,8.42 6.26,6.26 -2.15,10.51 -4.24,8.43 6.26,6.27 -2.17,10.5 -4.25,8.42 6.25,6.26 -2.16,10.5 -4.24,8.42 6.26,6.25 -2.16,10.52 -4.24,8.42 6.26,6.27 -2.16,10.5 -4.25,8.42 6.26,6.26 -2.16,10.5 -4.25,8.42 6.26,6.25 -2.17,10.5 -4.24,8.4 6.27,6.26 -2.14,10.49 -4.24,8.4 6.26,6.25 -2.15,10.5 -4.23,8.41 6.26,6.26 -2.15,10.49 -4.23,8.41 6.26,6.26 -2.15,10.49 -4.24,8.41 6.26,6.26 -2.15,10.49 -4.24,8.4 6.26,6.26 -2.14,10.49 -4.23,8.4 6.26,6.25 -2.15,10.5 -4.23,8.41 6.26,6.27 -2.15,10.49 -4.23,8.4 6.26,6.26 -2.14,10.49 -4.24,8.4 6.25,6.25 -2.14,10.49 -4.22,8.41 6.27,6.26 -2.15,10.48 -4.23,8.38 6.26,6.25 -2.12,10.48 -4.21,8.39 6.27,6.26 -2.13,10.48 -4.22,8.39 6.26,6.26 -2.14,10.48 -4.22,8.39 6.25,6.26 -2.13,10.48 -4.21,8.39 6.26,6.26 -2.12,10.48 -4.22,8.39 6.27,6.26 -2.14,10.47 -4.22,8.39 6.25,6.26 -2.12,10.47 -4.21,8.38 6.26,6.26 -2.13,10.47 -4.21,8.38 6.26,6.25 -2.12,10.48 -4.21,8.39 6.26,6.27 -2.12,10.47 -4.21,8.38 6.26,6.26 -2.13,10.47 -4.21,8.38 6.26,6.25 -2.13,10.48 -4.21,8.39 6.26,6.26 -2.12,10.47 -4.21,8.39 6.26,6.26 -2.12,10.47 -4.21,8.38 6.26,6.26 -2.12,10.47 -4.21,8.38 6.26,6.26 -2.13,10.47 -4.21,8.39 6.26,6.26 -2.12,10.46 -4.21,8.38 6.26,6.26 -2.12,10.47 -4.21,8.37 6.26,6.25 -2.12,10.47 -4.21,8.39 6.26,6.26 -2.13,10.47 -4.21,8.39 6.26,6.27 -2.12,10.46 -4.21,8.37 6.26,6.25 -2.12,10.47 -4.21,8.38 6.26,6.26 -2.13,10.47 -4.21,8.38 6.26,6.26 -2.12,10.46 -4.2,8.38 6.26,6.26 -2.12,10.47 -4.21,8.37 6.26,6.26 -2.12,10.46 -4.21,8.38 6.26,6.25 -2.12,10.47 -4.21,8.39 6.25,6.27 -2.12,10.46 -4.19,8.37 6.27,6.25 -2.12,10.47 -4.2,8.38 6.26,6.26 -2.12,10.46 -4.21,8.38 6.25,6.26 -2.11,10.47 -4.2,8.38 6.26,6.26 -2.11,10.47 -4.19,8.38 6.27,6.26 -2.13,10.46 -4.21,8.38 6.25,6.26 -2.11,10.46 -4.2,8.37 6.26,6.26 -2.11,10.46 -4.2,8.37 6.26,6.26 -2.11,10.46 -4.19,8.37 6.27,6.25 -2.12,10.46 -4.21,8.38 6.25,6.26 -2.11,10.47 -4.2,8.38 6.26,6.27 -2.11,10.46 -4.2,8.37 6.26,6.25 -2.11,10.46 -4.2,8.38 6.26,6.26 -2.12,10.46 -4.2,8.38 6.26,6.26 -2.11,10.47 -4.2,8.37 6.26,6.26 -2.11,10.46 -4.2,8.38 6.26,6.26 -2.12,10.46 -4.2,8.38 6.26,6.26 -2.12,10.46 -4.2,8.37 6.26,6.26 -2.12,10.44 -4.18,8.32 6.28,6.24 -2.09,10.43 -4.17,8.34 6.26,6.26 -2.09,10.43 -4.18,8.35 6.26,6.26 -2.09,10.43 -4.18,8.34 6.26,6.25 -2.09,10.44 -4.17,8.35 6.26,6.27 -2.09,10.43 -4.17,8.34 6.26,6.25 -2.09,10.43 -4.17,8.35 6.25,6.26 -2.07,10.43 -4.17,8.34 6.27,6.26 -2.09,10.44 -4.17,8.35 6.26,6.26 -2.1,10.43 -4.18,8.35 6.25,6.26 -2.08,10.43 -4.17,8.34 6.26,6.26 -2.08,10.43 -4.17,8.33 6.27,6.26 -2.09,10.42 -4.17,8.33 6.26,6.25 -2.07,10.43 -4.17,8.35 6.25,6.26 -2.08,10.43 -4.16,8.34 6.26,6.27 -2.1,10.5 -4.14,8.32 6.43,6.26 -1.9,10.15 -3.85,7.92 6.44,6.09 -1.64,9.88 -3.57,7.62 6.48,6.06 -1.36,9.54 -3.24,7.24 6.55,6.01l6.96 8.79c0,-11.9 3.49,-10.22 -6.96,-8.79 0.94,-9.66 3.07,-7.6 -6.55,-6.01 1.33,-9.98 3.45,-7.92 -6.48,-6.06 1.62,-10.24 3.74,-8.17 -6.44,-6.09 1.86,-10.45 3.98,-8.34 -6.43,-6.26 2.09,-10.43 4.17,-8.34 -6.26,-6.27 2.09,-10.42 4.17,-8.34 -6.25,-6.26 2.07,-10.42 4.16,-8.34 -6.26,-6.25 2.08,-10.43 4.16,-8.34 -6.27,-6.26 2.09,-10.43 4.17,-8.34 -6.26,-6.26 2.09,-10.43 4.18,-8.35 -6.25,-6.26 2.08,-10.42 4.17,-8.34 -6.26,-6.26 2.08,-10.43 4.16,-8.34 -6.27,-6.26 2.09,-10.43 4.18,-8.34 -6.25,-6.26 2.08,-10.43 4.17,-8.34 -6.26,-6.25 2.08,-10.43 4.17,-8.35 -6.26,-6.27 2.08,-10.43 4.17,-8.34 -6.26,-6.25 2.09,-10.44 4.17,-8.35 -6.26,-6.26 2.08,-10.43 4.17,-8.35 -6.26,-6.26 2.09,-10.45 4.17,-8.35 -6.28,-6.24 2.12,-10.46 4.2,-8.37 -6.26,-6.26 2.11,-10.46 4.2,-8.37 -6.26,-6.26 2.11,-10.46 4.2,-8.38 -6.26,-6.26 2.12,-10.46 4.2,-8.37 -6.26,-6.26 2.12,-10.46 4.2,-8.37 -6.26,-6.26 2.11,-10.46 4.21,-8.37 -6.26,-6.26 2.12,-10.46 4.2,-8.37 -6.26,-6.25 2.12,-10.46 4.2,-8.38 -6.26,-6.27 2.12,-10.46 4.21,-8.37 -6.25,-6.26 2.11,-10.46 4.2,-8.37 -6.27,-6.25 2.12,-10.46 4.2,-8.38 -6.26,-6.26 2.12,-10.46 4.21,-8.38 -6.26,-6.26 2.12,-10.47 4.21,-8.37 -6.25,-6.26 2.11,-10.46 4.2,-8.38 -6.27,-6.26 2.13,-10.46 4.21,-8.38 -6.26,-6.26 2.12,-10.46 4.21,-8.37 -6.25,-6.26 2.11,-10.46 4.2,-8.37 -6.26,-6.26 2.12,-10.46 4.2,-8.38 -6.27,-6.25 2.13,-10.47 4.21,-8.38 -6.25,-6.27 2.11,-10.46 4.21,-8.37 -6.26,-6.25 2.12,-10.47 4.21,-8.38 -6.26,-6.26 2.12,-10.47 4.2,-8.38 -6.26,-6.26 2.12,-10.47 4.21,-8.38 -6.26,-6.26 2.12,-10.47 4.21,-8.38 -6.26,-6.26 2.12,-10.47 4.21,-8.38 -6.26,-6.25 2.12,-10.47 4.21,-8.39 -6.26,-6.27 2.12,-10.46 4.21,-8.38 -6.26,-6.26 2.12,-10.47 4.21,-8.38 -6.26,-6.25 2.13,-10.48 4.21,-8.39 -6.26,-6.26 2.13,-10.47 4.21,-8.39 -6.26,-6.26 2.12,-10.47 4.21,-8.39 -6.26,-6.26 2.13,-10.48 4.21,-8.38 -6.26,-6.26 2.13,-10.47 4.21,-8.39 -6.26,-6.26 2.13,-10.47 4.21,-8.39 -6.26,-6.26 2.13,-10.47 4.22,-8.38 -6.26,-6.25 2.13,-10.48 4.21,-8.39 -6.26,-6.26 2.13,-10.48 4.22,-8.4 -6.26,-6.27 2.13,-10.47 4.22,-8.38 -6.26,-6.25 2.13,-10.48 4.22,-8.39 -6.26,-6.26 2.13,-10.48 4.22,-8.39 -6.25,-6.26 2.13,-10.48 4.21,-8.39 -6.27,-6.26 2.13,-10.47 4.22,-8.39 -6.26,-6.26 2.13,-10.48 4.22,-8.39 -6.25,-6.26 2.13,-10.48 4.21,-8.39 -6.26,-6.26 2.13,-10.47 4.21,-8.39 -6.27,-6.26 2.14,-10.48 4.22,-8.39 -6.26,-6.25 2.14,-10.49 4.23,-8.4 -6.27,-6.26 2.16,-10.49 4.24,-8.4 -6.25,-6.25 2.14,-10.49 4.23,-8.41 -6.26,-6.26 2.14,-10.49 4.23,-8.41 -6.26,-6.27 2.15,-10.49 4.23,-8.4 -6.26,-6.25 2.15,-10.5 4.23,-8.41 -6.26,-6.26 2.14,-10.49 4.24,-8.41 -6.26,-6.26 2.15,-10.49 4.23,-8.41 -6.26,-6.26 2.15,-10.5 4.23,-8.4 -6.26,-6.26 2.15,-10.49 4.24,-8.41 -6.26,-6.25 2.15,-10.51 4.24,-8.42 -6.27,-6.26 2.17,-10.5 4.25,-8.42 -6.26,-6.25 2.16,-10.52 4.25,-8.42 -6.26,-6.26 2.16,-10.51 4.25,-8.43 -6.26,-6.27 2.17,-10.5 4.25,-8.42 -6.26,-6.25 2.17,-10.51 4.25,-8.42 -6.25,-6.26 2.15,-10.51 4.25,-8.42 -6.26,-6.27 2.15,-10.5 4.25,-8.41 -6.26,-6.26 2.16,-10.5 4.24,-8.41 -6.26,-6.25 2.16,-10.51 4.24,-8.42 -6.26,-6.26 2.16,-10.51 4.25,-8.42 -6.26,-6.26 2.16,-10.5 4.25,-8.42 -6.26,-6.27 2.16,-10.5 4.24,-8.41 -6.26,-6.24 2.16,-10.52 4.25,-8.43 -6.26,-6.27 2.11,-10.25 4.37,-8.3 -5.79,-6.72 1.54,-9.89 3.62,-7.8 -6.26,-6.26 1.54,-9.89 3.63,-7.8 -6.27,-6.25 1.55,-9.9 3.63,-7.82 -6.26,-6.26 1.55,-9.9 3.64,-7.81 -6.26,-6.27 1.55,-9.89 3.64,-7.8 -6.25,-6.25 1.54,-9.9 3.63,-7.81 -6.27,-6.26 1.56,-9.91 3.63,-7.82 -6.27,-6.24 1.57,-9.93 3.66,-7.84 -6.27,-6.26 1.58,-9.92 3.67,-7.84 -6.26,-6.26 1.59,-9.93 3.67,-7.83 -6.26,-6.25 1.58,-9.93 3.67,-7.85 -6.26,-6.26 1.58,-9.93 3.67,-7.85 -6.26,-6.26 1.59,-9.93 3.67,-7.85 -6.26,-6.25 1.59,-9.95 3.68,-7.85 -6.27,-6.26 1.6,-9.94 3.69,-7.86 -6.25,-6.27 1.59,-9.94 3.67,-7.85 -6.28,-6.24 1.62,-9.96 3.7,-7.89 -6.26,-6.18 1.62,-10.07 3.72,-7.97 -6.33,-6.26 1.71,-10.06 3.8,-7.97 -6.27,-6.26 1.73,-10.06 3.81,-7.98 -6.25,-6.25 1.71,-10.07 3.8,-7.98 -6.26,-6.27 1.71,-10.06 3.81,-7.97 -6.26,-6.26 1.72,-10.07 3.8,-7.97 -6.27,-6.24 1.73,-10.07 3.82,-7.99 -6.25,-6.27 1.72,-10.07 3.8,-7.98 -6.26,-6.26 1.72,-10.07 3.81,-7.98 -6.26,-6.26 1.73,-10.08 3.8,-7.98 -6.29,-6.23 1.76,-10.11 3.85,-8.02 -6.26,-6.26 1.76,-10.1 3.84,-8.02 -6.26,-6.26 1.76,-10.1 3.85,-8.02 -6.26,-6.26 1.76,-10.11 3.85,-8.01 -6.26,-6.25 1.76,-10.11 3.85,-8.03 -6.26,-6.27 1.76,-10.1 3.85,-8.02 -6.25,-6.26 1.76,-10.11 3.83,-8.02 -6.28,-6.24 1.78,-10.13 3.87,-8.04 -6.26,-6.26 1.78,-10.13 3.86,-8.04 -6.26,-6.25 1.78,-10.14 3.87,-8.05 -6.27,-6.26 1.79,-10.13 3.88,-8.05 -6.26,-6.26 1.8,-10.14 3.88,-8.05 -6.26,-6.25 1.8,-10.15 3.88,-8.06 -6.26,-6.26 1.8,-10.15 3.88,-8.06 -6.27,-6.25 1.81,-10.16 3.9,-8.07 -6.26,-6.26 1.82,-10.16 3.9,-8.07 -6.26,-6.26 1.81,-10.16 3.9,-8.07 -6.26,-6.26 1.81,-10.16 3.9,-8.07 -6.27,-6.25 1.83,-10.17 3.91,-8.08 -6.25,-6.26 1.82,-10.17 3.91,-8.08 -6.26,-6.26 1.82,-10.17 3.91,-8.08 -6.26,-6.26 1.82,-10.17 3.9,-8.08 -6.26,-6.26 1.82,-10.17 3.9,-8.08 -6.27,-6.25 1.83,-10.18 3.92,-8.09 -6.25,-6.26 1.82,-10.18 3.91,-8.09 -6.27,-6.26 1.84,-10.19 3.91,-8.09 -6.27,-6.25 1.85,-10.19 3.94,-8.11 -6.26,-6.25 1.85,-10.2 3.94,-8.11 -6.26,-6.26 1.86,-10.22 3.93,-8.12 -6.3,-6.22 1.9,-10.25 3.99,-8.16 -6.26,-6.26 1.91,-10.25 3.99,-8.16 -6.25,-6.26 1.9,-10.25 3.98,-8.17 -6.27,-6.26 1.9,-10.24 4,-8.16 -6.24,-6.28 1.88,-10.22 3.97,-8.13 -6.25,-6.26 1.87,-10.23 3.96,-8.14 -6.28,-6.24 1.9,-10.24 3.98,-8.16 -6.26,-6.27 1.89,-10.23 3.99,-8.15 -6.25,-6.26 1.89,-10.25 3.97,-8.15 -6.29,-6.22 1.93,-10.27 4.02,-8.19 -6.24,-6.29 1.9,-10.24 3.99,-8.16 -6.27,-6.25 1.91,-10.26 4,-8.17 -6.26,-6.25 1.92,-10.27 4,-8.18 -6.26,-6.27 1.92,-10.26 4,-8.17 -6.26,-6.25 1.91,-10.26 4.01,-8.18 -6.26,-6.26l213.34 -220.58c-10.08,5.97 -5.73,-2.53 26.57,30.77 208.79,215.28 444.12,440.27 662.44,658.25l232.79 230.03c28.63,-8.06 -3.96,-0.57 24.31,-11.42 -13.46,18.91 -9.31,12.28 -6.26,19.15l13.61 -21.3c-0.27,-0.25 -2.02,-1.37 -2.33,-1.69 -3.2,-3.42 -0.7,4.8 -4.65,-8.3 26.58,-7.49 42.89,-33.67 62.59,-50.08 13.28,9.98 8.7,-4.15 -34.88,40.23 -6.83,6.96 -9.61,9.96 -15.57,15.74 21.61,-5.25 59.56,-41.43 63.08,-62.26 4.53,-26.85 117.79,-106.84 143.85,-143.94l-67.43 70.25c-18.92,15.8 -59.69,55.97 -70.64,73.35 21.66,-7.32 39.39,-32.65 56.49,-49.92l43.29 -38.03c26.32,-21.65 21.17,-27.88 50.81,-43.13 -3.99,-16.61 -1.48,-11.63 -12.52,-25.77 2.78,-3.22 6.77,-10.56 8.02,-1.79 0.25,1.7 2.75,1.5 3.99,2.45z"/>
   <path class="fil4" d="M1127.78 1573.24c10.27,-1.92 8.17,-4 6.26,6.26 10.26,-1.92 8.18,-4.01 6.26,6.25 10.26,-1.91 8.18,-4 6.26,6.27 10.26,-1.92 8.17,-4.01 6.26,6.25 10.26,-1.91 8.17,-3.99 6.27,6.25 10.26,-1.9 8.17,-3.98 6.24,6.29 10.26,-1.93 8.18,-4.03 6.29,6.22 10.24,-1.89 8.14,-3.97 6.25,6.26 10.24,-1.89 8.16,-3.97 6.26,6.27 10.24,-1.9 8.15,-3.99 6.28,6.24 10.22,-1.87 8.13,-3.96 6.25,6.26 10.24,-1.88 8.14,-3.96 6.24,6.28 10.25,-1.91 8.17,-3.99 6.27,6.26 10.24,-1.9 8.16,-3.99 6.25,6.26 10.25,-1.9 8.16,-3.99 6.26,6.26 10.23,-1.9 8.16,-4 6.3,6.22 10.2,-1.85 8.11,-3.94 6.26,6.26 10.2,-1.86 8.11,-3.94 6.26,6.25 10.18,-1.84 8.11,-3.94 6.27,6.25 10.18,-1.83 8.09,-3.92 6.27,6.26 10.17,-1.83 8.08,-3.92 6.25,6.26 10.17,-1.83 8.09,-3.92 6.27,6.25 10.16,-1.82 8.08,-3.91 6.26,6.26 10.17,-1.82 8.08,-3.91 6.26,6.26 10.17,-1.82 8.08,-3.91 6.26,6.26 10.16,-1.82 8.08,-3.91 6.25,6.26 10.17,-1.82 8.08,-3.91 6.27,6.25 10.16,-1.81 8.07,-3.9 6.26,6.26 10.16,-1.81 8.08,-3.9 6.26,6.26 10.16,-1.81 8.07,-3.9 6.26,6.26 10.15,-1.81 8.07,-3.9 6.27,6.25 10.14,-1.8 8.06,-3.89 6.26,6.26 10.14,-1.8 8.06,-3.89 6.26,6.25 10.14,-1.79 8.05,-3.87 6.26,6.26 10.14,-1.79 8.05,-3.88 6.27,6.26 10.12,-1.79 8.04,-3.88 6.26,6.25 10.13,-1.78 8.04,-3.87 6.26,6.26 10.11,-1.78 8.04,-3.87 6.28,6.24 10.1,-1.76 8.01,-3.84 6.25,6.26 10.11,-1.76 8.02,-3.84 6.26,6.27 10.11,-1.76 8.02,-3.86 6.26,6.25 10.11,-1.76 8.02,-3.84 6.26,6.26 10.1,-1.76 8.02,-3.84 6.26,6.26 10.11,-1.76 8.02,-3.85 6.26,6.26 10.09,-1.75 8.02,-3.85 6.29,6.23 10.07,-1.72 7.98,-3.81 6.26,6.26 10.06,-1.72 7.98,-3.81 6.26,6.26 10.07,-1.72 7.98,-3.8 6.25,6.27 10.07,-1.73 7.99,-3.83 6.27,6.24 10.07,-1.71 7.97,-3.8 6.26,6.26 10.06,-1.71 7.97,-3.8 6.26,6.27 10.06,-1.73 7.98,-3.81 6.25,6.25 10.07,-1.71 7.98,-3.8 6.27,6.26 10.05,-1.71 7.95,-3.81 6.33,6.26 9.96,-1.71 7.88,-3.78 6.26,6.18 9.95,-1.61 7.87,-3.7 6.28,6.24 9.94,-1.59 7.85,-3.67 6.25,6.27 9.95,-1.59 7.86,-3.69 6.27,6.26 9.93,-1.6 7.85,-3.68 6.26,6.25 9.93,-1.59 7.84,-3.67 6.26,6.26 9.93,-1.59 7.84,-3.67 6.26,6.26 9.93,-1.58 7.85,-3.68 6.26,6.25 9.93,-1.58 7.84,-3.66 6.26,6.26 9.93,-1.58 7.84,-3.67 6.27,6.26 9.9,-1.58 7.83,-3.67 6.27,6.24 9.9,-1.55 7.81,-3.64 6.27,6.26 9.89,-1.55 7.8,-3.64 6.25,6.25 9.9,-1.54 7.81,-3.63 6.26,6.27 9.89,-1.56 7.81,-3.64 6.26,6.26 9.9,-1.55 7.81,-3.64 6.27,6.25 9.88,-1.54 7.8,-3.63 6.26,6.26 10.16,-1.58 7.9,-3.53 5.79,6.72 10.51,-2.16 8.42,-4.25 6.26,6.27 10.5,-2.17 8.42,-4.26 6.26,6.24 10.51,-2.15 8.42,-4.23 6.26,6.27 10.51,-2.16 8.42,-4.25 6.26,6.26 10.5,-2.16 8.42,-4.25 6.26,6.26 10.5,-2.16 8.42,-4.25 6.26,6.25 10.51,-2.15 8.41,-4.24 6.26,6.26 10.51,-2.15 8.41,-4.24 6.26,6.27 10.5,-2.16 8.42,-4.25 6.25,6.26 10.51,-2.17 8.43,-4.25 6.26,6.25 10.51,-2.16 8.42,-4.24 6.26,6.27 10.51,-2.16 8.42,-4.26 6.26,6.26 10.51,-2.17 8.43,-4.25 6.26,6.25 10.51,-2.16 8.42,-4.25 6.27,6.26 10.5,-2.16 8.41,-4.24 6.26,6.25 10.49,-2.14 8.41,-4.24 6.26,6.26 10.49,-2.15 8.41,-4.23 6.26,6.26 10.5,-2.15 8.4,-4.23 6.26,6.26 10.49,-2.15 8.41,-4.24 6.26,6.26 10.49,-2.15 8.41,-4.24 6.26,6.25 10.49,-2.14 8.4,-4.22 6.26,6.27 10.49,-2.15 8.4,-4.23 6.26,6.26 10.49,-2.15 8.41,-4.24 6.25,6.25 10.5,-2.14 8.41,-4.23 6.27,6.26 10.48,-2.14 8.4,-4.23 6.26,6.25 10.48,-2.13 8.4,-4.21 6.27,6.26 10.47,-2.13 8.39,-4.22 6.26,6.26 10.47,-2.13 8.38,-4.22 6.25,6.26 10.48,-2.13 8.39,-4.21 6.26,6.26 10.48,-2.13 8.4,-4.22 6.27,6.26 10.47,-2.13 8.38,-4.22 6.25,6.26 10.48,-2.13 8.39,-4.22 6.26,6.26 10.48,-2.13 8.39,-4.22 6.26,6.25 10.48,-2.13 8.39,-4.21 6.26,6.27 10.47,-2.13 8.39,-4.22 6.26,6.26 10.48,-2.13 8.39,-4.22 6.26,6.25 10.47,-2.13 8.39,-4.21 6.26,6.26 10.47,-2.13 8.39,-4.21 6.26,6.26 10.47,-2.12 8.39,-4.22 6.26,6.26 10.47,-2.13 8.38,-4.21 6.26,6.26 10.47,-2.13 8.39,-4.21 6.26,6.26 10.47,-2.13 8.39,-4.22 6.26,6.26 10.47,-2.13 8.38,-4.22 6.26,6.25 10.47,-2.12 8.38,-4.2 6.26,6.26 10.47,-2.12 8.38,-4.2 6.26,6.27 10.47,-2.13 8.38,-4.22 6.26,6.25 10.47,-2.12 8.38,-4.21 6.26,6.26 10.47,-2.12 8.38,-4.21 6.26,6.26 10.46,-2.12 8.38,-4.21 6.26,6.26 10.47,-2.12 8.38,-4.21 6.26,6.26 10.47,-2.12 8.37,-4.21 6.26,6.25 10.46,-2.11 8.38,-4.2 6.25,6.27 10.47,-2.13 8.39,-4.21 6.27,6.25 10.46,-2.11 8.37,-4.2 6.26,6.26 10.46,-2.11 8.37,-4.2 6.25,6.26 10.47,-2.12 8.39,-4.2 6.26,6.26 10.47,-2.12 8.38,-4.2 6.27,6.26 10.46,-2.11 8.37,-4.21 6.25,6.26 10.47,-2.12 8.38,-4.2 6.26,6.26 10.46,-2.12 8.38,-4.2 6.26,6.26 10.47,-2.12 8.38,-4.21 6.27,6.25 10.46,-2.11 8.37,-4.2 6.25,6.26 10.46,-2.11 8.38,-4.19 6.26,6.27 10.46,-2.12 8.38,-4.21 6.26,6.25 10.47,-2.11 8.37,-4.2 6.26,6.26 10.46,-2.11 8.38,-4.2 6.26,6.26 10.46,-2.11 8.38,-4.2 6.26,6.26 10.46,-2.12 8.37,-4.2 6.26,6.26 10.46,-2.11 8.37,-4.2 6.26,6.26 10.46,-2.11 8.38,-4.2 6.26,6.26 10.45,-2.11 8.37,-4.21 6.28,6.24 10.43,-2.09 8.34,-4.17 6.26,6.26 10.43,-2.09 8.35,-4.18 6.26,6.26 10.43,-2.09 8.34,-4.18 6.26,6.25 10.43,-2.08 8.34,-4.16 6.26,6.27 10.43,-2.09 8.34,-4.18 6.26,6.25 10.43,-2.08 8.34,-4.17 6.25,6.26 10.43,-2.08 8.35,-4.17 6.27,6.26 10.43,-2.08 8.34,-4.16 6.26,6.26 10.43,-2.09 8.34,-4.17 6.25,6.26 10.43,-2.08 8.35,-4.17 6.26,6.26 10.43,-2.08 8.35,-4.17 6.27,6.26 10.42,-2.09 8.33,-4.17 6.26,6.25 10.42,-2.08 8.34,-4.16 6.25,6.26 10.43,-2.07 8.35,-4.16 6.26,6.27 10.41,-2.08 8.29,-4.19 6.43,6.26 10.18,-2.08 8.06,-4.15 6.44,6.09 9.93,-1.86 7.81,-3.92 6.48,6.06 9.62,-1.59 7.49,-3.65 6.55,6.01 10.45,-1.43 6.96,-3.11 6.96,8.79 22.92,46.67 164.48,66.8 231.43,73.68 76.25,7.84 105.73,-45.84 186.69,-122.29 79.47,-75.04 123.04,-100.18 110.85,-190.79 -5.7,-42.37 -21.29,-209.11 -70.6,-228.49 -15.85,0 -14,4.44 -9.95,-9.77 -11.13,2.24 -7.96,3.58 -4.82,-7.97 -9.24,1.25 -6.95,2.88 -4.89,-6.63 -10.53,2.27 -8.01,3.97 -5.71,-6.85 -10.37,1.99 -8.22,4.01 -6.07,-6.4 -10.52,2.16 -8.43,4.25 -6.27,-6.26 -10.65,2.1 -8.92,4.48 -6.47,-5.9 -11.08,2.63 -9.04,4.84 -6.55,-6.22 -10.9,2.51 -9.18,4.95 -6.67,-5.75 -10.75,2.42 -8.67,4.5 -6.26,-6.26 -10.76,2.31 -9.23,4.79 -6.44,-5.62 -11.76,3.28 -9.55,5.39 -6.52,-6.44 -11.28,3 -9.31,5.16 -6.3,-6.08 -1.24,-0.95 -3.74,-0.75 -3.99,-2.45 -1.25,-8.77 -5.24,-1.43 -8.02,1.79 11.04,14.14 8.53,9.16 12.52,25.77 -29.64,15.25 -24.49,21.48 -50.81,43.13l-43.29 38.03c-17.1,17.27 -34.83,42.6 -56.49,49.92 10.95,-17.38 51.72,-57.55 70.64,-73.35l67.43 -70.25c-26.06,37.1 -139.32,117.09 -143.85,143.94 -3.52,20.83 -41.47,57.01 -63.08,62.26 5.96,-5.78 8.74,-8.78 15.57,-15.74 43.58,-44.38 48.16,-30.25 34.88,-40.23 -19.7,16.41 -36.01,42.59 -62.59,50.08 3.95,13.1 1.45,4.88 4.65,8.3 0.31,0.32 2.06,1.44 2.33,1.69l-13.61 21.3c-3.05,-6.87 -7.2,-0.24 6.26,-19.15 -28.27,10.85 4.32,3.36 -24.31,11.42l-232.79 -230.03c-218.32,-217.98 -453.65,-442.97 -662.44,-658.25 -32.3,-33.3 -36.65,-24.8 -26.57,-30.77l-213.34 220.58z"/>
   <path class="fil4" d="M657.23 1099.07l8.02 15.74c11.31,12.5 -0.07,5.02 14.87,12.58 13.33,0 11.84,-3.94 9.2,7.71 10.76,-1.95 8.68,-4.04 5.9,6.58 11.26,-2.39 9.07,-4.49 6.17,6.69 11.27,-2.93 9.19,-5.02 6.26,6.25 11.28,-2.93 9.18,-5.01 6.26,6.26 11.17,-2.9 9.07,-5.08 6.69,6.17 10.63,-2.79 8.59,-4.84 6.38,5.89 10.53,-2.31 8.45,-4.38 6.26,6.17 10.53,-2.19 8.45,-4.29 6.27,6.24 10.53,-2.17 8.44,-4.26 6.24,6.28 10.54,-2.2 8.45,-4.29 6.27,6.25 10.53,-2.18 8.45,-4.27 6.27,6.25 10.52,-2.17 8.43,-4.27 6.26,6.25 10.52,-2.16 8.43,-4.25 6.25,6.27 10.51,-2.17 8.44,-4.27 6.29,6.24 10.5,-2.15 8.41,-4.23 6.24,6.28 10.5,-2.17 8.42,-4.27 6.27,6.24 10.5,-2.15 8.42,-4.24 6.26,6.26 10.49,-2.15 8.41,-4.24 6.27,6.26 10.49,-2.15 8.4,-4.24 6.25,6.26 10.48,-2.15 8.41,-4.25 6.28,6.24 10.47,-2.12 8.38,-4.22 6.26,6.26 10.47,-2.13 8.38,-4.21 6.26,6.25 10.47,-2.12 8.38,-4.2 6.25,6.27 10.47,-2.13 8.39,-4.22 6.27,6.25 10.46,-2.11 8.38,-4.21 6.26,6.26 10.47,-2.12 8.37,-4.2 6.26,6.26 10.46,-2.12 8.38,-4.2 6.26,6.26 10.46,-2.12 8.38,-4.21 6.26,6.25 10.46,-2.1 8.37,-4.2 6.27,6.26 10.43,-2.1 8.36,-4.2 6.27,6.24 10.43,-2.08 8.35,-4.17 6.26,6.26 10.44,-2.09 8.34,-4.17 6.26,6.26 10.43,-2.08 8.35,-4.17 6.26,6.26 10.43,-2.08 8.35,-4.17 6.26,6.26 10.43,-2.09 8.34,-4.17 6.26,6.26 10.43,-2.09 8.34,-4.17 6.26,6.26 10.42,-2.08 8.34,-4.18 6.27,6.24 10.41,-2.06 8.33,-4.15 6.26,6.26 10.42,-2.07 8.33,-4.15 6.25,6.27 10.43,-2.08 8.34,-4.16 6.27,6.26 10.4,-2.07 8.32,-4.17 6.28,6.23 10.39,-2.04 8.3,-4.13 6.25,6.26 10.39,-2.04 8.31,-4.13 6.27,6.26 10.39,-2.04 8.3,-4.12 6.25,6.27 10.38,-2.06 8.3,-4.15 6.28,6.23 10.37,-2.02 8.28,-4.11 6.26,6.26 10.36,-2.02 8.28,-4.11 6.26,6.26 10.37,-2.02 8.28,-4.1 6.26,6.26 10.37,-2.02 8.28,-4.1 6.26,6.26 10.36,-2.02 8.28,-4.11 6.27,6.26 10.35,-2.02 8.27,-4.11 6.25,6.25 10.36,-2.01 8.27,-4.09 6.26,6.26 10.35,-2.01 8.28,-4.1 6.27,6.25 10.34,-2 8.26,-4.09 6.26,6.26 10.35,-2 8.26,-4.09 6.26,6.26 10.35,-2 8.26,-4.08 6.25,6.27 10.35,-2.01 8.27,-4.1 6.27,6.24 10.34,-1.99 8.26,-4.08 6.26,6.26 10.34,-1.99 8.25,-4.08 6.26,6.27 10.33,-2 8.25,-4.09 6.28,6.24l460.62 -460.62c-11.21,2.86 -9.12,4.95 -6.26,-6.26 -11.21,2.86 -9.13,4.94 -6.26,-6.26 -11.21,2.86 -9.12,4.95 -6.26,-6.26 -11.21,2.86 -9.12,4.95 -6.26,-6.26 -11.21,2.86 -9.12,4.95 -6.26,-6.26 -11.21,2.87 -9.12,4.95 -6.26,-6.26 -11.2,2.86 -9.12,4.95 -6.26,-6.26 -11.21,2.86 -9.12,4.95 -6.26,-6.26 -11.21,2.87 -9.12,4.95 -6.26,-6.25 -1.3,-0.41 -3.32,-0.49 -4.05,-0.43 -32.09,2.54 -216,208.53 -242.24,230.47l-342.92 -338.84c-20.77,-21.15 -33.74,-26.53 -30.11,-71.26 -35.51,32.24 -84.83,81.12 -116.37,118.51 -13.5,16.01 -38.77,45.41 -51.66,67.3 -22.44,38.1 -17.89,53 -24.85,99.58z"/>
   <path class="fil4" d="M2524.43 2704.71c7.54,17.15 140.28,35.66 164.7,26.11 51.31,-20.04 27.3,-100.51 20.27,-153.69 -4.77,-36.13 -11.24,-60.31 -50.38,-33.01 -16.21,11.31 -148.86,128.13 -134.59,160.59z"/>
  </g>
 </g>
</svg>
