<?xml version="1.0" encoding="UTF-8"?>
<!DOCTYPE svg PUBLIC "-//W3C//DTD SVG 1.1//EN" "http://www.w3.org/Graphics/SVG/1.1/DTD/svg11.dtd">
<!-- Creator: CorelDRAW -->
<svg xmlns="http://www.w3.org/2000/svg" xml:space="preserve" width="29.7mm" height="33.8668mm" version="1.1" style="shape-rendering:geometricPrecision; text-rendering:geometricPrecision; image-rendering:optimizeQuality; fill-rule:evenodd; clip-rule:evenodd"
viewBox="0 0 2970 3386.68"
 xmlns:xlink="http://www.w3.org/1999/xlink"
 xmlns:xodm="http://www.corel.com/coreldraw/odm/2003">
 <defs>
  <style type="text/css">
   <![CDATA[
    .fil0 {fill:#1B73BA}
    .fil2 {fill:#1B87C6}
    .fil1 {fill:#FEFEFE}
   ]]>
  </style>
 </defs>
 <g id="Layer_x0020_1">
  <metadata id="CorelCorpID_0Corel-Layer"/>
  <g id="_2690199165840">
   <path class="fil0" d="M1481.48 2745.46l-766.03 -215.28 -49.28 -583.04 365.05 -2.21 30.4 281.73c72.45,20.43 139.19,35.53 211.36,54.01 50.94,13.05 168.34,55.85 214.77,40.81 21.03,-38.24 4.91,-479.33 8.96,-563.29l-819.51 0.35 -31.06 -13.04 -46.92 -351.3c53.04,-31.22 157.12,-69.3 216.43,-94.53 72.17,-30.7 141.55,-60.86 215.24,-92.51l433.82 -190.94 -879.01 -0.94 -51.88 -365.38 961.78 -1.28 -0.01 -358.88 1221.69 4.28 -216.08 2506.81c-31.34,21.3 -430.2,128.87 -499.99,148.88 -86.36,24.75 -167.59,47.93 -253.12,73.86 -51.59,15.65 -208.53,67.13 -251.56,69.87l-0.63 -330.34c-1.49,-1.44 -4.25,-6.26 -5.16,-7.32l-9.26 -10.32zm-1233.86 290.91c34.93,19.87 814.29,232.23 923.95,263.07 96.68,27.19 211.45,65.47 308.5,86.93 51.91,11.48 1065.05,-312.53 1226.99,-345.8l262.94 -3033.83 -2970 -6.74 247.62 3036.37z"/>
   <path class="fil1" d="M646.14 1745.5l1297.98 3.74 -46.21 488.7c-27.77,16.35 -355.86,75.96 -410.16,83.54 -46.43,15.04 -163.83,-27.76 -214.77,-40.81 -72.17,-18.48 -138.91,-33.58 -211.36,-54.01l-30.4 -281.73 -365.05 2.21 49.28 583.04 766.03 215.28c49.42,0.84 326.57,-95.37 393.03,-116.42 58.31,-18.46 346.22,-104.04 374.04,-123.4l95.1 -1139.65 -784.3 -0.78c57.31,-31.03 145.88,-63.75 211.26,-90.35 73.55,-29.93 143.94,-60.35 217.56,-90.23l427.14 -180.13 -1.59 -355.69 -918.12 -0.19 -961.78 1.28 51.88 365.38 879.01 0.94 -433.82 190.94c-73.69,31.65 -143.07,61.81 -215.24,92.51 -59.31,25.23 -163.39,63.31 -216.43,94.53l46.92 351.3z"/>
   <path class="fil2" d="M1495.6 648.62l918.12 0.19 1.59 355.69 -427.14 180.13c-73.62,29.88 -144.01,60.3 -217.56,90.23 -65.38,26.6 -153.95,59.32 -211.26,90.35l784.3 0.78 -95.1 1139.65c-27.82,19.36 -315.73,104.94 -374.04,123.4 -66.46,21.05 -343.61,117.26 -393.03,116.42l9.26 10.32c0.91,1.06 3.67,5.88 5.16,7.32l0.63 330.34c43.03,-2.74 199.97,-54.22 251.56,-69.87 85.53,-25.93 166.76,-49.11 253.12,-73.86 69.79,-20.01 468.65,-127.58 499.99,-148.88l216.08 -2506.81 -1221.69 -4.28 0.01 358.88z"/>
   <path class="fil2" d="M1487.75 2321.48c54.3,-7.58 382.39,-67.19 410.16,-83.54l46.21 -488.7 -1297.98 -3.74 31.06 13.04 819.51 -0.35c-4.05,83.96 12.07,525.05 -8.96,563.29z"/>
  </g>
 </g>
</svg>
