<?xml version="1.0" encoding="UTF-8"?>
<!DOCTYPE svg PUBLIC "-//W3C//DTD SVG 1.1//EN" "http://www.w3.org/Graphics/SVG/1.1/DTD/svg11.dtd">
<!-- Creator: CorelDRAW -->
<svg xmlns="http://www.w3.org/2000/svg" xml:space="preserve" width="33.8668mm" height="33.7896mm" version="1.1" style="shape-rendering:geometricPrecision; text-rendering:geometricPrecision; image-rendering:optimizeQuality; fill-rule:evenodd; clip-rule:evenodd"
viewBox="0 0 3386.68 3378.96"
 xmlns:xlink="http://www.w3.org/1999/xlink"
 xmlns:xodm="http://www.corel.com/coreldraw/odm/2003">
 <defs>
  <style type="text/css">
   <![CDATA[
    .fil2 {fill:#009BD8}
    .fil17 {fill:#01FF6F}
    .fil20 {fill:#01FFC5}
    .fil10 {fill:#023EFF}
    .fil15 {fill:#02B1FE}
    .fil29 {fill:#02F4FF}
    .fil26 {fill:#02FF41}
    .fil21 {fill:#07FF07}
    .fil24 {fill:#0E00FE}
    .fil0 {fill:#383838}
    .fil13 {fill:#54FF02}
    .fil25 {fill:#5601FD}
    .fil5 {fill:#5ABEE6}
    .fil23 {fill:#9001FF}
    .fil7 {fill:#A2DBF2}
    .fil19 {fill:#B2FE01}
    .fil27 {fill:#BD00FF}
    .fil16 {fill:#CCEAF7}
    .fil1 {fill:#FDFFA6}
    .fil28 {fill:#FE0137}
    .fil9 {fill:#FE0177}
    .fil14 {fill:#FE02F1}
    .fil6 {fill:#FED6DB}
    .fil11 {fill:#FEF001}
    .fil30 {fill:#FF0309}
    .fil12 {fill:#FF2D01}
    .fil3 {fill:#FF3448}
    .fil4 {fill:#FF7481}
    .fil22 {fill:#FF9E01}
    .fil8 {fill:#FFA6AF}
    .fil18 {fill:white}
   ]]>
  </style>
 </defs>
 <g id="Layer_x0020_1">
  <metadata id="CorelCorpID_0Corel-Layer"/>
  <g id="_2690668968576">
   <path class="fil0" d="M1828.26 1780.8c7.44,-13.29 -5.5,-8.8 18.23,-7.7 12.96,-12.46 130.63,-45.76 160.99,-43.81 1.32,-1.05 3.56,-3.94 4.33,-2.61 0.76,1.34 3.34,-2 4.43,-2.46l90.15 -15.53c14.21,-8.29 5.22,-4.52 25.56,-8.24l32.94 -3.84c80.18,-9.82 120.15,-7.4 200.04,-2.87 158.47,14.49 259.21,109.47 317.28,216.58 72.88,134.45 52.49,298.57 -25.15,415.95 -114.18,172.65 -359.89,240.4 -562.43,115.24 -41.32,-25.54 -107.73,-95.65 -124.86,-144.59 -17.02,-16.16 -84.9,-145.27 -87.53,-179.77l-6.19 -12.51 -26.73 -74.98c-14.21,-28.74 -37.1,-110.39 -42.25,-146.15 -19.56,-37.66 -22.35,-98.35 21.19,-102.71zm-284.63 126.04l-6.04 15.24c-10.16,116.5 -148.29,430.74 -273.39,515.24 -206.99,139.83 -447.73,47.47 -557.36,-99.12 -143.85,-192.34 -71.07,-449.61 73.53,-560.02 86.63,-66.15 165.8,-89.97 305.98,-88.42 80.35,0.89 261.39,23.51 336.62,53.46l6.88 1.76 18.08 8.89c34.61,1.42 88.78,17.82 103.77,40.26 19.35,28.95 0.21,79.89 -8.07,112.71zm464.39 -657.47c-23.05,41.15 -84.94,142.36 -122.6,169.59l-3.45 7.19c-8.7,22.25 -57.15,71.59 -71.86,80.82 -4.31,14.29 -54.47,65.04 -69.71,73.91 -5.42,13.38 -2.01,7.72 -13.96,21.53 -4.17,4.82 -14.77,15.05 -19.96,18.16 -13.67,8.22 -39.04,17.62 -49.99,0.19 -14.68,-1.48 -13.42,3.25 -10.81,-8.62 -12.74,3.63 -11.66,6.88 -7.38,-5.5 -12.27,4.78 -10.4,6.92 -6.34,-5.63 -12.35,4 -10.27,6.09 -6.27,-6.26 -12.43,-3.03 -2.52,1.47 -14.77,-7.27 -4.12,-2.94 -9.33,-8.44 -13.06,-12.13 -10.41,-10.29 -15.34,-13.28 -24.03,-27.27 -11.04,0 -8.74,2.45 -5.44,-8.42 -11.7,2.75 -9.51,4.87 -6.2,-6.72 -17.97,-6.18 -51.43,-49.6 -63.74,-65.61 -11.16,0 -9.19,2.82 -6.62,-7.86l-37.41 -43.78c-1.11,-1.48 -4.32,-5.78 -5.48,-7.25 -6.24,-7.95 -9.21,-10.92 -14.31,-17.55l-46.6 -71.69c-30.75,-23.55 -89.5,-154.28 -103.95,-204.18 -24.6,-85.06 -16.75,-174.26 12.12,-256.21 46.28,-131.38 165.95,-250.74 328.6,-273.26 342.76,-47.46 590.95,350.2 383.22,663.82zm-562.31 -1174.31c-40.84,4.38 -86.96,14.5 -126.2,23.59 -36.94,8.56 -81.63,26.3 -116.48,27.55 -16.59,16.6 -103.41,41.51 -134.36,54.08 -46.2,18.76 -83.22,36.52 -128.09,59.97 -89.42,46.73 -154.79,91.28 -226.75,141.43l-23.12 17.7 -4.43 1.58 -189.8 178.33c-36.08,35.93 -50.36,62.58 -85.52,103.16l-77.54 98.27c-27.36,49.94 -73.27,118.9 -103.06,187.31 -12.63,29.01 -29.88,60.72 -45.03,96.15 -13.92,32.55 -22.19,65.65 -37.54,97.17 -16.76,71.64 -39.41,132.71 -55.1,211.25 -7.7,38.54 -13.03,75.97 -18.47,114.41 -4.42,31.17 -4.79,88.45 -12.71,114.59l-0.06 6.78 0 5.07 0 7.46 0 11.34c0.12,122.14 2.42,210.53 23.77,330.73 9.43,53.09 20.13,102.53 32.65,149.42 12.99,48.61 30.4,89.94 41.57,134.93l5.45 13c34.19,83.4 58.53,148.49 103.01,222.23l94.57 149.84c16.05,24.6 25,26.59 36.05,51.68 9.99,-2.68 7.09,-3.91 5.63,6.9 8.62,5.17 8.32,-12.62 8.17,14.2 11.45,0.97 7.18,-1.8 9.99,11.41 15.19,4.61 10.49,8.03 22.11,21.33 120.08,137.3 165.55,175.52 308.27,283.15 25.8,19.46 124.62,75.73 139.43,92.3 62.33,27.93 145.45,72.11 223,101.2 84.24,31.59 157.35,53.38 248.06,72.6l18.49 4.73 6.85 -0.17 23.34 6.2 8 0.07c240.41,23.9 327.02,39.37 563.79,-3.72 26.6,-4.84 51.27,-9.22 77.15,-16.11l8.41 -0.01 10.38 -4.8c62.53,-10.4 163.47,-43.38 216.73,-67.73l2.74 -2.16c13.83,-3.81 11.7,-3.32 28.59,-10.37 112.86,-53.97 204.18,-98.64 290.18,-156.52 33.72,-30.94 80.81,-57.41 106.36,-79.03 55.63,-47.08 158.07,-142.63 199.02,-195.67 11.06,-14.32 18,-18.34 29.43,-33.34 19.75,-25.92 36.95,-46.87 56.48,-75.23 19.64,-28.54 89.9,-140.96 106.88,-156.8l0.6 -4.64c7.01,-21.96 3.73,-10.51 11.01,-17.03l77.79 -164.22c39.51,-86.03 94.41,-290.52 102.78,-378.41l6.43 -21.84 -0.89 -15.76 10.08 -100.24c5.96,-119.25 2.49,-250.02 -15.33,-358.8 -8.99,-54.9 -19.17,-105.04 -32.23,-156.82 -11.96,-47.41 -33.96,-101.07 -42.17,-143.29l-20.69 -50.15c-7.07,-18.08 -10.17,-25.99 -18.87,-44.22 -15.1,-31.68 -24.12,-54.61 -39.79,-85.92l-89.91 -159.98c-23.28,-24.73 -52.36,-75.22 -77.07,-105.11 -15.62,-18.89 -26.05,-33.14 -37.57,-46.92 -14.17,-16.96 -30.1,-29.59 -43.75,-49.78l-4.97 -4.95 -6.27 -6.27 -6.27 -6.27 -6.26 -6.26 -4.82 -7.1 -6.09 -7.05 -5.94 -6.6 -6.05 -6.48 -6.48 -6.05 -6.06 -6.48 -6.26 -6.27 -6.48 -6.04 -6.27 -6.27 -7.38 -5.77 -7.1 -4.82 -6.26 -6.26 -6.27 -6.27 -6.26 -6.27 -6.8 -5.73c-63.6,-54.6 -79.18,-70.83 -152.6,-123.11 -57.15,-40.71 -108.23,-69.6 -171.09,-104.58 -128.95,-71.75 -236.6,-104.78 -393.71,-149.69l-14.11 -2.72 -4.9 -2.96c-226.45,-34.15 -366.34,-51.21 -606.01,-18.05z"/>
   <path class="fil1" d="M1447.93 1753.87l-18.08 -8.89c-4.32,9.92 0.76,13.84 -6.88,-1.76 -75.23,-29.95 -256.27,-52.57 -336.62,-53.46 -140.18,-1.55 -219.35,22.27 -305.98,88.42 -144.6,110.41 -217.38,367.68 -73.53,560.02 109.63,146.59 350.37,238.95 557.36,99.12 125.1,-84.5 263.23,-398.74 273.39,-515.24l6.04 -15.24c-8.26,5.44 -8.34,-10.53 -6.04,15.24 -12.97,-4.3 -2.17,-2.75 -18.14,2.05l-50.31 14.43c-0.26,0.11 -1.54,0.88 -1.76,0.97 -7.96,3.32 6.69,10.65 -5.1,0.34 -56.37,6.12 -43.16,-6.04 -48.37,14.28 -0.91,-1.15 -1.35,-3.42 -1.65,-4.08 -0.26,-0.61 -1.2,-3.05 -1.52,-3.71 -0.5,-1.02 -1.97,-4.65 -2.54,-5.36 -7.98,-9.93 10.59,-3.24 -4.29,-1.59l-24.84 8.48c8.32,-11.54 14.57,-10.91 18.8,-12.54 -14.05,-7.93 -18.61,-0.18 -31.33,6.27l7.65 -11.61c6.12,-13.96 6.24,-0.05 -0.01,-4.86 -29.65,-22.78 24.05,26.74 -21.23,-9.99 -0.39,-0.32 -1.89,-1.2 -2.33,-1.54 -0.5,-0.38 -2.16,-1.35 -2.7,-1.77l-6.13 -4.77c-0.62,-0.5 -2.81,-1.22 -3.27,-3.11 -0.49,-2.01 -2.44,-2.11 -3.3,-3.45 27.62,12.56 28.51,0.51 31.32,-2.76 -6.03,2.2 -9.57,7.66 -18.74,-3.38 -7.26,-8.72 3.96,-8.2 -6.32,-31.45l18.79 25.07c-7.61,-20.59 0.82,-3.91 -3.07,-16.25 -9,-28.61 0.33,-7.09 -9.46,-17.85l6.75 -2.49c0.43,-0.19 2.34,-0.93 2.73,-1.14 20.82,-10.93 -2.86,4.19 8.27,-21.3 9.44,-21.63 -2.21,-8.34 8.89,-15.6 29.44,-19.27 -22.66,18.69 6.45,1.18 3.72,-4.54 -7.21,-11.1 29.7,-46.25 2.55,-2.42 -1.05,-13.09 37.4,-14.43z"/>
   <path class="fil2" d="M1388.03 1319.2c-1.25,-60.21 120.48,-336.44 291.54,-371.33 37.12,-7.57 56.15,-9.27 93.97,1.63 0.95,0.27 2.68,0.78 3.58,1.04 45.28,12.88 92.04,45.46 118.49,79.93 40.89,53.3 63.02,93.44 86.73,157.9 8.67,23.56 11.1,44.91 25.68,61 207.73,-313.62 -40.46,-711.28 -383.22,-663.82 -162.65,22.52 -282.32,141.88 -328.6,273.26 -28.87,81.95 -36.72,171.15 -12.12,256.21 14.45,49.9 73.2,180.63 103.95,204.18z"/>
   <path class="fil3" d="M1969.77 2296.92c17.13,48.94 83.54,119.05 124.86,144.59 202.54,125.16 448.25,57.41 562.43,-115.24 77.64,-117.38 98.03,-281.5 25.15,-415.95 -58.07,-107.11 -158.81,-202.09 -317.28,-216.58 -5.55,17.88 -3.82,3.69 1.23,14.23l20.09 22.12c5.32,5.76 3.72,4.41 8.95,9.97 101.48,107.99 193.83,299.13 87.44,424.36l-58.26 54.67c-56.03,40.97 -178.88,77.55 -241.29,78.89l-213.32 -1.06z"/>
   <path class="fil4" d="M1882.24 2117.15c4.17,-15.28 8.21,-12.51 -6.19,-12.51l6.19 12.51c2.63,34.5 70.51,163.61 87.53,179.77l213.32 1.06c62.41,-1.34 185.26,-37.92 241.29,-78.89l58.26 -54.67c106.39,-125.23 14.04,-316.37 -87.44,-424.36 -5.23,-5.56 -3.63,-4.21 -8.95,-9.97l-20.09 -22.12c-5.05,-10.54 -6.78,3.65 -1.23,-14.23 -79.89,-4.53 -119.86,-6.95 -200.04,2.87l-32.94 3.84c-20.34,3.72 -11.35,-0.05 -25.56,8.24 14.54,6.1 64.3,53.42 80.68,77.35 16.5,24.1 -2.7,-4.52 6.17,12.44l7.1 8.37c0.43,0.43 1.91,1.57 2.39,2.07l37.75 71.32c0.19,0.58 0.69,2.26 0.89,2.81l-22.37 159.46c-9.54,18.4 -4.54,0.3 -30.62,28.22 -0.29,0.31 -1.29,1.53 -1.57,1.8l-41.29 19.93c-72.96,31.58 -149.76,33.75 -231.32,24.39 -24.72,-2.83 -8.02,-3.44 -31.96,0.3z"/>
   <path class="fil5" d="M1885.42 1418.96l-3.45 7.19 3.45 -7.19c37.66,-27.23 99.55,-128.44 122.6,-169.59 -14.58,-16.09 -17.01,-37.44 -25.68,-61 -23.71,-64.46 -45.84,-104.6 -86.73,-157.9 -26.45,-34.47 -73.21,-67.05 -118.49,-79.93 -0.9,-0.26 -2.63,-0.77 -3.58,-1.04 -37.82,-10.9 -56.85,-9.2 -93.97,-1.63 -171.06,34.89 -292.79,311.12 -291.54,371.33l46.6 71.69c5.1,6.63 8.07,9.6 14.31,17.55 1.16,1.47 4.37,5.77 5.48,7.25l37.41 43.78c-2.57,10.68 -4.54,7.86 6.62,7.86 1.05,-11.68 4.18,-10.02 -6.62,-7.86 5.85,-40.34 19.99,-75.24 33.28,-108.16 7.99,-19.81 13.81,-28.2 23.93,-45.11 11.9,-19.89 16.51,-26.56 30,-43.49l25.2 -23.5c30.65,-19.97 -33.47,17.22 10.79,-16.32 55.29,-41.91 106.01,-43.64 139.93,-25.48 0.21,0.11 1.46,0.8 1.66,0.91 0.21,0.11 1.4,0.86 1.61,0.97 0.21,0.12 1.38,0.87 1.61,0.98l48.17 33.4c0.31,0.4 1.22,1.82 1.5,2.19 0.24,0.32 1.1,1.57 1.33,1.85l48.69 79.57c25.83,61.57 19.27,60.33 25.89,101.68z"/>
   <path class="fil6" d="M2007.48 1729.29c-30.36,-1.95 -148.03,31.35 -160.99,43.81 -23.73,-1.1 -10.79,-5.59 -18.23,7.7l18.23 -7.7c2.9,15.53 -1.78,4.3 8.56,9.97l31.1 18.52c9.95,5.58 12.11,9.12 17.38,18.48l4.53 14.09c4.42,12.24 -9.51,4.14 9.46,11.73 -0.61,0.88 -2.09,1.88 -2.41,2.17l-10.3 11.01c-0.2,0.4 -0.64,2.07 -0.85,2.51 -14.64,31.08 -29.88,10.73 -9.34,28.16 6.43,-9.6 18.84,-23.44 22.9,-29.16 -0.5,1.78 -6.93,20.19 -7.06,20.45 -7.77,15.42 -32.48,13.63 -34.57,13.72l-12.87 0.45c-5.55,1 -26.69,17.99 -55.95,-11.69 5.15,35.76 28.04,117.41 42.25,146.15l67.88 6.18c1.56,0.09 3.3,0.26 4.93,0.34l32.72 0.01c1.65,-0.09 3.38,-0.26 4.95,-0.34 1.47,-0.07 3.23,-0.17 4.64,-0.24l49.36 -6.91c23.18,-5.23 -3.16,2.98 14.73,-4.6 76.92,-32.58 24.8,-14.64 63.38,-36.04 24.89,-13.81 -9.01,20 34.55,-48.19 4.9,-13.38 -1.37,6.9 -2.79,-4.88l1.11 -43.21c4.7,-12.63 7.7,14.41 1.68,-2.04 -9.74,-18.09 -12.9,-26.93 -21.79,-45.27 -32.15,-66.34 -81.45,-85.19 -97.19,-115.18z"/>
   <path class="fil7" d="M1810.11 1506.97c14.71,-9.23 63.16,-58.57 71.86,-80.82l3.45 -7.19c-6.62,-41.35 -0.06,-40.11 -25.89,-101.68l-48.69 -79.57c-0.23,-0.28 -1.09,-1.53 -1.33,-1.85 -0.28,-0.37 -1.19,-1.79 -1.5,-2.19l-48.17 -33.4c-0.23,-0.11 -1.4,-0.86 -1.61,-0.98 -0.21,-0.11 -1.4,-0.86 -1.61,-0.97 -0.2,-0.11 -1.45,-0.8 -1.66,-0.91 -33.92,-18.16 -84.64,-16.43 -139.93,25.48 -44.26,33.54 19.86,-3.65 -10.79,16.32l-25.2 23.5c-13.49,16.93 -18.1,23.6 -30,43.49 -10.12,16.91 -15.94,25.3 -23.93,45.11 -13.29,32.92 -27.43,67.82 -33.28,108.16 10.8,-2.16 7.67,-3.82 6.62,7.86 12.31,16.01 45.77,59.43 63.74,65.61 -3.31,11.59 -5.5,9.47 6.2,6.72 -3.3,10.87 -5.6,8.42 5.44,8.42 1.09,-12.3 4.98,-11.76 -5.44,-8.42 3.34,-12.04 5.73,-10.12 -6.2,-6.72 8.14,-21.87 8.67,-37.3 16.23,-60.28 9.93,-30.18 63.79,-128.4 76.67,-113.5l21.47 -19.57c8.6,24.25 15.09,3.95 19.19,2.89 5.71,-1.47 40.94,1.96 42.43,11.21 0.07,0.47 -10.99,-15.76 -0.99,3.29 10.79,20.56 -12.17,-5.47 12.6,6.92 0.51,0.25 2.22,0.93 2.73,1.22l35.59 48.42c11.44,19.6 1.11,-15.09 -1.2,2.26 -0.06,0.41 -0.48,1.82 -0.35,2.5l1.2 3.93c10.37,24.73 22.7,55.55 22.35,84.74z"/>
   <path class="fil8" d="M2106.39 1708.69l-90.15 15.53c-1.09,0.46 -3.67,3.8 -4.43,2.46 -0.77,-1.33 -3.01,1.56 -4.33,2.61 15.74,29.99 65.04,48.84 97.19,115.18 8.89,18.34 12.05,27.18 21.79,45.27 6.02,16.45 3.02,-10.59 -1.68,2.04l-1.11 43.21c1.42,11.78 7.69,-8.5 2.79,4.88 -43.56,68.19 -9.66,34.38 -34.55,48.19 -38.58,21.4 13.54,3.46 -63.38,36.04 -17.89,7.58 8.45,-0.63 -14.73,4.6l-49.36 6.91c-1.41,0.07 -3.17,0.17 -4.64,0.24 -1.57,0.08 -3.3,0.25 -4.95,0.34l-32.72 -0.01c-1.63,-0.08 -3.37,-0.25 -4.93,-0.34l-67.88 -6.18 26.73 74.98c14.4,0 10.36,-2.77 6.19,12.51 23.94,-3.74 7.24,-3.13 31.96,-0.3 81.56,9.36 158.36,7.19 231.32,-24.39l41.29 -19.93c0.28,-0.27 1.28,-1.49 1.57,-1.8 26.08,-27.92 21.08,-9.82 30.62,-28.22l22.37 -159.46c-0.2,-0.55 -0.7,-2.23 -0.89,-2.81l-37.75 -71.32c-0.48,-0.5 -1.96,-1.64 -2.39,-2.07l-7.1 -8.37c-8.87,-16.96 10.33,11.66 -6.17,-12.44 -16.38,-23.93 -66.14,-71.25 -80.68,-77.35z"/>
   <path class="fil9" d="M2574.43 3133.92l-8.07 2.56c-12.23,-0.38 -10.19,-3.98 -10.19,6.28l10.19 -6.28 8.07 -2.56c29.63,-15.64 62.03,-39.42 87.51,-56.94 34.37,-23.63 45.81,-38.83 80.49,-56.4 1.1,-1.14 2.79,-4.45 3.26,-3.4 4.1,9.05 5.2,-5.6 6.26,-6.75l37.66 -29.84c85.24,-77.46 132.81,-123.78 190.26,-193.5 44.69,-54.25 138.88,-170.04 160.43,-229.26l3.8 -7.63c-0.63,-14.51 2.62,-6.54 -9.39,-14.51l17.68 -0.56c-6.84,-39.48 2.36,17.12 -11.69,-15.52 -4.45,-10.32 -8.58,2.55 0.35,-3.86 16.55,-11.86 3.16,0.73 3.76,0.98 15.49,6.51 8.49,3.73 11.09,0.03 0.56,-0.8 3.27,-7.46 3.83,-8.58 0.54,-1.09 3.61,-4.58 3.97,-7.32 0.27,-2.04 3.4,-2.82 3.19,-4.75l-6 -4.28c-13.61,23.96 -6.75,19.46 -18.8,0 -3.28,33.01 -1.06,7.03 -12.45,29.59l-6.35 20.53 -8.17 -16.91c-2.4,-14.69 -4.94,2.47 1.3,-4.83 3.08,-3.6 28.19,-4.9 11.19,-45.37 -7.28,6.52 -4,-4.93 -11.01,17.03 5.79,-4.02 7.23,-2.54 13.99,-6.47l-7.3 25.23c-9.07,-7.13 -7.43,11.42 -7.29,-14.12 -16.98,15.84 -87.24,128.26 -106.88,156.8 -19.53,28.36 -36.73,49.31 -56.48,75.23 -11.43,15 -18.37,19.02 -29.43,33.34 -40.95,53.04 -143.39,148.59 -199.02,195.67 -25.55,21.62 -72.64,48.09 -106.36,79.03 -14.77,23.56 -6.18,5.53 -16.7,17.67 -25.39,29.28 12.47,20.82 5.63,55.16 -12.25,1.52 -0.56,7.66 -28.47,-9.23 -0.71,-0.42 -2.22,-1.57 -2.87,-1.97l-10.35 -5.42c0.68,-1.16 2.33,-4.11 2.69,-3 0.32,1.04 2.31,-2.28 2.75,-2.5l16.28 5.6c0.23,0.29 1.01,1.78 1.25,2.04 0.23,0.25 1.1,1.61 1.37,1.83 10.51,8.46 -4.92,7.4 13.26,2.29l-18.74 -25.85c-1.97,-3.58 4.24,-0.23 -4.16,-7.35 -4.58,5.76 -17.48,19.9 -14.06,34.49 6.64,28.43 0.37,1.43 7.44,4.37l8.87 4.54c3.09,2.47 7.01,6.82 11.97,12.46 -10.43,1.37 -3.5,6.77 -17.71,-3.19l-1.85 15.4z"/>
   <path class="fil10" d="M2070.73 98.79c157.11,44.91 264.76,77.94 393.71,149.69 62.86,34.98 113.94,63.87 171.09,104.58 73.42,52.28 89,68.51 152.6,123.11l6.8 5.73 6.26 6.27 6.27 6.27 6.26 6.26 7.1 4.82 7.38 5.77 6.27 6.27 6.48 6.04 6.26 6.27 6.06 6.48 6.48 6.05 6.05 6.48 5.94 6.6 6.09 7.05 4.82 7.1 6.26 6.26 6.27 6.27 6.27 6.27 4.97 4.95 -4.97 -4.95 -6.27 -6.27 -6.27 -6.27 -6.26 -6.26 -4.82 -7.1 -6.09 -7.05 -5.94 -6.6 -6.05 -6.48 -6.48 -6.05 -6.06 -6.48 -6.26 -6.27 -6.48 -6.04 -6.27 -6.27 -7.38 -5.77 -7.1 -4.82 -6.26 -6.26 -6.27 -6.27 -6.26 -6.27 -6.8 -5.73c4.67,-25.83 -1.14,-7.89 10,-25.86 0.42,-0.68 16.08,-20.42 18.29,-23.55 -6.68,-13.6 -22.15,-20.97 -35.58,-31.15 -37.02,-28.06 -96.88,-84.75 -156.25,-118.78 -9.05,-5.18 -6.64,-3.11 -19.44,-10.98 -161.05,-99.11 -335.29,-183.47 -520.76,-220.2 -2.32,8 -4.71,17.54 -6.65,22.14 -0.63,-1.05 -0.88,-3.04 -1.04,-3.53l-2.02 -6.06c-11.71,-23.71 5.35,7.22 -21.68,-2.34 -10.37,-3.68 -5.81,-13.28 -12.85,-3.43 3.92,13.47 3.94,11.64 6.64,14.58 7.81,8.52 1.13,4.32 3.07,16.76 19.01,-34.25 7.3,-19.13 15.36,-18.8 4.47,16.04 1.43,16.04 -13.5,28.14l4.9 2.96c35.45,-42.23 33.06,13.17 25.98,-35.95l17.37 12.25c0.31,-0.9 1.94,1.04 2.84,1.68 -1.38,0.76 -3.13,2.07 -3.95,2.58l-17.89 10.42c-12.81,8.81 -4.23,-12.1 -10.24,11.74z"/>
   <path class="fil11" d="M892.12 3113.37c-14.81,-16.57 -113.63,-72.84 -139.43,-92.3 -142.72,-107.63 -188.19,-145.85 -308.27,-283.15 -11.62,-13.3 -6.92,-16.72 -22.11,-21.33 -16.26,0 -13.35,4.15 -9.99,-11.41 -16,-5.51 -6.52,6.21 -8.17,-14.2 -10.32,1.64 -7.99,3.52 -5.63,-6.9 -4.7,-1.34 -12.67,-2.51 -21.53,-3.51l13.44 24.12c-21.86,-34.37 -28.78,0.05 -21.43,-27.15 4.06,-15.04 -13.42,6.35 3.18,-4.95 18.4,-12.52 -4.27,16.88 5.82,0 5.45,-9.12 2.15,-0.12 0.29,-5.88l-5.64 0.46c-8.84,0.25 -11.55,5.56 -12.43,-9.48 -0.07,-1.29 0.06,-2.15 -0.14,-3.01l-0.2 24.17c0.43,1.07 0.33,2.9 0.43,3.42 6.11,31.96 9.05,15.66 24.63,21.64 -0.89,0.54 -2.55,0.88 -2.94,1.06 -20.33,9.57 -12.23,11.23 -16.64,18.52 -6.72,-17.5 4.31,-12.54 -16.29,-23.92l-8.77 -26.2c-0.61,1.1 -1.14,2.97 -1.35,3.51 -0.19,0.51 -0.99,2.7 -1.22,3.28l-4.64 10.87c20.67,35.24 96.69,121.81 128.55,155.56 94.69,100.31 180.3,173.75 297.83,253.41 48.54,32.9 118.93,72.58 176.67,99.91l12.54 6.26 12.62 6.17 12.54 6.26 10.49 6.05 -10.49 -6.05 -12.54 -6.26 -12.62 -6.17 -12.54 -6.26c-11.14,-15.1 -5.37,-10.16 -15.08,-25.67 7.36,-10.7 8.51,-14.31 14.89,-25.06l7.31 5.22c-0.06,2.04 -3.35,2.39 -3.66,4.33l-9.92 21.78c7.52,-12.07 15.14,-20.74 12.53,-31.33 -10.72,-2.93 -6.93,-6.58 -16.41,8.14 -12.09,18.74 -7.8,16.62 -0.03,31.21 -15.15,-8.82 -2.81,-0.79 -13.65,-9.42l-9.86 -8.77c1.03,-0.81 2.98,-3.1 3.34,-2.08l12.91 -14.33c12.31,-21.89 3.7,15.99 8.82,-14.92l-35.21 -25.64z"/>
   <path class="fil12" d="M2060.8 3278.17c-25.88,6.89 -50.55,11.27 -77.15,16.11 -236.77,43.09 -323.38,27.62 -563.79,3.72 -8.2,13.65 4.04,1.5 -11.98,14.75l-6.24 3.74c-1.28,0.67 -4.98,2 -6.29,2.4 -15.66,4.77 -9.98,9.04 -27.05,-6.79 31.15,-13.02 -12.62,8.66 19.93,-1.84l4.66 -2.18c0.38,-0.14 1.94,-0.73 2.32,-0.85 13.08,-4.51 8.75,2.79 16.65,-9.3l-23.34 -6.2c-6.27,19.63 0.95,9.97 -12.22,12.15 -16.29,2.69 -0.18,2.47 -14.27,-4.32 6.2,-5.42 -8.47,-6.08 19.64,-7.66l-18.49 -4.73c-6.01,13.74 -0.77,4.48 -0.6,13.62 0.02,0.71 0.3,2.56 0.31,3.28l-5.69 41.31 3.23 -0.17c7.16,-17.99 4.6,-5.81 1.6,-26.85 10.29,4.35 18.29,7.78 26.49,11.1 -12.13,9.14 -9.21,2.2 -12.53,12.53 23.87,0 4.67,-2.15 12.53,9.65 155.83,34.22 517.81,42.52 667.91,-11.79 11.68,-18.71 3.58,-12.2 10.38,-0.3l21.26 -10.77 -21.01 -4.16c11.26,-18.98 -0.76,-17.64 18.8,-3 -15.32,-16.79 -7.58,-3.34 -6.27,-18.8 17.87,1.1 4.36,-4.04 18.8,12.53 -15.68,-23.78 -9.83,-22.61 -18.8,-41.99l-10.38 4.8c24.37,12.03 11.17,17.34 -6.65,44.33l-8.28 14.39c-17.48,-17.21 -8.11,7.07 -1.65,-16.39l4.9 -8.39c-6.65,6.46 -0.15,5.49 -10.25,8.13 -14.54,3.79 3.54,6.44 -11.55,-4.88 14.23,-5.74 9.44,0.87 6.27,-30.98 13.33,13.01 13.48,41.39 12.53,-0.35 1.26,1.45 2.3,3.81 2.86,5.01l6.41 23.07c6.14,-17.48 5.95,-11.82 -3,-33.93z"/>
   <path class="fil13" d="M159.44 2247.33l5.45 13 -5.45 -13c-11.17,-44.99 -28.58,-86.32 -41.57,-134.93 -12.52,-46.89 -23.22,-96.33 -32.65,-149.42 -21.35,-120.2 -23.65,-208.59 -23.77,-330.73 -23.15,-4.35 -8.3,1.04 -27.79,-11.94l11.98 0.45c5.37,-0.19 -14.3,-11.68 15.81,0.15l0 -7.46 0 -5.07 0.06 -6.78c-0.86,-0.83 -2.26,-2.1 -2.6,-2.5l-5.78 -7.94c-0.18,-1.28 -0.84,-1.85 -1.26,-2.77 -7.63,20.66 5.94,13.36 -5.32,19.85 -11.92,6.86 4.3,6.19 -5.55,-2.46l-7.93 -11.12c-1.07,15.98 -1.36,16.18 -5.67,25.65 -9.66,-17.95 4.32,-13.33 -13.13,-19.39 3.42,39.48 8.97,11.55 23.6,28.02 18.33,20.65 0.88,-1.68 1.68,14.52 1.01,20.68 15.31,9.88 0.97,20.12 -8.24,-11.41 -11.34,-13.41 -10.46,-22.59 1.21,-12.56 -2.91,0.76 3.12,-5.19l6.75 -2.96c-19.17,-7.92 -13.62,4.29 -24.47,0.6l-1.14 -20.22c-1.31,-14.56 -0.03,-13.99 -3.1,-28.74 -25.84,35.72 -0.06,281.34 8.4,339.33 12,82.26 39.01,224.16 68.22,290.63 11.25,-4.55 8.48,-1.05 13.62,-12.53 0.63,0.91 1.19,1.59 1.38,3l12.28 16.92c4.69,-29.76 3.28,-24.07 10.67,-22.37l6 2.89c0.5,0.22 2.23,1.11 3.25,1.82 -11.25,7.04 -10.99,17.89 -27.72,19.02 -0.45,0.03 -2.2,-0.26 -2.6,-0.27l-6.69 -1.09c3.03,18.33 1.79,-3.22 11.39,18.27 12.53,28.09 -5.75,-0.14 6.83,24.47l6.27 -37.6 8.52 31.86c-0.28,-25.87 -6.76,-31.01 1.75,-50.65l11.86 44.53 14.79 -5.38z"/>
   <path class="fil14" d="M3144.1 2550.2l-3.8 7.63 3.8 -7.63c39.01,-30.66 116.92,-225.07 139.4,-285.71 38.26,-103.19 72.43,-220.76 85.46,-344.81 -36.01,-18.76 -14.34,-11.35 -13.29,-16 0.09,-0.42 0.7,-2.02 0.77,-2.52l-5.97 -11.51c-10.5,11.67 -12.45,5.08 -16.1,6.36 11.68,15.76 22.1,17.75 23.78,32.62 1.84,16.32 2.01,1.59 -7.31,10.67 -12.63,12.29 -7.71,16.57 -13.68,8.23 29.27,-40.24 -1.49,-21.96 -6,-42.71 -0.49,-2.18 -1.97,-2.67 -3.05,-3.94 0.88,27.66 11.53,31.04 -1.14,39.86 -10.93,7.6 -4.68,-1.62 -4.61,-1.83 6.46,-19.14 -7.49,6.62 2.83,-2.64l5.71 -2.66c-17.54,-36.59 1.44,-35.67 3.16,-45.53 1.2,-6.86 6.18,-0.14 -5.95,-12.27 -12.47,30.26 -0.94,8.87 -14.39,18.8l0.89 15.76c3.45,38.84 3.7,14.98 -6.43,21.84 -8.37,87.89 -63.27,292.38 -102.78,378.41l-77.79 164.22c17,40.47 -8.11,41.77 -11.19,45.37 -6.24,7.3 -3.7,-9.86 -1.3,4.83l8.17 16.91 6.35 -20.53c11.39,-22.56 9.17,3.42 12.45,-29.59 12.05,19.46 5.19,23.96 18.8,0l6 4.28c0.21,1.93 -2.92,2.71 -3.19,4.75 -0.36,2.74 -3.43,6.23 -3.97,7.32 -0.56,1.12 -3.27,7.78 -3.83,8.58 -2.6,3.7 4.4,6.48 -11.09,-0.03 -0.6,-0.25 12.79,-12.84 -3.76,-0.98 -8.93,6.41 -4.8,-6.46 -0.35,3.86 14.05,32.64 4.85,-23.96 11.69,15.52l-17.68 0.56c12.01,7.97 8.76,0 9.39,14.51zm-27.5 -58.33l-0.6 4.64c-0.14,25.54 -1.78,6.99 7.29,14.12l7.3 -25.23c-6.76,3.93 -8.2,2.45 -13.99,6.47z"/>
   <path class="fil15" d="M2084.39 45.65c-120.03,-50.01 -446.7,-54.19 -587.54,-35.18 -8.29,6.01 0.28,5.66 -15.49,8.21 -15.29,2.47 -9.7,-0.04 -17.1,-1.22l-7.24 14.96c0.04,0.62 0.45,2.48 0.56,3.13 4.83,27.58 9.14,13.75 25.73,26.79 -27.77,-2.41 8.85,0.38 -12.41,0.03l-29.65 -2.25 8.9 -31.21 -18.63 -6.26 15.06 11.17c-21.45,39.8 -13.33,-14.76 -12.02,10.13 0.21,3.88 8.45,24.45 11.15,31.11 239.67,-33.16 379.56,-16.1 606.01,18.05 14.93,-12.1 17.97,-12.1 13.5,-28.14 -8.06,-0.33 3.65,-15.45 -15.36,18.8 -1.94,-12.44 4.74,-8.24 -3.07,-16.76 -2.7,-2.94 -2.72,-1.11 -6.64,-14.58 7.04,-9.85 2.48,-0.25 12.85,3.43 27.03,9.56 9.97,-21.37 21.68,2.34l2.02 6.06c0.16,0.49 0.41,2.48 1.04,3.53 1.94,-4.6 4.33,-14.14 6.65,-22.14zm-13.66 53.14c6.01,-23.84 -2.57,-2.93 10.24,-11.74l17.89 -10.42c0.82,-0.51 2.57,-1.82 3.95,-2.58 -0.9,-0.64 -2.53,-2.58 -2.84,-1.68l-17.37 -12.25c7.08,49.12 9.47,-6.28 -25.98,35.95l14.11 2.72z"/>
   <path class="fil16" d="M1740.4 1580.88c15.24,-8.87 65.4,-59.62 69.71,-73.91 0.35,-29.19 -11.98,-60.01 -22.35,-84.74l-1.2 -3.93c-0.13,-0.68 0.29,-2.09 0.35,-2.5 2.31,-17.35 12.64,17.34 1.2,-2.26l-35.59 -48.42c-0.51,-0.29 -2.22,-0.97 -2.73,-1.22 -24.77,-12.39 -1.81,13.64 -12.6,-6.92 -10,-19.05 1.06,-2.82 0.99,-3.29 -1.49,-9.25 -36.72,-12.68 -42.43,-11.21 -4.1,1.06 -10.59,21.36 -19.19,-2.89l-21.47 19.57c-12.88,-14.9 -66.74,83.32 -76.67,113.5 -7.56,22.98 -8.09,38.41 -16.23,60.28 11.93,-3.4 9.54,-5.32 6.2,6.72 10.42,-3.34 6.53,-3.88 5.44,8.42 8.69,13.99 13.62,16.98 24.03,27.27 3.73,3.69 8.94,9.19 13.06,12.13 12.25,8.74 2.34,4.24 14.77,7.27 -4,12.35 -6.08,10.26 6.27,6.26 -4.06,12.55 -5.93,10.41 6.34,5.63 -4.28,12.38 -5.36,9.13 7.38,5.5 -2.61,11.87 -3.87,7.14 10.81,8.62 0,-15.23 3.75,-12.56 -10.81,-8.62 2.21,-12.42 4.39,-10.24 -7.38,-5.5 4.03,-11.9 5.63,-9.5 -6.34,-5.63l-6.27 -6.26c4.91,-20.31 7.98,-62.52 21.87,-83.45l9.29 -12.96c0,-0.54 -10.5,13.24 -0.69,-4.03 1.46,-2.58 1.37,-1.24 8.01,-5.66 11.65,-7.75 13.81,-22.29 35.94,-17.25 0.96,0.21 3.82,0.99 4.89,1.41 13.83,5.5 14.13,7.75 24.52,20l-17.84 -15.41c-18.1,15.02 2.9,2.28 18.26,29.34 8.48,14.95 7.47,32.44 10.51,50.93 0.12,0.78 0.57,2.76 0.7,3.5 0.12,0.67 0.61,2.6 0.72,3.21 5.32,32.47 -12.01,-22.86 -1.47,16.5z"/>
   <path class="fil17" d="M270.11 778.96c11.48,2.5 8.66,4.01 4.98,-7.49l13.21 2.96c0.9,0.3 3.9,1.34 4.78,1.65 0.72,0.25 2.55,1.08 3.75,1.76 0.3,-0.42 -0.53,-1.84 -0.55,-1.44l-2.03 -9.31c0.03,-0.75 0.03,-2.71 0.15,-3.54 0.12,-0.94 0.48,-2.96 0.7,-3.93l5.15 -13.11c0.95,1.15 2.24,1.81 2.44,3.75 0.26,2.52 3.42,5.83 3.63,6.69 0.22,0.94 0.32,4.04 0.21,4.85 -1.04,7.68 -20.54,-6.88 5.32,15.88 0.66,0.59 2.56,1.96 3.78,3.01 0.35,-1.19 0.01,-4.49 0.11,-3.7 0,0 -3.45,-5.83 11.17,-20.92 0.77,-0.81 2.61,-2.37 4.1,-3.29l-4.75 17.66c-7.76,19.65 -21.44,16.18 -22.11,15.97l-26.12 0.54c25.31,4.21 21.75,4.5 32.26,26 -0.04,-2.09 0.09,-8.43 0.4,-9.39l8.85 -11.96c0.69,-0.6 2.3,-1.76 3.04,-2.37l10.84 -8.51 77.54 -98.27c35.16,-40.58 49.44,-67.23 85.52,-103.16l189.8 -178.33c-16.09,-44.63 16.3,32.07 -6.65,-8.84 -5.83,-10.39 -3.96,17.22 -2.39,-6.66l8.07 -18.32c-21.12,17.13 -11.62,10.26 -20.31,4.74l21.84 -15.75c-11.35,13.01 -2.42,-9.89 0.49,9.55l3.38 33.7 23.12 -17.7c-11.15,3.98 -7.8,-1.97 -17.51,5.78 10.48,-23.69 -1.32,-7.45 -4.74,-39.12 26.32,14.48 15.33,17.4 17.27,23.54 16.05,-19.91 17.14,-12.77 3.05,-34.55 5.5,24.06 2.76,17.08 -1.52,23.54 -27.12,-33.98 3.92,-10.94 -7,-38.33 -5.75,18.02 -4.73,31.71 -25.07,18.8 -1.07,1.36 -2.63,3.5 -3.4,3.94 -0.53,0.32 -3.15,1.14 -3.58,0.13 -0.63,-1.48 -2.54,-2.43 -3.76,-3.7 -8.26,18.68 -36.35,32.53 -53.89,47.79 -54.58,47.53 -109.31,95.31 -157.51,149.44 -34.96,39.26 -161.26,180.65 -181.08,232.53l-4.98 7.49 -1.31 7.89c-11.76,1.78 -7.58,-1.37 -9.2,12.61 16.46,0 12.92,3.81 9.2,-12.61 11.47,8.79 27.62,24.75 27.82,24.96 5.57,5.64 -8.57,12.61 12.98,4.99 -12.78,-14.98 -14.33,-10.42 -20.95,-15.79l-6.41 -7.38c-7.45,-9.09 -3.3,-2.8 -12.13,-14.67z"/>
   <path class="fil18" d="M1537.59 1922.08c-2.3,-25.77 -2.22,-9.8 6.04,-15.24 8.28,-32.82 27.42,-83.76 8.07,-112.71 -14.99,-22.44 -69.16,-38.84 -103.77,-40.26 -38.45,1.34 -34.85,12.01 -37.4,14.43 -36.91,35.15 -25.98,41.71 -29.7,46.25 -29.11,17.51 22.99,-20.45 -6.45,-1.18 -11.1,7.26 0.55,-6.03 -8.89,15.6 -11.13,25.49 12.55,10.37 -8.27,21.3 -0.39,0.21 -2.3,0.95 -2.73,1.14l-6.75 2.49c9.79,10.76 0.46,-10.76 9.46,17.85 3.89,12.34 -4.54,-4.34 3.07,16.25l-18.79 -25.07c10.28,23.25 -0.94,22.73 6.32,31.45 9.17,11.04 12.71,5.58 18.74,3.38 -2.81,3.27 -3.7,15.32 -31.32,2.76 0.86,1.34 2.81,1.44 3.3,3.45 0.46,1.89 2.65,2.61 3.27,3.11l6.13 4.77c0.54,0.42 2.2,1.39 2.7,1.77 0.44,0.34 1.94,1.22 2.33,1.54 45.28,36.73 -8.42,-12.79 21.23,9.99 6.25,4.81 6.13,-9.1 0.01,4.86l-7.65 11.61c12.72,-6.45 17.28,-14.2 31.33,-6.27 -4.23,1.63 -10.48,1 -18.8,12.54l24.84 -8.48c14.88,-1.65 -3.69,-8.34 4.29,1.59 0.57,0.71 2.04,4.34 2.54,5.36 0.32,0.66 1.26,3.1 1.52,3.71 0.3,0.66 0.74,2.93 1.65,4.08 5.21,-20.32 -8,-8.16 48.37,-14.28 11.79,10.31 -2.86,2.98 5.1,-0.34 0.22,-0.09 1.5,-0.86 1.76,-0.97l50.31 -14.43c15.97,-4.8 5.17,-6.35 18.14,-2.05zm-107.74 -177.1l-6.88 -1.76c7.64,15.6 2.56,11.68 6.88,1.76z"/>
   <path class="fil19" d="M398.52 2684.08c-2.36,10.42 -4.69,8.54 5.63,6.9 1.65,20.41 -7.83,8.69 8.17,14.2 -3.36,15.56 -6.27,11.41 9.99,11.41 -2.81,-13.21 1.46,-10.44 -9.99,-11.41 0.15,-26.82 0.45,-9.03 -8.17,-14.2 1.46,-10.81 4.36,-9.58 -5.63,-6.9 -11.05,-25.09 -20,-27.08 -36.05,-51.68l-94.57 -149.84c-44.48,-73.74 -68.82,-138.83 -103.01,-222.23l-5.45 -13 -14.79 5.38 -11.86 -44.53c-8.51,19.64 -2.03,24.78 -1.75,50.65l-8.52 -31.86 -6.27 37.6c-12.58,-24.61 5.7,3.62 -6.83,-24.47 -9.6,-21.49 -8.36,0.06 -11.39,-18.27l6.69 1.09c0.4,0.01 2.15,0.3 2.6,0.27 16.73,-1.13 16.47,-11.98 27.72,-19.02 -1.02,-0.71 -2.75,-1.6 -3.25,-1.82l-6 -2.89c-7.39,-1.7 -5.98,-7.39 -10.67,22.37l-12.28 -16.92c-0.19,-1.41 -0.75,-2.09 -1.38,-3 -5.14,11.48 -2.37,7.98 -13.62,12.53 21.53,86.68 70.74,184.28 108.54,258.37 23.06,45.2 38.26,74.76 66.43,115.26 19.01,27.31 52.5,85.98 70.28,102.96l4.64 -10.87c0.23,-0.58 1.03,-2.77 1.22,-3.28 0.21,-0.54 0.74,-2.41 1.35,-3.51l8.77 26.2c20.6,11.38 9.57,6.42 16.29,23.92 4.41,-7.29 -3.69,-8.95 16.64,-18.52 0.39,-0.18 2.05,-0.52 2.94,-1.06 -15.58,-5.98 -18.52,10.32 -24.63,-21.64 -0.1,-0.52 0,-2.35 -0.43,-3.42l0.2 -24.17c0.2,0.86 0.07,1.72 0.14,3.01 0.88,15.04 3.59,9.73 12.43,9.48l5.64 -0.46c1.86,5.76 5.16,-3.24 -0.29,5.88 -10.09,16.88 12.58,-12.52 -5.82,0 -16.6,11.3 0.88,-10.09 -3.18,4.95 -7.35,27.2 -0.43,-7.22 21.43,27.15l-13.44 -24.12c8.86,1 16.83,2.17 21.53,3.51z"/>
   <path class="fil20" d="M713.83 381.68c71.96,-50.15 137.33,-94.7 226.75,-141.43 44.87,-23.45 81.89,-41.21 128.09,-59.97 30.95,-12.57 117.77,-37.48 134.36,-54.08 -35.42,7.51 -43.6,15.12 -63.23,12.02 1.62,-1.32 5.09,-4.34 6.1,-5.25 34.23,-30.8 25.83,-1.62 31.5,-7.28 -6.66,-36.93 -11.27,16.83 -19.23,-31.33 0.18,3.05 0.38,13.37 -0.18,16.35 -0.18,0.95 -0.8,2.96 -1.02,3.82 -0.22,0.88 -1.18,3.08 -1.4,3.78l-7.24 -0.76c-0.43,-0.91 -1.25,-2.91 -1.75,-3.88 -0.47,-0.91 -1.24,-2.77 -1.73,-3.64 -7.45,-13.34 7.98,-2.08 -9.49,-12.05 -50.2,0.45 -231.33,95.1 -281.33,124.32 -24.64,14.4 -135.49,79.04 -150.65,100.24 -8.13,3.48 -3.21,-0.74 -12.66,6.19 -13.32,9.78 -6.84,4.65 -12.41,12.61l-10.74 0.37c1.22,1.27 3.13,2.22 3.76,3.7 0.43,1.01 3.05,0.19 3.58,-0.13 0.77,-0.44 2.33,-2.58 3.4,-3.94 20.34,12.91 19.32,-0.78 25.07,-18.8 10.92,27.39 -20.12,4.35 7,38.33 4.28,-6.46 7.02,0.52 1.52,-23.54 14.09,21.78 13,14.64 -3.05,34.55 -1.94,-6.14 9.05,-9.06 -17.27,-23.54 3.42,31.67 15.22,15.43 4.74,39.12 9.71,-7.75 6.36,-1.8 17.51,-5.78zm-27.55 19.28l4.43 -1.58 -3.38 -33.7c-2.91,-19.44 -11.84,3.46 -0.49,-9.55l-21.84 15.75c8.69,5.52 -0.81,12.39 20.31,-4.74l-8.07 18.32c-1.57,23.88 -3.44,-3.73 2.39,6.66 22.95,40.91 -9.44,-35.79 6.65,8.84z"/>
   <path class="fil21" d="M61.51 1601.6c7.92,-26.14 8.29,-83.42 12.71,-114.59 5.44,-38.44 10.77,-75.87 18.47,-114.41 15.69,-78.54 38.34,-139.61 55.1,-211.25 -12.32,-18.88 -10.3,-2.71 -14.91,-27.65 -4.8,-25.96 5.41,-14.8 5.49,-14.8l0.26 10.55c-1.53,20 -6.92,4.74 10.91,24.01l-0.94 -36.32c-2.85,-15.14 -8.96,0.49 6.46,-22.78 0.71,-1.07 2.85,-1.98 3.41,-4.74 0.59,-2.91 2.6,-3.2 3.59,-5l-9.99 6.11c-1.38,0.95 -3.12,1.99 -4.56,3.07l-23.91 27.68c-0.34,-0.94 -1.5,2.54 -2.21,3.83 5.8,-25.74 -1.01,-5.78 15.47,-31.21l6.41 -9.48c-35.63,16.35 -12.92,-3.71 -25.69,18.99l-11.81 21.7 23.76 25.02c2.17,13.44 -0.38,17.45 -11.32,28.28 16.45,-17.81 4.22,-22.71 4.22,-23.02 -0.12,-20.21 1.1,22.49 1.14,-6.23 0,-1.1 -1.2,-12.61 -4.82,-19.44l-12.98 23.63c-0.41,-13.82 -1.31,-4.49 6.17,-18.79 -32.56,25.8 9.33,-14.18 -18.32,6.26 -28.53,90.89 -98.55,350.83 -82.4,443.46 3.07,14.75 1.79,14.18 3.1,28.74l1.14 20.22c10.85,3.69 5.3,-8.52 24.47,-0.6l-6.75 2.96c-6.03,5.95 -1.91,-7.37 -3.12,5.19 -0.88,9.18 2.22,11.18 10.46,22.59 14.34,-10.24 0.04,0.56 -0.97,-20.12 -0.8,-16.2 16.65,6.13 -1.68,-14.52 -14.63,-16.47 -20.18,11.46 -23.6,-28.02 17.45,6.06 3.47,1.44 13.13,19.39 4.31,-9.47 4.6,-9.67 5.67,-25.65l7.93 11.12c9.85,8.65 -6.37,9.32 5.55,2.46 11.26,-6.49 -2.31,0.81 5.32,-19.85 0.42,0.92 1.08,1.49 1.26,2.77l5.78 7.94c0.34,0.4 1.74,1.67 2.6,2.5zm-0.06 11.85l0 -5.07 0 5.07zm0 18.8l0 -11.34c-30.11,-11.83 -10.44,-0.34 -15.81,-0.15l-11.98 -0.45c19.49,12.98 4.64,7.59 27.79,11.94z"/>
   <path class="fil22" d="M1363.18 3287.17c-90.71,-19.22 -163.82,-41.01 -248.06,-72.6 -77.55,-29.09 -160.67,-73.27 -223,-101.2l35.21 25.64c-5.12,30.91 3.49,-6.97 -8.82,14.92l-12.91 14.33c-0.36,-1.02 -2.31,1.27 -3.34,2.08l9.86 8.77c10.84,8.63 -1.5,0.6 13.65,9.42 -7.77,-14.59 -12.06,-12.47 0.03,-31.21 9.48,-14.72 5.69,-11.07 16.41,-8.14 2.61,10.59 -5.01,19.26 -12.53,31.33l9.92 -21.78c0.31,-1.94 3.6,-2.29 3.66,-4.33l-7.31 -5.22c-6.38,10.75 -7.53,14.36 -14.89,25.06 9.71,15.51 3.94,10.57 15.08,25.67l12.54 6.26 12.62 6.17 12.54 6.26 10.49 6.05c102.58,43.77 248.61,104.37 372.87,120.73l5.69 -41.31c-0.01,-0.72 -0.29,-2.57 -0.31,-3.28 -0.17,-9.14 -5.41,0.12 0.6,-13.62zm25.34 64.47c-7.86,-11.8 11.34,-9.65 -12.53,-9.65 3.32,-10.33 0.4,-3.39 12.53,-12.53 -8.2,-3.32 -16.2,-6.75 -26.49,-11.1 3,21.04 5.56,8.86 -1.6,26.85l28.09 6.43zm31.34 -53.64l-8 -0.07c-7.9,12.09 -3.57,4.79 -16.65,9.3 -0.38,0.12 -1.94,0.71 -2.32,0.85l-4.66 2.18c-32.55,10.5 11.22,-11.18 -19.93,1.84 17.07,15.83 11.39,11.56 27.05,6.79 1.31,-0.4 5.01,-1.73 6.29,-2.4l6.24 -3.74c16.02,-13.25 3.78,-1.1 11.98,-14.75zm-31.34 -6.27l-6.85 0.17c-28.11,1.58 -13.44,2.24 -19.64,7.66 14.09,6.79 -2.02,7.01 14.27,4.32 13.17,-2.18 5.95,7.48 12.22,-12.15z"/>
   <path class="fil23" d="M3376.32 1536.16c-1.66,-91.17 -54.62,-355.85 -94.58,-423.99l-7.54 8.48c-5.34,6.01 -4.53,-11.37 -5.19,7.08 -0.86,23.8 4.59,6.18 5.61,6.74 7.26,3.96 19.23,-4.83 4.44,9.95 -9.1,-5.59 -17.66,-0.43 -20.48,-0.3 -0.37,0.02 -1.95,0.15 -2.31,0.12 -16.19,-1.14 -8.17,13.33 -12.18,-5.11 -0.25,-1.16 -1.74,-1.08 -2.62,-1.61 21.68,-21.37 -2.65,15.22 19.02,-9.39l12.94 -28.2c-0.45,9.38 -2.41,6.66 7.69,6.27l-5.65 -12.83 -1.29 -4.26 -8.07 -13.51c-11.31,57.58 15.33,21.42 -19.26,49.09 -1.17,0.94 -3.2,2.58 -4.19,3.37 -1.04,0.83 -3.52,4.89 -4.28,3.63 -0.78,-1.27 -3.03,2.36 -4.31,3.77 8.21,42.22 30.21,95.88 42.17,143.29 13.06,51.78 23.24,101.92 32.23,156.82 17.82,108.78 21.29,239.55 15.33,358.8 14.08,-57.23 4.16,-193.1 2.8,-249.25l8.22 -0.83c38.34,-3.5 -4.98,-22.01 13.48,-5.44 8.89,7.98 -0.69,13.31 -0.85,13.55 -0.12,0.18 -23.9,16.78 -3.34,18.08 7.31,0.46 3.48,-2.05 9.76,-10.38 7.69,-10.23 -0.93,-9.65 7.15,-3.02 19.77,16.22 -1.38,-5.97 0.06,6.5 1.22,10.54 9.42,-6.62 2.66,16.23 8.59,-8.89 5.45,-11.2 3.79,-20.85 -0.1,-0.57 -0.67,-2.45 -0.76,-2.97 -0.08,-0.46 -0.57,-2.21 -0.63,-2.61 -0.05,-0.32 -0.32,-1.85 -0.36,-2.13l-1.2 -7.87c-10.74,-15.76 2.36,9.88 -9.31,-11.9 -0.71,-1.34 -2.73,-6.07 -3.02,-7.22 -4.12,-17.07 -8.97,0.02 1.31,-6.33 29.68,-18.35 -1.42,-2.02 2.89,0.89 6.53,4.4 3.52,9.74 19.87,17.34z"/>
   <path class="fil24" d="M3090.37 742.4c-20.69,-56.15 -218.74,-281.46 -273.95,-315.64 -2.21,3.13 -17.87,22.87 -18.29,23.55 -11.14,17.97 -5.33,0.03 -10,25.86l6.8 5.73 6.26 6.27 6.27 6.27 6.26 6.26 7.1 4.82 7.38 5.77 6.27 6.27 6.48 6.04 6.26 6.27 6.06 6.48 6.48 6.05 6.05 6.48 5.94 6.6 6.09 7.05 4.82 7.1 6.26 6.26 6.27 6.27 6.27 6.27 4.97 4.95c13.65,20.19 29.58,32.82 43.75,49.78 11.52,13.78 21.95,28.03 37.57,46.92 24.71,29.89 53.79,80.38 77.07,105.11 -2.83,-20.92 2.36,-11.58 -12.46,-19.31 19.15,-27.56 9.29,-3.67 15.82,-13.97 2.16,-3.39 -0.66,-7.95 3.48,-19.77l6.2 13.81c-2.96,21.64 -4.45,7.72 1.97,17.51 -8.26,4.64 1.27,14.84 -13.48,-5.31 -14.61,10.44 -6.74,0.44 11.58,24.11 5.62,-18.64 6.15,-35.91 12.45,-49.86zm8.19 9.34l0.39 0.54c-18.5,19.02 4.89,27.71 -19.13,48.15l3.64 5.09c1.37,-0.08 3.22,-2.19 3.4,-1.37 0.16,0.77 2.23,-0.64 2.44,-0.76 17.37,-11.05 -11.47,16.64 3.5,-2.18l5.76 -49.47z"/>
   <path class="fil25" d="M3266.11 1075.6c-11.25,-61.03 -100.83,-225.68 -141.94,-289.75l-25.61 -34.11 -5.76 49.47c-14.97,18.82 13.87,-8.87 -3.5,2.18 -0.21,0.12 -2.28,1.53 -2.44,0.76 -0.18,-0.82 -2.03,1.29 -3.4,1.37l-3.64 -5.09c24.02,-20.44 0.63,-29.13 19.13,-48.15 -1.79,-12.14 2,-9.88 -8.58,-9.88 -6.3,13.95 -6.83,31.22 -12.45,49.86 -18.32,-23.67 -26.19,-13.67 -11.58,-24.11 14.75,20.15 5.22,9.95 13.48,5.31 -6.42,-9.79 -4.93,4.13 -1.97,-17.51l-6.2 -13.81c-4.14,11.82 -1.32,16.38 -3.48,19.77 -6.53,10.3 3.33,-13.59 -15.82,13.97 14.82,7.73 9.63,-1.61 12.46,19.31l89.91 159.98c15.67,31.31 24.69,54.24 39.79,85.92 8.7,18.23 11.8,26.14 18.87,44.22l20.69 50.15c1.28,-1.41 3.53,-5.04 4.31,-3.77 0.76,1.26 3.24,-2.8 4.28,-3.63 0.99,-0.79 3.02,-2.43 4.19,-3.37 34.59,-27.67 7.95,8.49 19.26,-49.09zm15.63 36.57l-0.62 -5.97c-10.1,0.39 -8.14,3.11 -7.69,-6.27l-12.94 28.2c-21.67,24.61 2.66,-11.98 -19.02,9.39 0.88,0.53 2.37,0.45 2.62,1.61 4.01,18.44 -4.01,3.97 12.18,5.11 0.36,0.03 1.94,-0.1 2.31,-0.12 2.82,-0.13 11.38,-5.29 20.48,0.3 14.79,-14.78 2.82,-5.99 -4.44,-9.95 -1.02,-0.56 -6.47,17.06 -5.61,-6.74 0.66,-18.45 -0.15,-1.07 5.19,-7.08l7.54 -8.48zm-6.27 -18.8l-1.29 -4.26 1.29 4.26z"/>
   <path class="fil26" d="M147.79 1161.35c15.35,-31.52 23.62,-64.62 37.54,-97.17 15.15,-35.43 32.4,-67.14 45.03,-96.15 29.79,-68.41 75.7,-137.37 103.06,-187.31l-10.84 8.51c-0.74,0.61 -2.35,1.77 -3.04,2.37l-8.85 11.96c-0.31,0.96 -0.44,7.3 -0.4,9.39 -10.51,-21.5 -6.95,-21.79 -32.26,-26l26.12 -0.54c0.67,0.21 14.35,3.68 22.11,-15.97l4.75 -17.66c-1.49,0.92 -3.33,2.48 -4.1,3.29 -14.62,15.09 -11.17,20.92 -11.17,20.92 -0.1,-0.79 0.24,2.51 -0.11,3.7 -1.22,-1.05 -3.12,-2.42 -3.78,-3.01 -25.86,-22.76 -6.36,-8.2 -5.32,-15.88 0.11,-0.81 0.01,-3.91 -0.21,-4.85 -0.21,-0.86 -3.37,-4.17 -3.63,-6.69 -0.2,-1.94 -1.49,-2.6 -2.44,-3.75l-5.15 13.11c-0.22,0.97 -0.58,2.99 -0.7,3.93 -0.12,0.83 -0.12,2.79 -0.15,3.54l2.03 9.31c0.02,-0.4 0.85,1.02 0.55,1.44 -1.2,-0.68 -3.03,-1.51 -3.75,-1.76 -0.88,-0.31 -3.88,-1.35 -4.78,-1.65l-13.21 -2.96c3.68,11.5 6.5,9.99 -4.98,7.49 8.83,11.87 4.68,5.58 12.13,14.67l6.41 7.38c6.62,5.37 8.17,0.81 20.95,15.79 -21.55,7.62 -7.41,0.65 -12.98,-4.99 -0.2,-0.21 -16.35,-16.17 -27.82,-24.96 3.72,16.42 7.26,12.61 -9.2,12.61 -23.16,14.86 -71.74,125.92 -90.8,161.34 -25.66,47.69 -58.89,125.65 -75.18,180.22 27.65,-20.44 -14.24,19.54 18.32,-6.26 -7.48,14.3 -6.58,4.97 -6.17,18.79l12.98 -23.63c3.62,6.83 4.82,18.34 4.82,19.44 -0.04,28.72 -1.26,-13.98 -1.14,6.23 0,0.31 12.23,5.21 -4.22,23.02 10.94,-10.83 13.49,-14.84 11.32,-28.28l-23.76 -25.02 11.81 -21.7c12.77,-22.7 -9.94,-2.64 25.69,-18.99l-6.41 9.48c-16.48,25.43 -9.67,5.47 -15.47,31.21 0.71,-1.29 1.87,-4.77 2.21,-3.83l23.91 -27.68c1.44,-1.08 3.18,-2.12 4.56,-3.07l9.99 -6.11c-0.99,1.8 -3,2.09 -3.59,5 -0.56,2.76 -2.7,3.67 -3.41,4.74 -15.42,23.27 -9.31,7.64 -6.46,22.78l0.94 36.32c-17.83,-19.27 -12.44,-4.01 -10.91,-24.01l-0.26 -10.55c-0.08,0 -10.29,-11.16 -5.49,14.8 4.61,24.94 2.59,8.77 14.91,27.65z"/>
   <path class="fil27" d="M3368.96 1919.68c11.34,-88.65 29.25,-300.63 7.36,-383.52 -16.35,-7.6 -13.34,-12.94 -19.87,-17.34 -4.31,-2.91 26.79,-19.24 -2.89,-0.89 -10.28,6.35 -5.43,-10.74 -1.31,6.33 0.29,1.15 2.31,5.88 3.02,7.22 11.67,21.78 -1.43,-3.86 9.31,11.9l1.2 7.87c0.04,0.28 0.31,1.81 0.36,2.13 0.06,0.4 0.55,2.15 0.63,2.61 0.09,0.52 0.66,2.4 0.76,2.97 1.66,9.65 4.8,11.96 -3.79,20.85 6.76,-22.85 -1.44,-5.69 -2.66,-16.23 -1.44,-12.47 19.71,9.72 -0.06,-6.5 -8.08,-6.63 0.54,-7.21 -7.15,3.02 -6.28,8.33 -2.45,10.84 -9.76,10.38 -20.56,-1.3 3.22,-17.9 3.34,-18.08 0.16,-0.24 9.74,-5.57 0.85,-13.55 -18.46,-16.57 24.86,1.94 -13.48,5.44l-8.22 0.83c1.36,56.15 11.28,192.02 -2.8,249.25l-10.08 100.24c13.45,-9.93 1.92,11.46 14.39,-18.8 12.13,12.13 7.15,5.41 5.95,12.27 -1.72,9.86 -20.7,8.94 -3.16,45.53l-5.71 2.66c-10.32,9.26 3.63,-16.5 -2.83,2.64 -0.07,0.21 -6.32,9.43 4.61,1.83 12.67,-8.82 2.02,-12.2 1.14,-39.86 1.08,1.27 2.56,1.76 3.05,3.94 4.51,20.75 35.27,2.47 6,42.71 5.97,8.34 1.05,4.06 13.68,-8.23 9.32,-9.08 9.15,5.65 7.31,-10.67 -1.68,-14.87 -12.1,-16.86 -23.78,-32.62 3.65,-1.28 5.6,5.31 16.1,-6.36l5.97 11.51c-0.07,0.5 -0.68,2.1 -0.77,2.52 -1.05,4.65 -22.72,-2.76 13.29,16zm-54.35 -9.31l-6.43 21.84c10.13,-6.86 9.88,17 6.43,-21.84z"/>
   <path class="fil28" d="M2293.61 3268.4l26.71 -9.77c-6.72,-33.05 2.54,-2.79 -11.76,-6.98 -16.86,-4.92 4.53,12.81 -9.65,-5.69 -12.82,-16.74 -7.78,-26.76 -4.35,-35.2 -14.15,19.23 -8.48,9.94 -0.14,34.26 17.16,50.12 -3.34,-16.09 -0.81,23.38zm5.45 -64.93l-2.74 2.16c4.14,8.88 0.53,8.42 2.74,-2.16zm26.43 53.68c40.76,-13.24 87.84,-36.29 123.92,-54.32 29.66,-14.83 84.94,-43.49 106.76,-60.07 0,-10.26 -2.04,-6.66 10.19,-6.28l8.07 -2.56 1.85 -15.4c14.21,9.96 7.28,4.56 17.71,3.19 -4.96,-5.64 -8.88,-9.99 -11.97,-12.46l-8.87 -4.54c-7.07,-2.94 -0.8,24.06 -7.44,-4.37 -3.42,-14.59 9.48,-28.73 14.06,-34.49 8.4,7.12 2.19,3.77 4.16,7.35l18.74 25.85c-18.18,5.11 -2.75,6.17 -13.26,-2.29 -0.27,-0.22 -1.14,-1.58 -1.37,-1.83 -0.24,-0.26 -1.02,-1.75 -1.25,-2.04l-16.28 -5.6c-0.44,0.22 -2.43,3.54 -2.75,2.5 -0.36,-1.11 -2.01,1.84 -2.69,3l10.35 5.42c0.65,0.4 2.16,1.55 2.87,1.97 27.91,16.89 16.22,10.75 28.47,9.23 6.84,-34.34 -31.02,-25.88 -5.63,-55.16 10.52,-12.14 1.93,5.89 16.7,-17.67 -86,57.88 -177.32,102.55 -290.18,156.52l-25.75 18.74c9.94,13.91 2.44,5.78 16.86,-3.21l6.36 -3.22c0.96,-0.51 2.74,-1.25 3.75,-1.76 1.13,-0.59 3.11,-1.54 4.19,-2.11 1.46,-0.74 7.48,-4.02 9.28,-5.07 -0.97,1.67 -2.81,2.08 -3.2,4.84 -0.43,2.96 -4.64,7.69 -5.06,9.03 -3.9,12.53 -8.46,-4.54 -0.77,9.95 3.58,6.74 11.52,6.01 21.57,1.24 -9.34,16.55 -1.54,11.54 -24.48,24.48 9.51,-20.07 6.17,-4.13 1.32,-16.77 -9.69,-25.25 19,20.05 -4.32,-6.39 -3.01,-3.4 -7.96,-5.11 -8.82,-5.41 -0.29,-0.1 -1.94,-0.34 -2.14,-0.34 -0.12,0 -1.15,0.36 -1.21,0.41 -15.07,13.5 17.49,0.17 5.47,19.39 -0.81,-0.37 -2.34,-1.55 -2.55,-0.79 -0.06,0.21 -8.77,-1.44 -16.25,-18l-3.54 1.15c-2.97,8.23 10.92,9.99 3.54,23.91 1.95,0.66 13.55,-5.66 19.27,1.28 6.48,7.88 3.59,-9.15 4.32,12.7z"/>
   <path class="fil29" d="M1203.03 126.2c34.85,-1.25 79.54,-18.99 116.48,-27.55 39.24,-9.09 85.36,-19.21 126.2,-23.59 -2.7,-6.66 -10.94,-27.23 -11.15,-31.11 -1.31,-24.89 -9.43,29.67 12.02,-10.13l-15.06 -11.17 18.63 6.26 -8.9 31.21 29.65 2.25c21.26,0.35 -15.36,-2.44 12.41,-0.03 -16.59,-13.04 -20.9,0.79 -25.73,-26.79 -0.11,-0.65 -0.52,-2.51 -0.56,-3.13l7.24 -14.96c7.4,1.18 1.81,3.69 17.1,1.22 15.77,-2.55 7.2,-2.2 15.49,-8.21l-32.59 6.99c-14.96,-0.94 -0.41,-4 -20.13,-0.15 -19.64,3.83 -9.01,3.18 -12.61,5.34 -54.11,-4.1 -262.63,47.67 -296.16,75.33 17.47,9.97 2.04,-1.29 9.49,12.05 0.49,0.87 1.26,2.73 1.73,3.64 0.5,0.97 1.32,2.97 1.75,3.88l7.24 0.76c0.22,-0.7 1.18,-2.9 1.4,-3.78 0.22,-0.86 0.84,-2.87 1.02,-3.82 0.56,-2.98 0.36,-13.3 0.18,-16.35 7.96,48.16 12.57,-5.6 19.23,31.33 -5.67,5.66 2.73,-23.52 -31.5,7.28 -1.01,0.91 -4.48,3.93 -6.1,5.25 19.63,3.1 27.81,-4.51 63.23,-12.02z"/>
   <path class="fil30" d="M2088.07 3328.78c36.37,1.62 175.64,-42.28 205.54,-60.38 -2.53,-39.47 17.97,26.74 0.81,-23.38 -8.34,-24.32 -14.01,-15.03 0.14,-34.26 -3.43,8.44 -8.47,18.46 4.35,35.2 14.18,18.5 -7.21,0.77 9.65,5.69 14.3,4.19 5.04,-26.07 11.76,6.98l5.17 -1.48c-0.73,-21.85 2.16,-4.82 -4.32,-12.7 -5.72,-6.94 -17.32,-0.62 -19.27,-1.28 7.38,-13.92 -6.51,-15.68 -3.54,-23.91l3.54 -1.15c7.48,16.56 16.19,18.21 16.25,18 0.21,-0.76 1.74,0.42 2.55,0.79 12.02,-19.22 -20.54,-5.89 -5.47,-19.39 0.06,-0.05 1.09,-0.41 1.21,-0.41 0.2,0 1.85,0.24 2.14,0.34 0.86,0.3 5.81,2.01 8.82,5.41 23.32,26.44 -5.37,-18.86 4.32,6.39 4.85,12.64 8.19,-3.3 -1.32,16.77 22.94,-12.94 15.14,-7.93 24.48,-24.48 -10.05,4.77 -17.99,5.5 -21.57,-1.24 -7.69,-14.49 -3.13,2.58 0.77,-9.95 0.42,-1.34 4.63,-6.07 5.06,-9.03 0.39,-2.76 2.23,-3.17 3.2,-4.84 -1.8,1.05 -7.82,4.33 -9.28,5.07 -1.08,0.57 -3.06,1.52 -4.19,2.11 -1.01,0.51 -2.79,1.25 -3.75,1.76l-6.36 3.22c-14.42,8.99 -6.92,17.12 -16.86,3.21l25.75 -18.74c-16.89,7.05 -14.76,6.56 -28.59,10.37 -2.21,10.58 1.4,11.04 -2.74,2.16 -53.26,24.35 -154.2,57.33 -216.73,67.73 8.97,19.38 3.12,18.21 18.8,41.99 -14.44,-16.57 -0.93,-11.43 -18.8,-12.53 -1.31,15.46 -9.05,2.01 6.27,18.8 -19.56,-14.64 -7.54,-15.98 -18.8,3l21.01 4.16zm-18.86 -50.62l-8.41 0.01c8.95,22.11 9.14,16.45 3,33.93l-6.41 -23.07c-0.56,-1.2 -1.6,-3.56 -2.86,-5.01 0.95,41.74 0.8,13.36 -12.53,0.35 3.17,31.85 7.96,25.24 -6.27,30.98 15.09,11.32 -2.99,8.67 11.55,4.88 10.1,-2.64 3.6,-1.67 10.25,-8.13l-4.9 8.39c-6.46,23.46 -15.83,-0.82 1.65,16.39l8.28 -14.39c17.82,-26.99 31.02,-32.3 6.65,-44.33zm-2.4 61.39c-6.8,-11.9 1.3,-18.41 -10.38,0.3l10.38 -0.3z"/>
   <path class="fil18" d="M1625.69 1594.75l6.27 6.26c11.97,-3.87 10.37,-6.27 6.34,5.63 11.77,-4.74 9.59,-6.92 7.38,5.5 14.56,-3.94 10.81,-6.61 10.81,8.62 10.95,17.43 36.32,8.03 49.99,-0.19 5.19,-3.11 15.79,-13.34 19.96,-18.16 11.95,-13.81 8.54,-8.15 13.96,-21.53 -10.54,-39.36 6.79,15.97 1.47,-16.5 -0.11,-0.61 -0.6,-2.54 -0.72,-3.21 -0.13,-0.74 -0.58,-2.72 -0.7,-3.5 -3.04,-18.49 -2.03,-35.98 -10.51,-50.93 -15.36,-27.06 -36.36,-14.32 -18.26,-29.34l17.84 15.41c-10.39,-12.25 -10.69,-14.5 -24.52,-20 -1.07,-0.42 -3.93,-1.2 -4.89,-1.41 -22.13,-5.04 -24.29,9.5 -35.94,17.25 -6.64,4.42 -6.55,3.08 -8.01,5.66 -9.81,17.27 0.69,3.49 0.69,4.03l-9.29 12.96c-13.89,20.93 -16.96,63.14 -21.87,83.45z"/>
   <path class="fil18" d="M1846.49 1773.1l-18.23 7.7c-43.54,4.36 -40.75,65.05 -21.19,102.71 29.26,29.68 50.4,12.69 55.95,11.69l12.87 -0.45c2.09,-0.09 26.8,1.7 34.57,-13.72 0.13,-0.26 6.56,-18.67 7.06,-20.45 -4.06,5.72 -16.47,19.56 -22.9,29.16 -20.54,-17.43 -5.3,2.92 9.34,-28.16 0.21,-0.44 0.65,-2.11 0.85,-2.51l10.3 -11.01c0.32,-0.29 1.8,-1.29 2.41,-2.17 -18.97,-7.59 -5.04,0.51 -9.46,-11.73l-4.53 -14.09c-5.27,-9.36 -7.43,-12.9 -17.38,-18.48l-31.1 -18.52c-10.34,-5.67 -5.66,5.56 -8.56,-9.97z"/>
   <path class="fil8" d="M2742.43 3020.58l10.71 -8.74c26.93,-24.37 21.86,-11.46 36.47,-31.25l-37.66 29.84c-1.06,1.15 -2.16,15.8 -6.26,6.75 -0.47,-1.05 -2.16,2.26 -3.26,3.4z"/>
  </g>
 </g>
</svg>
