<?xml version="1.0" encoding="UTF-8"?>
<!DOCTYPE svg PUBLIC "-//W3C//DTD SVG 1.1//EN" "http://www.w3.org/Graphics/SVG/1.1/DTD/svg11.dtd">
<!-- Creator: CorelDRAW -->
<svg xmlns="http://www.w3.org/2000/svg" xml:space="preserve" width="29.903mm" height="33.8667mm" version="1.1" style="shape-rendering:geometricPrecision; text-rendering:geometricPrecision; image-rendering:optimizeQuality; fill-rule:evenodd; clip-rule:evenodd"
viewBox="0 0 2990.3 3386.67"
 xmlns:xlink="http://www.w3.org/1999/xlink"
 xmlns:xodm="http://www.corel.com/coreldraw/odm/2003">
 <defs>
  <style type="text/css">
   <![CDATA[
    .fil4 {fill:#E24D25}
    .fil0 {fill:#E34E26}
    .fil2 {fill:#EBEAEA}
    .fil1 {fill:#EE6529}
    .fil3 {fill:#FEFEFE}
   ]]>
  </style>
 </defs>
 <g id="Layer_x0020_1">
  <metadata id="CorelCorpID_0Corel-Layer"/>
  <g id="_2690565790608">
   <path class="fil0" d="M1494.65 2742.65l-387.6 -106.86c-61.88,-18.36 -128.87,-35.18 -191.14,-52.55 -41.25,-11.5 -159.75,-39.64 -189.16,-56.61l-51.86 -597.32 374.68 0.11 28.36 309.19c33.53,15.9 379.3,108.86 406.74,107.45 18.32,-8.58 9.33,1.29 11.39,-22.17l-1.15 -567.84c-173.74,-0.1 -347.48,-0.01 -521.21,-0.01 -358.28,0 -314.41,23.87 -321.91,-66.49 -12.97,-156.19 -98.98,-1016.19 -91.53,-1065.98l935.08 -0.06 0.35 -374.06 1221.3 0.02 -232.37 2607.64 -989.25 272.04 -0.72 -386.5zm-303.86 563.91c390.98,104.26 214.09,110.02 613.46,-2.02 128.13,-35.95 857.27,-231.08 913.56,-254.51l272.48 -3050.03 -2990.28 0.28 272.63 3050 918.15 256.28z"/>
   <path class="fil1" d="M1495.34 623.51c290.94,-1.9 597.24,4.09 885.8,-0.49 36.93,-0.59 38.41,-1.14 50.35,10.67l-31.19 352.97c-12.37,17.03 1.09,5.88 -19.65,11.71l-338.98 0.69c-346.4,0 -738.86,-8.32 -1074.12,-0.46 0.15,20.42 -0.09,52.38 8.95,65.32 7.36,-27.61 3.15,-31.83 -4.87,-59.08l523.4 1.16 0.84 368.13c-69.32,2.84 -456.82,10.31 -495.26,-5.36 9.42,13.7 -13.05,9.58 17.07,12.5 51.55,2.49 1311.93,-11.34 1347.31,4.9l-102.81 1145.07c-122.58,26 -255.77,71.39 -379.82,104.77 -69.32,18.66 -326.05,99.41 -377.04,99.36l-10.67 7.28 0.72 386.5 989.25 -272.04 232.37 -2607.64 -1221.3 -0.02 -0.35 374.06z"/>
   <path class="fil2" d="M1494.91 1756.05l462.94 0.22c-24.57,-19.99 -200.59,-10.57 -230.28,-10.57 -77.34,0 -157.67,0.19 -233.21,-0.04l0.51 -358.65 870.12 -0.84c-35.38,-16.24 -1295.76,-2.41 -1347.31,-4.9 -30.12,-2.92 -7.65,1.2 -17.07,-12.5 -8.34,-47.27 -29.12,-262.68 -24.11,-304.85 -9.04,-12.94 -8.8,-44.9 -8.95,-65.32 335.26,-7.86 727.72,0.46 1074.12,0.46l338.98 -0.69c20.74,-5.83 7.28,5.32 19.65,-11.71 -49.73,19.63 -374.31,7.19 -452.86,7.19 -137.89,0 -320.01,10.19 -452.52,-1.59l-0.56 -358.57 937.13 0c-11.94,-11.81 -13.42,-11.26 -50.35,-10.67 -288.56,4.58 -594.86,-1.41 -885.8,0.49l-935.08 0.06c-7.45,49.79 78.56,909.79 91.53,1065.98 7.5,90.36 -36.37,66.49 321.91,66.49 173.73,0 347.47,-0.09 521.21,0.01z"/>
   <path class="fil3" d="M1957.85 1756.27l-44.86 479.42c-2.54,0.94 -4.65,0.68 -5.36,2.73 -0.71,2.04 -3.16,2.21 -4.16,2.71 -26.15,13.3 -395.11,109.11 -408.02,111.81l-1.15 348.37c0,30.41 -6.02,26.07 11.02,34.06 50.99,0.05 307.72,-80.7 377.04,-99.36 124.05,-33.38 257.24,-78.77 379.82,-104.77l102.81 -1145.07 -870.12 0.84 -0.51 358.65c75.54,0.23 155.87,0.04 233.21,0.04 29.69,0 205.71,-9.42 230.28,10.57z"/>
   <path class="fil2" d="M1494.65 2742.65l10.67 -7.28c-17.04,-7.99 -11.02,-3.65 -11.02,-34.06l1.15 -348.37 -10.78 -6.88c-27.44,1.41 -373.21,-91.55 -406.74,-107.45l-28.36 -309.19 -374.68 -0.11 51.86 597.32c29.41,16.97 147.91,45.11 189.16,56.61 62.27,17.37 129.26,34.19 191.14,52.55l387.6 106.86z"/>
   <path class="fil3" d="M2400.3 986.66l31.19 -352.97 -937.13 0 0.56 358.57c132.51,11.78 314.63,1.59 452.52,1.59 78.55,0 403.13,12.44 452.86,-7.19z"/>
   <path class="fil1" d="M1484.67 2346.06l10.78 6.88c12.91,-2.7 381.87,-98.51 408.02,-111.81 1,-0.5 3.45,-0.67 4.16,-2.71 0.71,-2.05 2.82,-1.79 5.36,-2.73l44.86 -479.42 -462.94 -0.22 1.15 567.84c-2.06,23.46 6.93,13.59 -11.39,22.17z"/>
   <path class="fil4" d="M976.5 1063.92c-5.01,42.17 15.77,257.58 24.11,304.85 38.44,15.67 425.94,8.2 495.26,5.36l-0.84 -368.13 -523.4 -1.16c8.02,27.25 12.23,31.47 4.87,59.08z"/>
  </g>
 </g>
</svg>
