<?xml version="1.0" encoding="UTF-8"?>
<!DOCTYPE svg PUBLIC "-//W3C//DTD SVG 1.1//EN" "http://www.w3.org/Graphics/SVG/1.1/DTD/svg11.dtd">
<!-- Creator: CorelDRAW -->
<svg xmlns="http://www.w3.org/2000/svg" xml:space="preserve" width="33.8668mm" height="33.8668mm" version="1.1" style="shape-rendering:geometricPrecision; text-rendering:geometricPrecision; image-rendering:optimizeQuality; fill-rule:evenodd; clip-rule:evenodd"
viewBox="0 0 3386.68 3386.68"
 xmlns:xlink="http://www.w3.org/1999/xlink"
 xmlns:xodm="http://www.corel.com/coreldraw/odm/2003">
 <defs>
  <style type="text/css">
   <![CDATA[
    .fil1 {fill:black}
    .fil0 {fill:#F7DF1D}
    .fil2 {fill:#F7E33D}
   ]]>
  </style>
 </defs>
 <g id="Layer_x0020_1">
  <metadata id="CorelCorpID_0Corel-Layer"/>
  <g id="_2690199425040">
   <path class="fil0" d="M895.24 2828.51l251.65 -154.18c40.59,50.12 43,83.55 101.95,128.32 45.53,34.58 117.96,44.72 183.48,21.87 118.15,-41.2 92.57,-224.65 92.57,-359.77 0,-299.28 -8.37,-610.62 0.49,-908.4l316.97 -1.27c7.17,228.88 0.51,467.68 0.51,696.44 0,196.95 24.9,486.7 -54.25,647.22 -119.84,243.01 -504.09,290.85 -737.94,127.17 -40.42,-28.29 -144.61,-130.57 -155.43,-197.4zm1880.38 -880.72c-38.3,-125.17 -221.63,-177.1 -308.47,-95.28 -44.48,41.91 -61.91,120 -18.07,182.58 28.77,41.07 87.26,71.37 146.83,97.83 234,103.95 478.75,185.26 519.56,458.06 47.08,314.7 -156.8,496.82 -438.12,525.1 -147.57,14.84 -303.13,-11.42 -416.39,-71.19 -95.59,-50.44 -201.73,-146.59 -242.45,-247.74l257.01 -152.25c184.18,333.07 641.48,180.84 507.91,-40.99 -45.85,-76.15 -205.64,-130.1 -307.99,-174.88 -130.03,-56.9 -212.69,-111.08 -282.5,-200.46 -132.63,-169.79 -127.42,-514.4 160.12,-646.85 161.93,-74.58 436.56,-59.89 566.67,70.52 25.3,25.37 97.32,95.28 103.92,141.45 -39.99,28.3 -212.6,143.64 -248.03,154.1zm-2769.16 1432.62l3367.68 -0.19 6.08 -3373.95 -31.17 0.19 -3336.51 0 -6.08 3373.95z"/>
   <path class="fil1" d="M2775.62 1947.79c35.43,-10.46 208.04,-125.8 248.03,-154.1 -6.6,-46.17 -78.62,-116.08 -103.92,-141.45 -130.11,-130.41 -404.74,-145.1 -566.67,-70.52 -287.54,132.45 -292.75,477.06 -160.12,646.85 69.81,89.38 152.47,143.56 282.5,200.46 102.35,44.78 262.14,98.73 307.99,174.88 133.57,221.83 -323.73,374.06 -507.91,40.99l-257.01 152.25c40.72,101.15 146.86,197.3 242.45,247.74 113.26,59.77 268.82,86.03 416.39,71.19 281.32,-28.28 485.2,-210.4 438.12,-525.1 -40.81,-272.8 -285.56,-354.11 -519.56,-458.06 -59.57,-26.46 -118.06,-56.76 -146.83,-97.83 -43.84,-62.58 -26.41,-140.67 18.07,-182.58 86.84,-81.82 270.17,-29.89 308.47,95.28z"/>
   <path class="fil1" d="M895.24 2828.51c10.82,66.83 115.01,169.11 155.43,197.4 233.85,163.68 618.1,115.84 737.94,-127.17 79.15,-160.52 54.25,-450.27 54.25,-647.22 0,-228.76 6.66,-467.56 -0.51,-696.44l-316.97 1.27c-8.86,297.78 -0.49,609.12 -0.49,908.4 0,135.12 25.58,318.57 -92.57,359.77 -65.52,22.85 -137.95,12.71 -183.48,-21.87 -58.95,-44.77 -61.36,-78.2 -101.95,-128.32l-251.65 154.18z"/>
   <path class="fil2" d="M12.54 6.46l3336.51 0 31.17 -0.19 -6.08 3373.95 -3367.68 0.19 6.08 -3373.95zm-12.54 3379.36l12.54 0.86 3374.14 -0.86 0 -3384.96 -12.54 -0.86 -3374.14 0.86 0 3384.96z"/>
  </g>
 </g>
</svg>
