<?xml version="1.0" encoding="UTF-8"?>
<!DOCTYPE svg PUBLIC "-//W3C//DTD SVG 1.1//EN" "http://www.w3.org/Graphics/SVG/1.1/DTD/svg11.dtd">
<!-- Creator: CorelDRAW -->
<svg xmlns="http://www.w3.org/2000/svg" xml:space="preserve" width="33.8668mm" height="33.2764mm" version="1.1" style="shape-rendering:geometricPrecision; text-rendering:geometricPrecision; image-rendering:optimizeQuality; fill-rule:evenodd; clip-rule:evenodd"
viewBox="0 0 3386.68 3327.64"
 xmlns:xlink="http://www.w3.org/1999/xlink"
 xmlns:xodm="http://www.corel.com/coreldraw/odm/2003">
 <defs>
  <style type="text/css">
   <![CDATA[
    .fil0 {fill:#00546B}
   ]]>
  </style>
 </defs>
 <g id="Layer_x0020_1">
  <metadata id="CorelCorpID_0Corel-Layer"/>
  <g id="_2690409927296">
   <path class="fil0" d="M950.58 1778.84c-20.81,15.63 -49.7,57.15 -66.02,77.34 -146.54,181.25 -65.47,453.52 -140.55,423.84 -146.52,-57.93 -221.31,-537.48 -119.2,-796.62 108.49,-275.35 31.77,-200.4 -76.62,-384.93 -74.89,-127.49 -103.12,-275.78 -158.51,-419.48 -56.1,-145.59 -142.75,-244.62 -223.61,-348.44 -28.52,-36.62 -105.89,-154.1 -36.25,-197.08 59.74,-36.86 162.65,18.46 217.26,41.21 301.73,125.67 131.12,160.36 395.71,177.59 111.71,7.26 142.45,7.28 240.14,47.48 231.07,95.11 389.03,215.99 560.99,375.34 13.79,12.77 22.24,20.58 35.34,33.84l71.24 73.24c132.73,162.29 255.28,310.25 337.37,523.85 53.47,139.14 119.14,262.85 179.9,398.01 177.55,394.98 139.11,321.77 431.86,429.07 171.62,62.92 219.6,111.17 365.26,212.95 44.54,31.12 142.26,79.51 152.79,128.24 -166.71,2.64 -275.57,1.66 -431.39,59.13 -94.13,34.73 -154.59,19.32 -49.15,171.8 68.69,99.33 190.87,186.97 302.24,244.55 239.82,124 127.69,47.47 346.76,199.91 64.66,44.99 66.32,65.28 100.54,77.96 -26.57,-94.58 -76.79,-110.2 -125.64,-172.23 -104.13,-132.21 -187.8,-188.02 -330.52,-272.82 -71.07,-42.22 -123.91,-74.15 -155.24,-142.19 69.62,-20.06 175.65,-46.66 247.34,-54.77 80.27,-9.1 175.96,-21.98 246.34,-53.68 4.32,-32.52 -9,-31.55 -48.62,-83.15 -53.24,-69.33 -70.65,-79.01 -132.72,-131.26 -174.64,-147.01 -346.85,-263.5 -569.2,-348.42 -48.29,-18.44 -56.93,-14.73 -82.01,-49.85 -36.4,-50.98 -190.29,-376.54 -216.69,-436.82 -136.48,-311.63 -152.61,-402.19 -372.49,-676.99 -146.89,-183.58 -331,-349.12 -552.95,-490.27 -127.95,-81.37 -186.56,-122.51 -362.82,-165.08 -92.85,-22.42 -151,-12.69 -238.21,-26.47 -38.58,-6.09 -82.02,-62.7 -153.09,-103.82 -502.03,-290.44 -611.9,13.66 -500.45,211.4 33.22,58.93 71.73,101.82 111.14,152.81 159.49,206.36 99.82,140.62 176.8,350.88 23.52,64.25 43.1,127.04 69.39,188.43 27.13,63.33 57.19,119.07 90.25,173.72 67.66,111.83 104.87,66.78 68.51,154.6 -40.38,97.56 -81.33,327 -81.32,444.49 0.05,541 320.17,729.89 416.79,550.58 34.55,-64.11 35.51,-256.23 65.38,-292.17 29.68,56.09 67.74,149.8 100.78,199.97 58.59,88.94 133.56,164.21 213.17,233.13 29.8,25.79 49.19,42.52 82.16,68.53 39.18,30.9 113.22,120.85 162.89,132.26 -14.24,-22.78 -26.03,-27.37 -49.12,-44.9 -116.83,-88.75 -341.57,-469.71 -406.95,-611.07 -17.07,-36.89 -100.44,-244 -109,-253.64z"/>
   <path class="fil0" d="M676.44 580.27c12.16,45.23 54.66,53.48 97.27,148.1 4.62,10.27 8.21,19.1 13.74,30.04l18.26 28.25c90.55,-67.19 43.71,-172.93 -31.09,-210.16 -28.61,-14.25 -67.2,-3.08 -98.18,3.77z"/>
  </g>
 </g>
</svg>
