<?xml version="1.0" encoding="UTF-8"?>
<!DOCTYPE svg PUBLIC "-//W3C//DTD SVG 1.1//EN" "http://www.w3.org/Graphics/SVG/1.1/DTD/svg11.dtd">
<!-- Creator: CorelDRAW -->
<svg xmlns="http://www.w3.org/2000/svg" xml:space="preserve" width="33.8668mm" height="33.0961mm" version="1.1" style="shape-rendering:geometricPrecision; text-rendering:geometricPrecision; image-rendering:optimizeQuality; fill-rule:evenodd; clip-rule:evenodd"
viewBox="0 0 3386.68 3309.61"
 xmlns:xlink="http://www.w3.org/1999/xlink"
 xmlns:xodm="http://www.corel.com/coreldraw/odm/2003">
 <defs>
  <style type="text/css">
   <![CDATA[
    .fil0 {fill:#001E36}
    .fil2 {fill:#104E7C}
    .fil1 {fill:#30A7FE}
   ]]>
  </style>
 </defs>
 <g id="Layer_x0020_1">
  <metadata id="CorelCorpID_0Corel-Layer"/>
  <g id="_2690661581088">
   <path class="fil0" d="M1287.17 1863.81c-55.66,26.76 -149.4,4.5 -213.78,3.42l0 441.58c-1.55,30.69 -0.6,10.75 -7.44,18.4 -23.83,20.48 -255.46,14.99 -299.13,6.96 -10.34,-58.15 -2.84,-1126.33 -2.84,-1302.02 0,-163.26 -17.11,-177.88 40,-179.94 161.12,-5.82 461.53,-16.63 593.29,6.86 486.07,86.66 503.57,587.9 339.21,798.25 -100.41,128.5 -270.58,208.59 -449.31,206.49zm692.99 155.23c23.65,1.77 93.48,39.01 126.91,50.77 43.43,15.29 93.13,27.46 141.92,34.2 79.04,10.91 281.84,16.62 238.29,-94.66 -36.48,-93.23 -297.87,-99.5 -437.48,-269.86 -158.49,-193.42 -70.49,-622.89 546.02,-533.86 192.95,27.87 141.02,46.48 143.65,245.91 1.36,103.2 -11.85,58.8 -115.45,26.96 -77.11,-23.7 -307.68,-68.41 -343.22,16 -40.64,96.56 167.01,149.16 235.23,179.32 101.49,44.86 198.04,98.74 244.18,181.38 55.32,99.09 43.7,250.5 -17.49,339.04 -54,78.13 -135.43,135.68 -265.81,159.59 -137.68,25.26 -336.57,13.82 -466.51,-42.88 -39.14,-17.08 -32.35,-32.88 -31.88,-77.17 0.75,-69.5 -3.47,-146.42 1.64,-214.74zm1400.56 740.35c12.05,-115.95 2.06,-290.33 2.06,-413.04l0 -1670.92c0.01,-144.11 -9.05,-236.91 -68.99,-350.11 -82.82,-156.39 -257.18,-314.45 -512.69,-319.41 -679.36,-13.22 -1401.78,-0.1 -2090.32,-0.1 -147.61,0 -232.68,-2.81 -358.75,54.27 -167.89,76.01 -323.15,249.33 -346.06,484.99 -11.86,121.99 -2.37,291.26 -2.37,418.23l0 1670.92c0,147.05 7.37,233.75 68.82,350.47 83.56,158.71 261.89,314.21 513.09,319.06 679.59,13.13 1401.67,0.1 2090.32,0.1 148.87,0 231.19,3.16 358.57,-54.46 170.43,-77.11 321.05,-246.69 346.32,-490z"/>
   <path class="fil1" d="M1074.17 1126.02c70.44,-16.11 248.89,-2.34 313.95,23.59 80.44,32.05 136.18,100.55 133.14,214.28 -6.14,229.39 -234.79,243.39 -450.63,234.94 0.31,-72.24 -5.03,-432.48 3.54,-472.81zm-8.22 1201.19l1.59 -462.08 219.63 -1.32c178.73,2.1 348.9,-77.99 449.31,-206.49 164.36,-210.35 146.86,-711.59 -339.21,-798.25 -131.76,-23.49 -432.17,-12.68 -593.29,-6.86 -57.11,2.06 -40,16.68 -40,179.94 0,175.69 -7.5,1243.87 2.84,1302.02 43.67,8.03 275.3,13.52 299.13,-6.96z"/>
   <path class="fil1" d="M1980.16 2019.04c-5.11,68.32 -0.89,145.24 -1.64,214.74 -0.47,44.29 -7.26,60.09 31.88,77.17 129.94,56.7 328.83,68.14 466.51,42.88 130.38,-23.91 211.81,-81.46 265.81,-159.59 61.19,-88.54 72.81,-239.95 17.49,-339.04 -46.14,-82.64 -142.69,-136.52 -244.18,-181.38 -68.22,-30.16 -275.87,-82.76 -235.23,-179.32 35.54,-84.41 266.11,-39.7 343.22,-16 103.6,31.84 116.81,76.24 115.45,-26.96 -2.63,-199.43 49.3,-218.04 -143.65,-245.91 -616.51,-89.03 -704.51,340.44 -546.02,533.86 139.61,170.36 401,176.63 437.48,269.86 43.55,111.28 -159.25,105.57 -238.29,94.66 -48.79,-6.74 -98.49,-18.91 -141.92,-34.2 -33.43,-11.76 -103.26,-49 -126.91,-50.77z"/>
   <path class="fil0" d="M1074.17 1126.02c-8.57,40.33 -3.23,400.57 -3.54,472.81 215.84,8.45 444.49,-5.55 450.63,-234.94 3.04,-113.73 -52.7,-182.23 -133.14,-214.28 -65.06,-25.93 -243.51,-39.7 -313.95,-23.59z"/>
   <path class="fil2" d="M1065.95 2327.21c6.84,-7.65 5.89,12.29 7.44,-18.4l0 -441.58c64.38,1.08 158.12,23.34 213.78,-3.42l-219.63 1.32 -1.59 462.08z"/>
  </g>
 </g>
</svg>
