<?xml version="1.0" encoding="UTF-8"?>
<!DOCTYPE svg PUBLIC "-//W3C//DTD SVG 1.1//EN" "http://www.w3.org/Graphics/SVG/1.1/DTD/svg11.dtd">
<!-- Creator: CorelDRAW -->
<svg xmlns="http://www.w3.org/2000/svg" xml:space="preserve" width="33.8668mm" height="17.606mm" version="1.1" style="shape-rendering:geometricPrecision; text-rendering:geometricPrecision; image-rendering:optimizeQuality; fill-rule:evenodd; clip-rule:evenodd"
viewBox="0 0 3386.68 1760.6"
 xmlns:xlink="http://www.w3.org/1999/xlink"
 xmlns:xodm="http://www.corel.com/coreldraw/odm/2003">
 <defs>
  <style type="text/css">
   <![CDATA[
    .fil1 {fill:#232531}
    .fil0 {fill:#8892BD}
   ]]>
  </style>
 </defs>
 <g id="Layer_x0020_1">
  <metadata id="CorelCorpID_0Corel-Layer"/>
  <g id="_2690199264528">
   <path class="fil0" d="M663.03 463.38c319.61,1.66 737.17,-83.91 704.49,307.41 -13.15,157.61 -94.96,262.19 -184.61,322.92 -144.76,98.04 -258.05,51.06 -439.06,65.27l-49.37 242.04 -217.31 -0.87 185.86 -936.77zm1370.87 937.83c-3.99,-50.59 73.6,-392.66 88.97,-470.81 30.62,-155.84 59.19,-311.33 92.63,-465.94 102.6,-6.34 407.35,-10.21 497.75,7.96 145.82,29.3 219.87,126.39 207.62,295.91 -11.5,159.13 -93.38,263.16 -184.26,323.79 -144.62,96.48 -257.61,57.73 -440.11,67.09l-48.1 241.84 -214.5 0.16zm-520.55 -1180.65l217.93 0.94 -44.3 241.75c127.84,1.62 432.14,-34.67 442.64,169.04 2.11,40.88 -70.97,465.91 -85.83,525.9l-228.92 -0.78 66.74 -362.03c10.12,-54.82 42.74,-139.54 -20.29,-154.68 -32.14,-7.72 -172.41,-4.84 -211.31,-2.49 -26.68,158.55 -66.04,325.22 -96.25,487.24 -9.64,51.7 -8.83,31.68 -227.43,32.38l187.02 -937.27zm1871.52 694.21c30.69,-347.9 -337.66,-588.08 -583.99,-699.36 -308.59,-139.39 -689.75,-211.86 -1069.39,-215.26 -1562.99,-13.99 -2350.93,990.95 -1144.88,1545.21 302.8,139.15 695.3,210.56 1069.58,215.02 374.59,4.46 784.75,-60.24 1092.28,-192.21 272.95,-117.14 607.31,-323.77 636.4,-653.4z"/>
   <path class="fil1" d="M2402.49 639.61c51.64,-7.78 187.26,-7.24 230.55,12.91 68.68,31.97 64.2,98.8 45.02,174.32 -41.5,163.46 -158.65,157.66 -335.05,157.47l59.48 -344.7zm-368.59 761.6l214.5 -0.16 48.1 -241.84c182.5,-9.36 295.49,29.39 440.11,-67.09 90.88,-60.63 172.76,-164.66 184.26,-323.79 12.25,-169.52 -61.8,-266.61 -207.62,-295.91 -90.4,-18.17 -395.15,-14.3 -497.75,-7.96 -33.44,154.61 -62.01,310.1 -92.63,465.94 -15.37,78.15 -92.96,420.22 -88.97,470.81z"/>
   <path class="fil1" d="M847.12 638.15c176.2,-9.77 331.33,-23.2 277.83,190.4 -39.59,158.06 -164.7,162.5 -334.96,155.03l57.13 -345.43zm-369.95 762l217.31 0.87 49.37 -242.04c181.01,-14.21 294.3,32.77 439.06,-65.27 89.65,-60.73 171.46,-165.31 184.61,-322.92 32.68,-391.32 -384.88,-305.75 -704.49,-307.41l-185.86 936.77z"/>
   <path class="fil1" d="M1326.33 1157.83c218.6,-0.7 217.79,19.32 227.43,-32.38 30.21,-162.02 69.57,-328.69 96.25,-487.24 38.9,-2.35 179.17,-5.23 211.31,2.49 63.03,15.14 30.41,99.86 20.29,154.68l-66.74 362.03 228.92 0.78c14.86,-59.99 87.94,-485.02 85.83,-525.9 -10.5,-203.71 -314.8,-167.42 -442.64,-169.04l44.3 -241.75 -217.93 -0.94 -187.02 937.27z"/>
   <path class="fil0" d="M789.99 983.58c170.26,7.47 295.37,3.03 334.96,-155.03 53.5,-213.6 -101.63,-200.17 -277.83,-190.4l-57.13 345.43z"/>
   <path class="fil0" d="M2343.01 984.31c176.4,0.19 293.55,5.99 335.05,-157.47 19.18,-75.52 23.66,-142.35 -45.02,-174.32 -43.29,-20.15 -178.91,-20.69 -230.55,-12.91l-59.48 344.7z"/>
  </g>
 </g>
</svg>
