<?xml version="1.0" encoding="UTF-8"?>
<!DOCTYPE svg PUBLIC "-//W3C//DTD SVG 1.1//EN" "http://www.w3.org/Graphics/SVG/1.1/DTD/svg11.dtd">
<!-- Creator: CorelDRAW -->
<svg xmlns="http://www.w3.org/2000/svg" xml:space="preserve" width="33.8668mm" height="33.0596mm" version="1.1" style="shape-rendering:geometricPrecision; text-rendering:geometricPrecision; image-rendering:optimizeQuality; fill-rule:evenodd; clip-rule:evenodd"
viewBox="0 0 3386.68 3305.96"
 xmlns:xlink="http://www.w3.org/1999/xlink"
 xmlns:xodm="http://www.corel.com/coreldraw/odm/2003">
 <defs>
  <style type="text/css">
   <![CDATA[
    .fil0 {fill:#00005B}
    .fil1 {fill:#9898FE}
   ]]>
  </style>
 </defs>
 <g id="Layer_x0020_1">
  <metadata id="CorelCorpID_0Corel-Layer"/>
  <g id="_2690357182224">
   <path class="fil0" d="M809.62 2325.2c-14.75,-42.3 -3.47,-946.9 -3.47,-1075.98 0,-481.45 -37.21,-396.27 142.21,-400.9 158.84,-4.1 362.63,-19.35 513.13,13.42 531.78,115.81 520.04,769.23 130.03,942.99 -183.95,81.95 -321.82,47.95 -478.9,59.36 -4.68,83 11.78,419.45 -5.64,463.5l-20.94 7.01c-4.52,0.76 -13.57,1 -18.39,1.12 -38.89,0.93 -236.87,7.59 -258.03,-10.52zm1562.19 -973.48c37.75,-60.4 161.49,-143.14 269.25,-162.66 120.87,-21.89 105.93,-16.93 105.85,91.46 -0.02,28.51 7.56,193.96 -9.3,206.89 -23.35,11 -101.97,7.4 -135.93,13.12 -40.64,6.86 -82.28,17.3 -118.18,31.54 -136.17,54.04 -101.48,81.02 -101.48,199.2 0,67.27 17.87,589.4 -8.81,598.45 -1.34,0.45 -3.46,1.56 -5.16,2.06 -44.33,12.96 34.37,-4.88 -11.1,2.85l-257.12 1.12c-10.28,-0.87 -7.68,-0.17 -17.11,-3.06 -14.91,-4.59 -4.83,0.44 -13.82,-7.94 -12.72,-24.43 -5.06,-490.8 -5.06,-562.18l-5.91 -555.55c37.94,-5.33 241.6,-6.69 269.17,1.88 23.37,16.74 23.1,37.69 27.83,66.79l8.56 60.58c5.3,15.79 -0.72,4.82 8.32,15.45zm-1825.67 -1345.69c-245.77,24.77 -407.44,175.07 -488.25,346.46 -55.62,117.98 -54.68,218.2 -54.68,358.33l0 1671.54c0,118.38 -10.64,301.89 6.88,411.88 36.38,228.41 189.2,394.35 368.32,464.86 129.42,50.95 229,43.3 375.88,43.3 557.18,0 1114.36,0 1671.54,0 125.85,0 295.6,9.55 416.24,-2.69 245.71,-24.92 405.25,-175.85 486.62,-346.29 55.91,-117.1 54.81,-218.94 54.81,-358.21l0 -1671.54c0,-118.79 10.61,-301.74 -6.99,-412.22 -36.6,-229.66 -188.93,-392.99 -368.05,-464.98 -122.73,-49.33 -234.75,-42.83 -376.04,-42.83 -557.18,0 -1114.36,0 -1671.54,0 -124.91,0 -295.97,-9.58 -414.74,2.39z"/>
   <path class="fil1" d="M1115.21 1595.65l-2.1 -470.43c73.09,-17.23 253.88,-3.85 318.36,22.75 181.85,75.03 178.57,349.77 -8.18,419.55 -81.54,30.48 -214.87,42.22 -308.08,28.13zm-305.59 729.55c21.16,18.11 219.14,11.45 258.03,10.52 4.82,-0.12 13.87,-0.36 18.39,-1.12l20.94 -7.01c17.42,-44.05 0.96,-380.5 5.64,-463.5 157.08,-11.41 294.95,22.59 478.9,-59.36 390.01,-173.76 401.75,-827.18 -130.03,-942.99 -150.5,-32.77 -354.29,-17.52 -513.13,-13.42 -179.42,4.63 -142.21,-80.55 -142.21,400.9 0,129.08 -11.28,1033.68 3.47,1075.98z"/>
   <path class="fil1" d="M2371.81 1351.72c-9.04,-10.63 -3.02,0.34 -8.32,-15.45l-8.56 -60.58c-4.73,-29.1 -4.46,-50.05 -27.83,-66.79 -27.57,-8.57 -231.23,-7.21 -269.17,-1.88l5.91 555.55c0,71.38 -7.66,537.75 5.06,562.18 8.99,8.38 -1.09,3.35 13.82,7.94 9.43,2.89 6.83,2.19 17.11,3.06l257.12 -1.12c45.47,-7.73 -33.23,10.11 11.1,-2.85 1.7,-0.5 3.82,-1.61 5.16,-2.06 26.68,-9.05 8.81,-531.18 8.81,-598.45 0,-118.18 -34.69,-145.16 101.48,-199.2 35.9,-14.24 77.54,-24.68 118.18,-31.54 33.96,-5.72 112.58,-2.12 135.93,-13.12 16.86,-12.93 9.28,-178.38 9.3,-206.89 0.08,-108.39 15.02,-113.35 -105.85,-91.46 -107.76,19.52 -231.5,102.26 -269.25,162.66z"/>
   <path class="fil0" d="M1115.21 1595.65c93.21,14.09 226.54,2.35 308.08,-28.13 186.75,-69.78 190.03,-344.52 8.18,-419.55 -64.48,-26.6 -245.27,-39.98 -318.36,-22.75l2.1 470.43z"/>
  </g>
 </g>
</svg>
