<?xml version="1.0" encoding="UTF-8"?>
<!DOCTYPE svg PUBLIC "-//W3C//DTD SVG 1.1//EN" "http://www.w3.org/Graphics/SVG/1.1/DTD/svg11.dtd">
<!-- Creator: CorelDRAW -->
<svg xmlns="http://www.w3.org/2000/svg" xml:space="preserve" width="33.8667mm" height="30.0938mm" version="1.1" style="shape-rendering:geometricPrecision; text-rendering:geometricPrecision; image-rendering:optimizeQuality; fill-rule:evenodd; clip-rule:evenodd"
viewBox="0 0 3386.68 3009.39"
 xmlns:xlink="http://www.w3.org/1999/xlink"
 xmlns:xodm="http://www.corel.com/coreldraw/odm/2003">
 <defs>
  <style type="text/css">
   <![CDATA[
    .fil0 {fill:#53C1DD}
   ]]>
  </style>
 </defs>
 <g id="Layer_x0020_1">
  <metadata id="CorelCorpID_0Corel-Layer"/>
  <g id="_2690351787712">
   <path class="fil0" d="M2544.99 2107.87c25.8,150.52 55.61,267.88 44.38,432.39 -28.18,412.57 -249.33,371.19 -517.47,211.54 -142.8,-85.02 -170.35,-134.89 -269.06,-209.6l257.26 -331.57c32.09,-46.56 30.14,-34.54 99.38,-41.69 139.54,-14.38 297.28,-53.13 385.51,-61.07zm-1695.04 6.48c81.29,6.35 245.99,43.65 382.13,56.87 121.73,11.82 55.84,-1.5 230.03,208.98l134.58 159.32c-81.6,74.25 -158.36,141.71 -268.87,209.8 -79.42,48.94 -239.69,130.72 -359.85,110.04 -124.59,-21.46 -159.37,-177.01 -166.63,-311.94 -9.39,-174.82 26.84,-277.71 48.61,-433.07zm847.62 314.51c-32.08,-29.16 -178.04,-195.14 -195.51,-238.87l181.38 3.61 14.13 -0.46 196.16 -3.46c-15.93,35.19 -165.85,221.92 -196.16,239.18zm-699 -749.67c21.32,18.75 78.88,137.19 97.91,169.87 30.69,52.71 80.16,120.92 101.26,172.51l-304.56 -45.41c6.05,-64.79 81.07,-234.83 105.39,-296.97zm1193.04 339.69l197.91 -341.96c26.72,33.95 103.61,237.45 112.02,290.27 -93.68,20.74 -212.33,45.8 -309.93,51.69zm-1440.17 -938.32c26.18,48.19 52.4,151.51 76.23,211.23 11.57,28.99 85.21,199.95 85.5,210.78 0.47,17.21 -142.92,349.61 -159.71,433.7 -112.36,-19.26 -282.63,-102.7 -367.99,-152.9 -79.94,-47.03 -234.24,-161.78 -239.16,-275.24 -9.04,-209.26 471.07,-412.05 605.13,-427.57zm1886.57 0.37c203.84,45.53 594.91,231 603.38,414.35 5.6,121.21 -156.3,232.98 -233.05,279.72 -59.34,36.13 -289.4,148.99 -364.62,150.82 -28.03,-64.28 -53.13,-145.78 -78.68,-211.14 -12.79,-32.73 -86.31,-192.43 -88.2,-207.44 -2.51,-20.04 68.82,-175.14 82.69,-209.25 28.86,-71.01 51.46,-148.15 78.48,-217.06zm-632.48 955.13c-150.69,27.84 -459.84,12.98 -620.52,3.19 -21.87,-43.77 -137.95,-213.06 -190.36,-309.47 -30.52,-56.15 -56.87,-103.72 -86.03,-161.16 -44.13,-86.92 -25.62,-81.16 20.32,-169.01 80.93,-154.76 141.11,-252.46 230.44,-391 27.48,-42.61 25.54,-38.78 83.71,-41.87 82.81,-4.4 164.24,-7.4 247.43,-7.46 80.48,-0.07 159.86,2.26 240.17,6.72 58.12,3.23 66.43,-6.06 92.52,33.91 16.83,25.78 32.05,50.68 49.41,77.8 80.28,125.45 156.71,261.78 225.6,396.28 20.27,39.58 6.06,45.54 -14.14,85.14 -87.04,170.67 -173.56,317.83 -278.55,476.93zm187.13 -1044.1c87.72,2.12 216.47,32.87 302.57,50.99 -9.76,51.82 -83.9,250.71 -107.27,286.79l-195.3 -337.78zm-1192.13 337.95c-29.84,-48.62 -90.32,-224.29 -105.87,-286.55 47.1,-17.61 246.16,-50.99 300.53,-51.41l-194.66 337.96zm498.4 -511.3c28.12,-60.01 156.38,-184.74 188.58,-236.8 40.04,17.54 183.4,200.42 202.75,236.97l-391.33 -0.17zm301.71 -340.24c33.05,-52.74 195.66,-174.21 265.43,-217.53 270.03,-167.64 498.4,-206.23 517.98,210.35 7.51,159.83 -18.25,282.52 -47.12,430.78 -49.95,-2.9 -261.85,-48.46 -376.82,-61.16 -63.12,-6.98 -69.23,4.79 -100.63,-39.53 -42.54,-60.02 -81,-108.34 -124.7,-164.67 -22.66,-29.23 -40.07,-50.81 -67.44,-80.8l-66.7 -77.44zm-947.41 421.2c-49.51,-201.27 -121.34,-702.02 106.85,-748.83 166.95,-34.24 451.27,155.67 568.11,264.11 26.57,24.66 38.57,38.38 63.68,55.4 -10.47,22.51 -106.21,129.12 -134.79,163.04 -176.22,209.06 -102.28,193.51 -230.51,207.56l-373.34 58.72zm844.35 -530.6c-29.93,-14.8 -48.06,-41.21 -78.16,-66.54 -176.59,-148.59 -489.64,-368.58 -731.94,-281.09 -233.38,84.28 -247.94,429.03 -222.11,655.4 8.92,78.11 42.42,198.7 43.95,260.58 -38.01,17.39 -153.32,48.64 -234.22,83.74 -428.84,186.08 -706.13,520.13 -211.74,856.27 98.49,66.97 305.65,168.97 445.34,198.16 -8.25,144.33 -75.79,261.52 -48.17,527.81 61.48,592.65 557.34,422.24 872.19,181.5l164.86 -140.28c25.78,13.64 173.12,160.71 339.64,254.94 117.96,66.76 313.19,153.28 471.72,84.97 128.19,-55.23 196.95,-194.9 219.13,-374.57 32.98,-267.01 -27.42,-364.42 -42.4,-542.25 273.24,-66.55 699.72,-287.46 701,-565.42 1.29,-281.49 -433.57,-489.55 -706.58,-560.14 -2.46,-86.4 75.02,-273.5 43.41,-542.2 -53.51,-454.86 -365.02,-475.87 -688.19,-289.88 -63.45,36.52 -122.83,76.88 -176.56,120.03l-122.43 103.59c-18.23,19.39 -16.01,18.72 -38.74,35.38z"/>
   <path class="fil0" d="M1653.96 1201.78c-396.26,55.12 -317.17,655.82 85.93,597.93 150.74,-21.65 280.75,-165.17 252.68,-345.96 -22.93,-147.56 -163.38,-276.36 -338.61,-251.97z"/>
  </g>
 </g>
</svg>
