<?xml version="1.0" encoding="UTF-8"?>
<!DOCTYPE svg PUBLIC "-//W3C//DTD SVG 1.1//EN" "http://www.w3.org/Graphics/SVG/1.1/DTD/svg11.dtd">
<!-- Creator: CorelDRAW -->
<svg xmlns="http://www.w3.org/2000/svg" xml:space="preserve" width="33.8668mm" height="20.3992mm" version="1.1" style="shape-rendering:geometricPrecision; text-rendering:geometricPrecision; image-rendering:optimizeQuality; fill-rule:evenodd; clip-rule:evenodd"
viewBox="0 0 3386.68 2039.92"
 xmlns:xlink="http://www.w3.org/1999/xlink"
 xmlns:xodm="http://www.corel.com/coreldraw/odm/2003">
 <defs>
  <style type="text/css">
   <![CDATA[
    .fil0 {fill:#17BAB8}
    .fil1 {fill:#18B5B8}
   ]]>
  </style>
 </defs>
 <g id="Layer_x0020_1">
  <metadata id="CorelCorpID_0Corel-Layer"/>
  <g id="_2690363022960">
   <path class="fil0" d="M848.82 667.97c56.78,-46.65 116.43,-162 283.78,-227.35 200.06,-78.11 420.49,-7.71 557.06,140.72 24.16,26.25 37.25,42.62 60.9,64.8 112.44,105.46 200.89,205.56 358.9,282.3 244.36,118.66 596.06,122.27 844.63,7.46 223.21,-103.1 393.96,-362.06 432.59,-588.41 -79.03,74.8 -116.63,161.38 -277.48,228.01 -138.3,57.3 -294.31,44.27 -416.93,-22.42 -192.6,-104.76 -289.15,-320.79 -560.54,-457.87 -239.63,-121.03 -595.74,-127.32 -844.34,-15.11 -128.56,58.03 -207.42,136.32 -279.34,229.83 -51.52,66.99 -145.96,250.56 -159.23,358.04z"/>
   <path class="fil1" d="M-0 1686.44c48.86,-38.71 117.09,-163.23 288.72,-228.78 203.29,-77.64 429.45,-0.73 557.49,149.37 44.43,52.09 195.53,193.85 263.28,245.93 353.95,272.08 1000.94,263.86 1274.76,-135.37 57.47,-83.78 134.17,-232.66 153.51,-351.09 -39.67,39.31 -68.68,80.26 -122.9,130.14 -36.48,33.55 -99.17,73.97 -158.75,99.28 -134.01,56.95 -301.27,38.88 -416.46,-26.75 -132.72,-75.61 -261.94,-246.44 -406.01,-360.95 -343.18,-272.77 -992.66,-274.41 -1277.05,123.54 -54.31,75.99 -140.04,241.74 -156.59,354.68z"/>
  </g>
 </g>
</svg>
