<?xml version="1.0" encoding="UTF-8"?>
<!DOCTYPE svg PUBLIC "-//W3C//DTD SVG 1.1//EN" "http://www.w3.org/Graphics/SVG/1.1/DTD/svg11.dtd">
<!-- Creator: CorelDRAW -->
<svg xmlns="http://www.w3.org/2000/svg" xml:space="preserve" width="33.873mm" height="33.8668mm" version="1.1" style="shape-rendering:geometricPrecision; text-rendering:geometricPrecision; image-rendering:optimizeQuality; fill-rule:evenodd; clip-rule:evenodd"
viewBox="0 0 3387.3 3386.68"
 xmlns:xlink="http://www.w3.org/1999/xlink"
 xmlns:xodm="http://www.corel.com/coreldraw/odm/2003">
 <defs>
  <style type="text/css">
   <![CDATA[
    .fil0 {fill:#007ACC}
    .fil1 {fill:#FEFEFE}
   ]]>
  </style>
 </defs>
 <g id="Layer_x0020_1">
  <metadata id="CorelCorpID_0Corel-Layer"/>
  <g id="_2690199451872">
   <path class="fil0" d="M750.31 1566.72l1187.13 -1.59 3.98 278.08 -440.65 0.14 -0.35 1251.86 -311.83 0.26 -0.01 -1249.36 -438.49 -3.04 0.22 -276.35zm2032.39 384.29c-50.96,-63.75 -93.24,-149.29 -235.73,-126.02 -107.64,17.58 -156.07,144.43 -82.09,226.09 73.89,81.55 323.49,145.87 478.89,261.48 171.75,127.77 220.29,354.43 143.77,536.63 -151.98,361.87 -768.32,316.64 -971.29,77.63 -19.3,-22.72 -78.4,-100.57 -88.18,-134.03 38.82,-26.84 83.55,-49.23 125.67,-74.2 34.95,-20.73 95.94,-60.78 131.29,-72.4 25.17,51.9 70.15,95.45 110.16,127.14 185.8,147.2 496.21,17.57 392.21,-166.29 -44.23,-78.19 -197.99,-129.99 -301.35,-175.61 -128.31,-56.65 -210.87,-109.64 -280.56,-196.24 -144.18,-179.18 -116.66,-525.88 151.58,-643.5 115.5,-50.63 280.79,-59.95 410.65,-18.97 101.73,32.11 233.93,145.05 254.9,221.01 -22.2,24.53 -206.11,147.17 -239.92,157.28zm-2782.7 1434.9l61.89 0.77 3312.86 0 11.69 -0.77 0.86 -3385.91 -3387.3 0.77 0 3385.14z"/>
   <path class="fil1" d="M2782.7 1951.01c33.81,-10.11 217.72,-132.75 239.92,-157.28 -20.97,-75.96 -153.17,-188.9 -254.9,-221.01 -129.86,-40.98 -295.15,-31.66 -410.65,18.97 -268.24,117.62 -295.76,464.32 -151.58,643.5 69.69,86.6 152.25,139.59 280.56,196.24 103.36,45.62 257.12,97.42 301.35,175.61 104,183.86 -206.41,313.49 -392.21,166.29 -40.01,-31.69 -84.99,-75.24 -110.16,-127.14 -35.35,11.62 -96.34,51.67 -131.29,72.4 -42.12,24.97 -86.85,47.36 -125.67,74.2 9.78,33.46 68.88,111.31 88.18,134.03 202.97,239.01 819.31,284.24 971.29,-77.63 76.52,-182.2 27.98,-408.86 -143.77,-536.63 -155.4,-115.61 -405,-179.93 -478.89,-261.48 -73.98,-81.66 -25.55,-208.51 82.09,-226.09 142.49,-23.27 184.77,62.27 235.73,126.02z"/>
   <polygon class="fil1" points="750.09,1843.07 1188.58,1846.11 1188.59,3095.47 1500.42,3095.21 1500.77,1843.35 1941.42,1843.21 1937.44,1565.13 750.31,1566.72 "/>
  </g>
 </g>
</svg>
